<mxfile host="app.diagrams.net" agent="Mozilla/5.0 (Windows NT 10.0; Win64; x64) AppleWebKit/537.36 (KHTML, like Gecko) Chrome/135.0.0.0 Safari/537.36" version="26.2.14" pages="3">
  <diagram name="Страница — 1" id="diMklxl51IYFM56ftJUA">
    <mxGraphModel dx="5550" dy="3759" grid="1" gridSize="10" guides="1" tooltips="1" connect="1" arrows="1" fold="1" page="1" pageScale="1" pageWidth="827" pageHeight="1169" math="0" shadow="0">
      <root>
        <mxCell id="0" />
        <mxCell id="1" parent="0" />
        <mxCell id="VEAfiU_H7lCTD8c6Zu9z-1" value="" style="shape=image;verticalLabelPosition=bottom;labelBackgroundColor=default;verticalAlign=top;aspect=fixed;imageAspect=0;editableCssRules=.*;image=data:image/svg+xml,PHN2ZyB4bWxuczp4bGluaz0iaHR0cDovL3d3dy53My5vcmcvMTk5OS94bGluayIgeG1sbnM9Imh0dHA6Ly93d3cudzMub3JnLzIwMDAvc3ZnIiB2aWV3Qm94PSIyOC43OTk0ODQyNTI5Mjk2ODggMjguNzk5MzUyNjQ1ODc0MDIzIDQ5Ni43MjUxNTg2OTE0MDYyNSAyMTYwLjAwMTk1MzEyNSIgaGVpZ2h0PSIyMTg4LjgxNzc2ODY1NDYyOCIgd2lkdGg9IjUyMy42NDQ2NTI3NTM1Mzc2Ij4mI3hhOzxnIHRyYW5zZm9ybT0ic2NhbGUoMC42NzYyMDMgMC42NzYyMDMpIHJvdGF0ZSgwKSB0cmFuc2xhdGUoNDYuNTkgMzIzMi45KSIgY2xhc3M9ImdyYXBoIiBpZD0iZ3JhcGgwIj4mI3hhOzx0aXRsZT5Va3JhaW5lPC90aXRsZT4mI3hhOzxwb2x5Z29uIHBvaW50cz0iLTQsNCAtNCwtMzE5MC4zMSA3MzAuNTgsLTMxOTAuMzEgNzMwLjU4LDQgLTQsNCIgc3Ryb2tlPSJub25lIiBmaWxsPSJ3aGl0ZSIvPiYjeGE7JiN4YTs8ZyBjbGFzcz0ibm9kZSIgaWQ9Im5vZGUxIj4mI3hhOzx0aXRsZT5MMTwvdGl0bGU+JiN4YTs8cG9seWdvbiBwb2ludHM9IjM3Mi4yMywtMTE4LjIzIDI5MC45MywtMjM2LjQ2IDEyOC4zMSwtMjM2LjQ2IDQ3LjAxLC0xMTguMjMgMTI4LjMxLDAgMjkwLjkzLDAgMzcyLjIzLC0xMTguMjMiIHN0cm9rZT0iYmxhY2siIGZpbGw9ImxpZ2h0Z3JleSIvPiYjeGE7PHBvbHlnb24gcG9pbnRzPSIxMjQuNDQsLTE0OS4wMyAxMjQuNDQsLTE3OS44MyAyOTQuOCwtMTc5LjgzIDI5NC44LC0xNDkuMDMgMTI0LjQ0LC0xNDkuMDMiIHN0cm9rZT0ibm9uZSIgZmlsbD0iI2Y5ZTc5ZiIvPiYjeGE7PHBvbHlnb24gcG9pbnRzPSIxMjQuNDQsLTE0OS4wMyAxMjQuNDQsLTE3OS44MyAyOTQuOCwtMTc5LjgzIDI5NC44LC0xNDkuMDMgMTI0LjQ0LC0xNDkuMDMiIHN0cm9rZT0iYmxhY2siIGZpbGw9Im5vbmUiLz4mI3hhOzx0ZXh0IGZvbnQtc2l6ZT0iMTQuMDAiIGZvbnQtd2VpZ2h0PSJib2xkIiBmb250LWZhbWlseT0iQXJpYWwiIHk9Ii0xNjEuMjMiIHg9IjEzMS40NCIgdGV4dC1hbmNob3I9InN0YXJ0Ij7QmtC40LXQstC+LdCf0LXRh9C10YDRgdC60LDRjyDQu9Cw0LLRgNCwPC90ZXh0PiYjeGE7PHBvbHlnb24gcG9pbnRzPSIxMjQuNDQsLTExOC4yMyAxMjQuNDQsLTE0OS4wMyAyOTQuOCwtMTQ5LjAzIDI5NC44LC0xMTguMjMgMTI0LjQ0LC0xMTguMjMiIHN0cm9rZT0iYmxhY2siIGZpbGw9Im5vbmUiLz4mI3hhOzx0ZXh0IGZvbnQtc2l6ZT0iMTQuMDAiIGZvbnQtZmFtaWx5PSJBcmlhbCIgeT0iLTEyOS40MyIgeD0iMTc4LjQ5IiB0ZXh0LWFuY2hvcj0ic3RhcnQiPtCT0L7QtDogMTA1MTwvdGV4dD4mI3hhOzxwb2x5Z29uIHBvaW50cz0iMTI0LjQ0LC04Ny40MyAxMjQuNDQsLTExOC4yMyAyOTQuOCwtMTE4LjIzIDI5NC44LC04Ny40MyAxMjQuNDQsLTg3LjQzIiBzdHJva2U9ImJsYWNrIiBmaWxsPSJub25lIi8+JiN4YTs8dGV4dCBmb250LXNpemU9IjE0LjAwIiBmb250LWZhbWlseT0iQXJpYWwiIHk9Ii05OC42MyIgeD0iMTUxLjI3IiB0ZXh0LWFuY2hvcj0ic3RhcnQiPtCi0LjQvzog0YDQtdC70LjQs9C40L7Qt9C90YvQuTwvdGV4dD4mI3hhOzxwb2x5Z29uIHBvaW50cz0iMTI0LjQ0LC01Ni42MyAxMjQuNDQsLTg3LjQzIDI5NC44LC04Ny40MyAyOTQuOCwtNTYuNjMgMTI0LjQ0LC01Ni42MyIgc3Ryb2tlPSJub25lIiBmaWxsPSIjZjllNzlmIi8+JiN4YTs8cG9seWdvbiBwb2ludHM9IjEyNC40NCwtNTYuNjMgMTI0LjQ0LC04Ny40MyAyOTQuOCwtODcuNDMgMjk0LjgsLTU2LjYzIDEyNC40NCwtNTYuNjMiIHN0cm9rZT0iYmxhY2siIGZpbGw9Im5vbmUiLz4mI3hhOzx0ZXh0IGZvbnQtc2l6ZT0iMTQuMDAiIGZvbnQtZmFtaWx5PSJBcmlhbCIgeT0iLTY3LjgzIiB4PSIxNjEiIHRleHQtYW5jaG9yPSJzdGFydCI+0J7QsdGK0LXQutGCINCu0J3QldCh0JrQnjwvdGV4dD4mI3hhOzwvZz4mI3hhOyYjeGE7PGcgY2xhc3M9Im5vZGUiIGlkPSJub2RlNCI+JiN4YTs8dGl0bGU+QzE8L3RpdGxlPiYjeGE7PHBvbHlnb24gcG9pbnRzPSI3MjYuNTgsLTE3Mi4yMyA0OTEuMjQsLTE3Mi4yMyA0OTEuMjQsLTY0LjIzIDcyNi41OCwtNjQuMjMgNzI2LjU4LC0xNzIuMjMiIHN0cm9rZT0iIzJlY2M3MSIgZmlsbD0iI2Q1ZjVlMyIvPiYjeGE7PHBvbHlnb24gcG9pbnRzPSI1MDUuNjQsLTEzMi42MyA1MDUuNjQsLTE2MS40MyA3MTIuMTgsLTE2MS40MyA3MTIuMTgsLTEzMi42MyA1MDUuNjQsLTEzMi42MyIgc3Ryb2tlPSIjMmVjYzcxIiBmaWxsPSJub25lIi8+JiN4YTs8dGV4dCBmb250LXNpemU9IjE0LjAwIiBmb250LXdlaWdodD0iYm9sZCIgZm9udC1mYW1pbHk9IkFyaWFsIiB5PSItMTQzLjgzIiB4PSI1OTMuMzUiIHRleHQtYW5jaG9yPSJzdGFydCI+0JrQuNC10LI8L3RleHQ+JiN4YTs8cG9seWdvbiBwb2ludHM9IjUwNS42NCwtMTAzLjgzIDUwNS42NCwtMTMyLjYzIDcxMi4xOCwtMTMyLjYzIDcxMi4xOCwtMTAzLjgzIDUwNS42NCwtMTAzLjgzIiBzdHJva2U9IiMyZWNjNzEiIGZpbGw9Im5vbmUiLz4mI3hhOzx0ZXh0IGZvbnQtc2l6ZT0iMTQuMDAiIGZvbnQtZmFtaWx5PSJBcmlhbCIgeT0iLTExNC4wMyIgeD0iNTUwLjU2IiB0ZXh0LWFuY2hvcj0ic3RhcnQiPtCd0LDRgdC10LvQtdC90LjQtTogMi45N008L3RleHQ+JiN4YTs8cG9seWdvbiBwb2ludHM9IjUwNS42NCwtNzUuMDMgNTA1LjY0LC0xMDMuODMgNzEyLjE4LC0xMDMuODMgNzEyLjE4LC03NS4wMyA1MDUuNjQsLTc1LjAzIiBzdHJva2U9IiMyZWNjNzEiIGZpbGw9Im5vbmUiLz4mI3hhOzx0ZXh0IGZvbnQtc2l6ZT0iMTQuMDAiIGZvbnQtZmFtaWx5PSJBcmlhbCIgeT0iLTg1LjIzIiB4PSI1MTEuNjQiIHRleHQtYW5jaG9yPSJzdGFydCI+0JrQvtC+0YDQtNC40L3QsNGC0Ys6IDUwLjQ1wrBOIDMwLjUywrBFPC90ZXh0PiYjeGE7PC9nPiYjeGE7JiN4YTs8ZyBjbGFzcz0iZWRnZSIgaWQ9ImVkZ2UxIj4mI3hhOzx0aXRsZT5MMS0mZ3Q7QzE8L3RpdGxlPiYjeGE7PHBhdGggZD0iTTM3Mi43OSwtMTE4LjIzQzQxMi4zNywtMTE4LjIzIDQ1My45NiwtMTE4LjIzIDQ5MC45NywtMTE4LjIzIiBzdHJva2UtZGFzaGFycmF5PSI1LDIiIHN0cm9rZT0iIzdmOGM4ZCIgZmlsbD0ibm9uZSIvPiYjeGE7PC9nPiYjeGE7JiN4YTs8ZyBjbGFzcz0ibm9kZSIgaWQ9Im5vZGUyIj4mI3hhOzx0aXRsZT5MMjwvdGl0bGU+JiN4YTs8cG9seWdvbiBwb2ludHM9IjM0MS4xNSwtNjMxLjIzIDI3NS4zOSwtNzI0LjMxIDE0My44NSwtNzI0LjMxIDc4LjA5LC02MzEuMjMgMTQzLjg1LC01MzguMTUgMjc1LjM5LC01MzguMTUgMzQxLjE1LC02MzEuMjMiIHN0cm9rZT0iYmxhY2siIGZpbGw9ImxpZ2h0Z3JleSIvPiYjeGE7PHBvbHlnb24gcG9pbnRzPSIxNDMuNDcsLTY0Ni42MyAxNDMuNDcsLTY3Ny40MyAyNzUuNzcsLTY3Ny40MyAyNzUuNzcsLTY0Ni42MyAxNDMuNDcsLTY0Ni42MyIgc3Ryb2tlPSJub25lIiBmaWxsPSIjZmRlYmQwIi8+JiN4YTs8cG9seWdvbiBwb2ludHM9IjE0My40NywtNjQ2LjYzIDE0My40NywtNjc3LjQzIDI3NS43NywtNjc3LjQzIDI3NS43NywtNjQ2LjYzIDE0My40NywtNjQ2LjYzIiBzdHJva2U9ImJsYWNrIiBmaWxsPSJub25lIi8+JiN4YTs8dGV4dCBmb250LXNpemU9IjE0LjAwIiBmb250LXdlaWdodD0iYm9sZCIgZm9udC1mYW1pbHk9IkFyaWFsIiB5PSItNjU4LjgzIiB4PSIxNTAuNDciIHRleHQtYW5jaG9yPSJzdGFydCI+0KDRi9C90L7QuiAi0JLQtdGA0L3QuNGB0LDQtiI8L3RleHQ+JiN4YTs8cG9seWdvbiBwb2ludHM9IjE0My40NywtNjE1LjgzIDE0My40NywtNjQ2LjYzIDI3NS43NywtNjQ2LjYzIDI3NS43NywtNjE1LjgzIDE0My40NywtNjE1LjgzIiBzdHJva2U9ImJsYWNrIiBmaWxsPSJub25lIi8+JiN4YTs8dGV4dCBmb250LXNpemU9IjE0LjAwIiBmb250LWZhbWlseT0iQXJpYWwiIHk9Ii02MjcuMDMiIHg9IjE3OC40OSIgdGV4dC1hbmNob3I9InN0YXJ0Ij7Qk9C+0LQ6IDE5ODA8L3RleHQ+JiN4YTs8cG9seWdvbiBwb2ludHM9IjE0My40NywtNTg1LjAzIDE0My40NywtNjE1LjgzIDI3NS43NywtNjE1LjgzIDI3NS43NywtNTg1LjAzIDE0My40NywtNTg1LjAzIiBzdHJva2U9ImJsYWNrIiBmaWxsPSJub25lIi8+JiN4YTs8dGV4dCBmb250LXNpemU9IjE0LjAwIiBmb250LWZhbWlseT0iQXJpYWwiIHk9Ii01OTYuMjMiIHg9IjE1NS4xNiIgdGV4dC1hbmNob3I9InN0YXJ0Ij7QotC40L86INC60YPQu9GM0YLRg9GA0L3Ri9C5PC90ZXh0PiYjeGE7PC9nPiYjeGE7JiN4YTs8ZyBjbGFzcz0ibm9kZSIgaWQ9Im5vZGU1Ij4mI3hhOzx0aXRsZT5DMjwvdGl0bGU+JiN4YTs8cG9seWdvbiBwb2ludHM9IjcyNi41OCwtNTYzLjIzIDQ5MS4yNCwtNTYzLjIzIDQ5MS4yNCwtNDU1LjIzIDcyNi41OCwtNDU1LjIzIDcyNi41OCwtNTYzLjIzIiBzdHJva2U9IiMyZWNjNzEiIGZpbGw9IiNkNWY1ZTMiLz4mI3hhOzxwb2x5Z29uIHBvaW50cz0iNTA1LjY0LC01MjMuNjMgNTA1LjY0LC01NTIuNDMgNzEyLjE4LC01NTIuNDMgNzEyLjE4LC01MjMuNjMgNTA1LjY0LC01MjMuNjMiIHN0cm9rZT0iIzJlY2M3MSIgZmlsbD0ibm9uZSIvPiYjeGE7PHRleHQgZm9udC1zaXplPSIxNC4wMCIgZm9udC13ZWlnaHQ9ImJvbGQiIGZvbnQtZmFtaWx5PSJBcmlhbCIgeT0iLTUzNC44MyIgeD0iNTg5LjQ2IiB0ZXh0LWFuY2hvcj0ic3RhcnQiPtCb0YzQstC+0LI8L3RleHQ+JiN4YTs8cG9seWdvbiBwb2ludHM9IjUwNS42NCwtNDk0LjgzIDUwNS42NCwtNTIzLjYzIDcxMi4xOCwtNTIzLjYzIDcxMi4xOCwtNDk0LjgzIDUwNS42NCwtNDk0LjgzIiBzdHJva2U9IiMyZWNjNzEiIGZpbGw9Im5vbmUiLz4mI3hhOzx0ZXh0IGZvbnQtc2l6ZT0iMTQuMDAiIGZvbnQtZmFtaWx5PSJBcmlhbCIgeT0iLTUwNS4wMyIgeD0iNTUzLjY2IiB0ZXh0LWFuY2hvcj0ic3RhcnQiPtCd0LDRgdC10LvQtdC90LjQtTogNzI0SzwvdGV4dD4mI3hhOzxwb2x5Z29uIHBvaW50cz0iNTA1LjY0LC00NjYuMDMgNTA1LjY0LC00OTQuODMgNzEyLjE4LC00OTQuODMgNzEyLjE4LC00NjYuMDMgNTA1LjY0LC00NjYuMDMiIHN0cm9rZT0iIzJlY2M3MSIgZmlsbD0ibm9uZSIvPiYjeGE7PHRleHQgZm9udC1zaXplPSIxNC4wMCIgZm9udC1mYW1pbHk9IkFyaWFsIiB5PSItNDc2LjIzIiB4PSI1MTEuNjQiIHRleHQtYW5jaG9yPSJzdGFydCI+0JrQvtC+0YDQtNC40L3QsNGC0Ys6IDQ5Ljg0wrBOIDI0LjAzwrBFPC90ZXh0PiYjeGE7PC9nPiYjeGE7JiN4YTs8ZyBjbGFzcz0iZWRnZSIgaWQ9ImVkZ2UyIj4mI3hhOzx0aXRsZT5MMi0mZ3Q7QzI8L3RpdGxlPiYjeGE7PHBhdGggZD0iTTMxOC4xMywtNTk4LjIxQzM3MS41NiwtNTgxLjgxIDQzNi4yMiwtNTYxLjk1IDQ5MC44OSwtNTQ1LjE2IiBzdHJva2UtZGFzaGFycmF5PSI1LDIiIHN0cm9rZT0iIzdmOGM4ZCIgZmlsbD0ibm9uZSIvPiYjeGE7PC9nPiYjeGE7JiN4YTs8ZyBjbGFzcz0ibm9kZSIgaWQ9Im5vZGUzIj4mI3hhOzx0aXRsZT5MMzwvdGl0bGU+JiN4YTs8cG9seWdvbiBwb2ludHM9IjM1Mi41NSwtMzg3LjIzIDI4MS4wOCwtNDgwLjMxIDEzOC4xNiwtNDgwLjMxIDY2LjY5LC0zODcuMjMgMTM4LjE2LC0yOTQuMTUgMjgxLjA4LC0yOTQuMTUgMzUyLjU1LC0zODcuMjMiIHN0cm9rZT0iYmxhY2siIGZpbGw9ImxpZ2h0Z3JleSIvPiYjeGE7PHBvbHlnb24gcG9pbnRzPSIxMzYuNSwtNDAyLjYzIDEzNi41LC00MzMuNDMgMjgyLjc0LC00MzMuNDMgMjgyLjc0LC00MDIuNjMgMTM2LjUsLTQwMi42MyIgc3Ryb2tlPSJub25lIiBmaWxsPSIjZmRlYmQwIi8+JiN4YTs8cG9seWdvbiBwb2ludHM9IjEzNi41LC00MDIuNjMgMTM2LjUsLTQzMy40MyAyODIuNzQsLTQzMy40MyAyODIuNzQsLTQwMi42MyAxMzYuNSwtNDAyLjYzIiBzdHJva2U9ImJsYWNrIiBmaWxsPSJub25lIi8+JiN4YTs8dGV4dCBmb250LXNpemU9IjE0LjAwIiBmb250LXdlaWdodD0iYm9sZCIgZm9udC1mYW1pbHk9IkFyaWFsIiB5PSItNDE0LjgzIiB4PSIxNTEuMjciIHRleHQtYW5jaG9yPSJzdGFydCI+0KDQsNGC0YPRiNCwINCy0L4g0JvRjNCy0L7QstC1PC90ZXh0PiYjeGE7PHBvbHlnb24gcG9pbnRzPSIxMzYuNSwtMzcxLjgzIDEzNi41LC00MDIuNjMgMjgyLjc0LC00MDIuNjMgMjgyLjc0LC0zNzEuODMgMTM2LjUsLTM3MS44MyIgc3Ryb2tlPSJibGFjayIgZmlsbD0ibm9uZSIvPiYjeGE7PHRleHQgZm9udC1zaXplPSIxNC4wMCIgZm9udC1mYW1pbHk9IkFyaWFsIiB5PSItMzgzLjAzIiB4PSIxNzguNDkiIHRleHQtYW5jaG9yPSJzdGFydCI+0JPQvtC0OiAxODM1PC90ZXh0PiYjeGE7PHBvbHlnb24gcG9pbnRzPSIxMzYuNSwtMzQxLjAzIDEzNi41LC0zNzEuODMgMjgyLjc0LC0zNzEuODMgMjgyLjc0LC0zNDEuMDMgMTM2LjUsLTM0MS4wMyIgc3Ryb2tlPSJibGFjayIgZmlsbD0ibm9uZSIvPiYjeGE7PHRleHQgZm9udC1zaXplPSIxNC4wMCIgZm9udC1mYW1pbHk9IkFyaWFsIiB5PSItMzUyLjIzIiB4PSIxNDMuNSIgdGV4dC1hbmNob3I9InN0YXJ0Ij7QotC40L86INCw0YDRhdC40YLQtdC60YLRg9GA0L3Ri9C5PC90ZXh0PiYjeGE7PC9nPiYjeGE7JiN4YTs8ZyBjbGFzcz0iZWRnZSIgaWQ9ImVkZ2UzIj4mI3hhOzx0aXRsZT5MMy0mZ3Q7QzI8L3RpdGxlPiYjeGE7PHBhdGggZD0iTTMyNS44LC00MjIuNkMzNzcuNywtNDM4LjU0IDQzOC44OSwtNDU3LjMzIDQ5MC45OSwtNDczLjMzIiBzdHJva2UtZGFzaGFycmF5PSI1LDIiIHN0cm9rZT0iIzdmOGM4ZCIgZmlsbD0ibm9uZSIvPiYjeGE7PC9nPiYjeGE7JiN4YTs8ZyBjbGFzcz0ibm9kZSIgaWQ9Im5vZGU2Ij4mI3hhOzx0aXRsZT5DNzwvdGl0bGU+JiN4YTs8cG9seWdvbiBwb2ludHM9IjcyNi41OCwtOTI5LjIzIDQ5MS4yNCwtOTI5LjIzIDQ5MS4yNCwtODIxLjIzIDcyNi41OCwtODIxLjIzIDcyNi41OCwtOTI5LjIzIiBzdHJva2U9IiMyZWNjNzEiIGZpbGw9IiNkNWY1ZTMiLz4mI3hhOzxwb2x5Z29uIHBvaW50cz0iNTA1LjY0LC04ODkuNjMgNTA1LjY0LC05MTguNDMgNzEyLjE4LC05MTguNDMgNzEyLjE4LC04ODkuNjMgNTA1LjY0LC04ODkuNjMiIHN0cm9rZT0iIzJlY2M3MSIgZmlsbD0ibm9uZSIvPiYjeGE7PHRleHQgZm9udC1zaXplPSIxNC4wMCIgZm9udC13ZWlnaHQ9ImJvbGQiIGZvbnQtZmFtaWx5PSJBcmlhbCIgeT0iLTkwMC44MyIgeD0iNTUyLjEyIiB0ZXh0LWFuY2hvcj0ic3RhcnQiPtCY0LLQsNC90L4t0KTRgNCw0L3QutC+0LLRgdC6PC90ZXh0PiYjeGE7PHBvbHlnb24gcG9pbnRzPSI1MDUuNjQsLTg2MC44MyA1MDUuNjQsLTg4OS42MyA3MTIuMTgsLTg4OS42MyA3MTIuMTgsLTg2MC44MyA1MDUuNjQsLTg2MC44MyIgc3Ryb2tlPSIjMmVjYzcxIiBmaWxsPSJub25lIi8+JiN4YTs8dGV4dCBmb250LXNpemU9IjE0LjAwIiBmb250LWZhbWlseT0iQXJpYWwiIHk9Ii04NzEuMDMiIHg9IjU1My42NiIgdGV4dC1hbmNob3I9InN0YXJ0Ij7QndCw0YHQtdC70LXQvdC40LU6IDIzOEs8L3RleHQ+JiN4YTs8cG9seWdvbiBwb2ludHM9IjUwNS42NCwtODMyLjAzIDUwNS42NCwtODYwLjgzIDcxMi4xOCwtODYwLjgzIDcxMi4xOCwtODMyLjAzIDUwNS42NCwtODMyLjAzIiBzdHJva2U9IiMyZWNjNzEiIGZpbGw9Im5vbmUiLz4mI3hhOzx0ZXh0IGZvbnQtc2l6ZT0iMTQuMDAiIGZvbnQtZmFtaWx5PSJBcmlhbCIgeT0iLTg0Mi4yMyIgeD0iNTExLjY0IiB0ZXh0LWFuY2hvcj0ic3RhcnQiPtCa0L7QvtGA0LTQuNC90LDRgtGLOiA0OC45MsKwTiAyNC43McKwRTwvdGV4dD4mI3hhOzwvZz4mI3hhOyYjeGE7PGcgY2xhc3M9Im5vZGUiIGlkPSJub2RlNyI+JiN4YTs8dGl0bGU+TDQ8L3RpdGxlPiYjeGE7PHBvbHlnb24gcG9pbnRzPSIzNzcuOTUsLTExNDQuMjMgMjkzLjc5LC0xMjYyLjQ2IDEyNS40NSwtMTI2Mi40NiA0MS4yOSwtMTE0NC4yMyAxMjUuNDUsLTEwMjYgMjkzLjc5LC0xMDI2IDM3Ny45NSwtMTE0NC4yMyIgc3Ryb2tlPSJibGFjayIgZmlsbD0ibGlnaHRncmV5Ii8+JiN4YTs8cG9seWdvbiBwb2ludHM9IjEyMC45NCwtMTE3NS4wMyAxMjAuOTQsLTEyMDUuODMgMjk4LjMsLTEyMDUuODMgMjk4LjMsLTExNzUuMDMgMTIwLjk0LC0xMTc1LjAzIiBzdHJva2U9Im5vbmUiIGZpbGw9IiNmOWU3OWYiLz4mI3hhOzxwb2x5Z29uIHBvaW50cz0iMTIwLjk0LC0xMTc1LjAzIDEyMC45NCwtMTIwNS44MyAyOTguMywtMTIwNS44MyAyOTguMywtMTE3NS4wMyAxMjAuOTQsLTExNzUuMDMiIHN0cm9rZT0iYmxhY2siIGZpbGw9Im5vbmUiLz4mI3hhOzx0ZXh0IGZvbnQtc2l6ZT0iMTQuMDAiIGZvbnQtd2VpZ2h0PSJib2xkIiBmb250LWZhbWlseT0iQXJpYWwiIHk9Ii0xMTg3LjIzIiB4PSIxMjcuOTQiIHRleHQtYW5jaG9yPSJzdGFydCI+0J7QtNC10YHRgdC60LjQuSDQvtC/0LXRgNC90YvQuSDRgtC10LDRgtGAPC90ZXh0PiYjeGE7PHBvbHlnb24gcG9pbnRzPSIxMjAuOTQsLTExNDQuMjMgMTIwLjk0LC0xMTc1LjAzIDI5OC4zLC0xMTc1LjAzIDI5OC4zLC0xMTQ0LjIzIDEyMC45NCwtMTE0NC4yMyIgc3Ryb2tlPSJibGFjayIgZmlsbD0ibm9uZSIvPiYjeGE7PHRleHQgZm9udC1zaXplPSIxNC4wMCIgZm9udC1mYW1pbHk9IkFyaWFsIiB5PSItMTE1NS40MyIgeD0iMTc4LjQ5IiB0ZXh0LWFuY2hvcj0ic3RhcnQiPtCT0L7QtDogMTg4NzwvdGV4dD4mI3hhOzxwb2x5Z29uIHBvaW50cz0iMTIwLjk0LC0xMTEzLjQzIDEyMC45NCwtMTE0NC4yMyAyOTguMywtMTE0NC4yMyAyOTguMywtMTExMy40MyAxMjAuOTQsLTExMTMuNDMiIHN0cm9rZT0iYmxhY2siIGZpbGw9Im5vbmUiLz4mI3hhOzx0ZXh0IGZvbnQtc2l6ZT0iMTQuMDAiIGZvbnQtZmFtaWx5PSJBcmlhbCIgeT0iLTExMjQuNjMiIHg9IjE1NS4xNiIgdGV4dC1hbmNob3I9InN0YXJ0Ij7QotC40L86INC60YPQu9GM0YLRg9GA0L3Ri9C5PC90ZXh0PiYjeGE7PHBvbHlnb24gcG9pbnRzPSIxMjAuOTQsLTEwODIuNjMgMTIwLjk0LC0xMTEzLjQzIDI5OC4zLC0xMTEzLjQzIDI5OC4zLC0xMDgyLjYzIDEyMC45NCwtMTA4Mi42MyIgc3Ryb2tlPSJub25lIiBmaWxsPSIjZjllNzlmIi8+JiN4YTs8cG9seWdvbiBwb2ludHM9IjEyMC45NCwtMTA4Mi42MyAxMjAuOTQsLTExMTMuNDMgMjk4LjMsLTExMTMuNDMgMjk4LjMsLTEwODIuNjMgMTIwLjk0LC0xMDgyLjYzIiBzdHJva2U9ImJsYWNrIiBmaWxsPSJub25lIi8+JiN4YTs8dGV4dCBmb250LXNpemU9IjE0LjAwIiBmb250LWZhbWlseT0iQXJpYWwiIHk9Ii0xMDkzLjgzIiB4PSIxNjEiIHRleHQtYW5jaG9yPSJzdGFydCI+0J7QsdGK0LXQutGCINCu0J3QldCh0JrQnjwvdGV4dD4mI3hhOzwvZz4mI3hhOyYjeGE7PGcgY2xhc3M9Im5vZGUiIGlkPSJub2RlMTAiPiYjeGE7PHRpdGxlPkMzPC90aXRsZT4mI3hhOzxwb2x5Z29uIHBvaW50cz0iNzI2LjU4LC0xMTk4LjIzIDQ5MS4yNCwtMTE5OC4yMyA0OTEuMjQsLTEwOTAuMjMgNzI2LjU4LC0xMDkwLjIzIDcyNi41OCwtMTE5OC4yMyIgc3Ryb2tlPSIjMmVjYzcxIiBmaWxsPSIjZDVmNWUzIi8+JiN4YTs8cG9seWdvbiBwb2ludHM9IjUwNS42NCwtMTE1OC42MyA1MDUuNjQsLTExODcuNDMgNzEyLjE4LC0xMTg3LjQzIDcxMi4xOCwtMTE1OC42MyA1MDUuNjQsLTExNTguNjMiIHN0cm9rZT0iIzJlY2M3MSIgZmlsbD0ibm9uZSIvPiYjeGE7PHRleHQgZm9udC1zaXplPSIxNC4wMCIgZm9udC13ZWlnaHQ9ImJvbGQiIGZvbnQtZmFtaWx5PSJBcmlhbCIgeT0iLTExNjkuODMiIHg9IjU4NS41NyIgdGV4dC1hbmNob3I9InN0YXJ0Ij7QntC00LXRgdGB0LA8L3RleHQ+JiN4YTs8cG9seWdvbiBwb2ludHM9IjUwNS42NCwtMTEyOS44MyA1MDUuNjQsLTExNTguNjMgNzEyLjE4LC0xMTU4LjYzIDcxMi4xOCwtMTEyOS44MyA1MDUuNjQsLTExMjkuODMiIHN0cm9rZT0iIzJlY2M3MSIgZmlsbD0ibm9uZSIvPiYjeGE7PHRleHQgZm9udC1zaXplPSIxNC4wMCIgZm9udC1mYW1pbHk9IkFyaWFsIiB5PSItMTE0MC4wMyIgeD0iNTUwLjU2IiB0ZXh0LWFuY2hvcj0ic3RhcnQiPtCd0LDRgdC10LvQtdC90LjQtTogMS4wMk08L3RleHQ+JiN4YTs8cG9seWdvbiBwb2ludHM9IjUwNS42NCwtMTEwMS4wMyA1MDUuNjQsLTExMjkuODMgNzEyLjE4LC0xMTI5LjgzIDcxMi4xOCwtMTEwMS4wMyA1MDUuNjQsLTExMDEuMDMiIHN0cm9rZT0iIzJlY2M3MSIgZmlsbD0ibm9uZSIvPiYjeGE7PHRleHQgZm9udC1zaXplPSIxNC4wMCIgZm9udC1mYW1pbHk9IkFyaWFsIiB5PSItMTExMS4yMyIgeD0iNTExLjY0IiB0ZXh0LWFuY2hvcj0ic3RhcnQiPtCa0L7QvtGA0LTQuNC90LDRgtGLOiA0Ni40OMKwTiAzMC43MsKwRTwvdGV4dD4mI3hhOzwvZz4mI3hhOyYjeGE7PGcgY2xhc3M9ImVkZ2UiIGlkPSJlZGdlNCI+JiN4YTs8dGl0bGU+TDQtJmd0O0MzPC90aXRsZT4mI3hhOzxwYXRoIGQ9Ik0zNzguNTMsLTExNDQuMjNDNDE2LjMzLC0xMTQ0LjIzIDQ1NS42NiwtMTE0NC4yMyA0OTAuODUsLTExNDQuMjMiIHN0cm9rZS1kYXNoYXJyYXk9IjUsMiIgc3Ryb2tlPSIjN2Y4YzhkIiBmaWxsPSJub25lIi8+JiN4YTs8L2c+JiN4YTsmI3hhOzxnIGNsYXNzPSJub2RlIiBpZD0ibm9kZTgiPiYjeGE7PHRpdGxlPkw1PC90aXRsZT4mI3hhOzxwb2x5Z29uIHBvaW50cz0iMzQ2LjE5LC0xNDEzLjIzIDI3Ny45MSwtMTUwNi4zMSAxNDEuMzMsLTE1MDYuMzEgNzMuMDUsLTE0MTMuMjMgMTQxLjMzLC0xMzIwLjE1IDI3Ny45MSwtMTMyMC4xNSAzNDYuMTksLTE0MTMuMjMiIHN0cm9rZT0iYmxhY2siIGZpbGw9ImxpZ2h0Z3JleSIvPiYjeGE7PHBvbHlnb24gcG9pbnRzPSIxNDAuMzksLTE0MjguNjMgMTQwLjM5LC0xNDU5LjQzIDI3OC44NSwtMTQ1OS40MyAyNzguODUsLTE0MjguNjMgMTQwLjM5LC0xNDI4LjYzIiBzdHJva2U9Im5vbmUiIGZpbGw9IiNmZGViZDAiLz4mI3hhOzxwb2x5Z29uIHBvaW50cz0iMTQwLjM5LC0xNDI4LjYzIDE0MC4zOSwtMTQ1OS40MyAyNzguODUsLTE0NTkuNDMgMjc4Ljg1LC0xNDI4LjYzIDE0MC4zOSwtMTQyOC42MyIgc3Ryb2tlPSJibGFjayIgZmlsbD0ibm9uZSIvPiYjeGE7PHRleHQgZm9udC1zaXplPSIxNC4wMCIgZm9udC13ZWlnaHQ9ImJvbGQiIGZvbnQtZmFtaWx5PSJBcmlhbCIgeT0iLTE0NDAuODMiIHg9IjE1My4yMiIgdGV4dC1hbmNob3I9InN0YXJ0Ij7Qn9C70L7RidCw0LTRjCDQodCy0L7QsdC+0LTRizwvdGV4dD4mI3hhOzxwb2x5Z29uIHBvaW50cz0iMTQwLjM5LC0xMzk3LjgzIDE0MC4zOSwtMTQyOC42MyAyNzguODUsLTE0MjguNjMgMjc4Ljg1LC0xMzk3LjgzIDE0MC4zOSwtMTM5Ny44MyIgc3Ryb2tlPSJibGFjayIgZmlsbD0ibm9uZSIvPiYjeGE7PHRleHQgZm9udC1zaXplPSIxNC4wMCIgZm9udC1mYW1pbHk9IkFyaWFsIiB5PSItMTQwOS4wMyIgeD0iMTc4LjQ5IiB0ZXh0LWFuY2hvcj0ic3RhcnQiPtCT0L7QtDogMTkyNTwvdGV4dD4mI3hhOzxwb2x5Z29uIHBvaW50cz0iMTQwLjM5LC0xMzY3LjAzIDE0MC4zOSwtMTM5Ny44MyAyNzguODUsLTEzOTcuODMgMjc4Ljg1LC0xMzY3LjAzIDE0MC4zOSwtMTM2Ny4wMyIgc3Ryb2tlPSJibGFjayIgZmlsbD0ibm9uZSIvPiYjeGE7PHRleHQgZm9udC1zaXplPSIxNC4wMCIgZm9udC1mYW1pbHk9IkFyaWFsIiB5PSItMTM3OC4yMyIgeD0iMTQ3LjM5IiB0ZXh0LWFuY2hvcj0ic3RhcnQiPtCi0LjQvzog0LjRgdGC0L7RgNC40YfQtdGB0LrQuNC5PC90ZXh0PiYjeGE7PC9nPiYjeGE7JiN4YTs8ZyBjbGFzcz0ibm9kZSIgaWQ9Im5vZGUxMSI+JiN4YTs8dGl0bGU+QzQ8L3RpdGxlPiYjeGE7PHBvbHlnb24gcG9pbnRzPSI3MjYuNTgsLTE0NjcuMjMgNDkxLjI0LC0xNDY3LjIzIDQ5MS4yNCwtMTM1OS4yMyA3MjYuNTgsLTEzNTkuMjMgNzI2LjU4LC0xNDY3LjIzIiBzdHJva2U9IiMyZWNjNzEiIGZpbGw9IiNkNWY1ZTMiLz4mI3hhOzxwb2x5Z29uIHBvaW50cz0iNTA1LjY0LC0xNDI3LjYzIDUwNS42NCwtMTQ1Ni40MyA3MTIuMTgsLTE0NTYuNDMgNzEyLjE4LC0xNDI3LjYzIDUwNS42NCwtMTQyNy42MyIgc3Ryb2tlPSIjMmVjYzcxIiBmaWxsPSJub25lIi8+JiN4YTs8dGV4dCBmb250LXNpemU9IjE0LjAwIiBmb250LXdlaWdodD0iYm9sZCIgZm9udC1mYW1pbHk9IkFyaWFsIiB5PSItMTQzOC44MyIgeD0iNTgxLjY4IiB0ZXh0LWFuY2hvcj0ic3RhcnQiPtCl0LDRgNGM0LrQvtCyPC90ZXh0PiYjeGE7PHBvbHlnb24gcG9pbnRzPSI1MDUuNjQsLTEzOTguODMgNTA1LjY0LC0xNDI3LjYzIDcxMi4xOCwtMTQyNy42MyA3MTIuMTgsLTEzOTguODMgNTA1LjY0LC0xMzk4LjgzIiBzdHJva2U9IiMyZWNjNzEiIGZpbGw9Im5vbmUiLz4mI3hhOzx0ZXh0IGZvbnQtc2l6ZT0iMTQuMDAiIGZvbnQtZmFtaWx5PSJBcmlhbCIgeT0iLTE0MDkuMDMiIHg9IjU1MC41NiIgdGV4dC1hbmNob3I9InN0YXJ0Ij7QndCw0YHQtdC70LXQvdC40LU6IDEuNDNNPC90ZXh0PiYjeGE7PHBvbHlnb24gcG9pbnRzPSI1MDUuNjQsLTEzNzAuMDMgNTA1LjY0LC0xMzk4LjgzIDcxMi4xOCwtMTM5OC44MyA3MTIuMTgsLTEzNzAuMDMgNTA1LjY0LC0xMzcwLjAzIiBzdHJva2U9IiMyZWNjNzEiIGZpbGw9Im5vbmUiLz4mI3hhOzx0ZXh0IGZvbnQtc2l6ZT0iMTQuMDAiIGZvbnQtZmFtaWx5PSJBcmlhbCIgeT0iLTEzODAuMjMiIHg9IjUxMS42NCIgdGV4dC1hbmNob3I9InN0YXJ0Ij7QmtC+0L7RgNC00LjQvdCw0YLRizogNDkuOTnCsE4gMzYuMjPCsEU8L3RleHQ+JiN4YTs8L2c+JiN4YTsmI3hhOzxnIGNsYXNzPSJlZGdlIiBpZD0iZWRnZTUiPiYjeGE7PHRpdGxlPkw1LSZndDtDNDwvdGl0bGU+JiN4YTs8cGF0aCBkPSJNMzQ2Ljc5LC0xNDEzLjIzQzM5My42MiwtMTQxMy4yMyA0NDUuNjEsLTE0MTMuMjMgNDkwLjgsLTE0MTMuMjMiIHN0cm9rZS1kYXNoYXJyYXk9IjUsMiIgc3Ryb2tlPSIjN2Y4YzhkIiBmaWxsPSJub25lIi8+JiN4YTs8L2c+JiN4YTsmI3hhOzxnIGNsYXNzPSJub2RlIiBpZD0ibm9kZTkiPiYjeGE7PHRpdGxlPkwxMDwvdGl0bGU+JiN4YTs8cG9seWdvbiBwb2ludHM9IjQxOS4yNCwtODc1LjIzIDMxNC40MywtOTY4LjMxIDEwNC44MSwtOTY4LjMxIDAsLTg3NS4yMyAxMDQuODEsLTc4Mi4xNSAzMTQuNDMsLTc4Mi4xNSA0MTkuMjQsLTg3NS4yMyIgc3Ryb2tlPSJibGFjayIgZmlsbD0ibGlnaHRncmV5Ii8+JiN4YTs8cG9seWdvbiBwb2ludHM9Ijk1LjY1LC04OTAuNjMgOTUuNjUsLTkyMS40MyAzMjMuNTksLTkyMS40MyAzMjMuNTksLTg5MC42MyA5NS42NSwtODkwLjYzIiBzdHJva2U9Im5vbmUiIGZpbGw9IiNmZGViZDAiLz4mI3hhOzxwb2x5Z29uIHBvaW50cz0iOTUuNjUsLTg5MC42MyA5NS42NSwtOTIxLjQzIDMyMy41OSwtOTIxLjQzIDMyMy41OSwtODkwLjYzIDk1LjY1LC04OTAuNjMiIHN0cm9rZT0iYmxhY2siIGZpbGw9Im5vbmUiLz4mI3hhOzx0ZXh0IGZvbnQtc2l6ZT0iMTQuMDAiIGZvbnQtd2VpZ2h0PSJib2xkIiBmb250LWZhbWlseT0iQXJpYWwiIHk9Ii05MDIuODMiIHg9IjE2MSIgdGV4dC1hbmNob3I9InN0YXJ0Ij7QotC+0L3QvdC10LvRjCDQu9GO0LHQstC4PC90ZXh0PiYjeGE7PHBvbHlnb24gcG9pbnRzPSI5NS42NSwtODU5LjgzIDk1LjY1LC04OTAuNjMgMzIzLjU5LC04OTAuNjMgMzIzLjU5LC04NTkuODMgOTUuNjUsLTg1OS44MyIgc3Ryb2tlPSJibGFjayIgZmlsbD0ibm9uZSIvPiYjeGE7PHRleHQgZm9udC1zaXplPSIxNC4wMCIgZm9udC1mYW1pbHk9IkFyaWFsIiB5PSItODcxLjAzIiB4PSIxNTkuMDUiIHRleHQtYW5jaG9yPSJzdGFydCI+0KLQuNC/OiDQv9GA0LjRgNC+0LTQvdGL0Lk8L3RleHQ+JiN4YTs8cG9seWdvbiBwb2ludHM9Ijk1LjY1LC04MjkuMDMgOTUuNjUsLTg1OS44MyAzMjMuNTksLTg1OS44MyAzMjMuNTksLTgyOS4wMyA5NS42NSwtODI5LjAzIiBzdHJva2U9ImJsYWNrIiBmaWxsPSJub25lIi8+JiN4YTs8dGV4dCBmb250LXNpemU9IjE0LjAwIiBmb250LWZhbWlseT0iQXJpYWwiIHk9Ii04NDAuMjMiIHg9IjEwMi42NSIgdGV4dC1hbmNob3I9InN0YXJ0Ij7QoNC+0LzQsNC90YLQuNGH0LXRgdC60L7QtSDQvNC10YHRgtC+INC/0L7QtCDQoNC+0LLQvdC+PC90ZXh0PiYjeGE7PC9nPiYjeGE7JiN4YTs8ZyBjbGFzcz0iZWRnZSIgaWQ9ImVkZ2UxMCI+JiN4YTs8dGl0bGU+TDEwLSZndDtDNzwvdGl0bGU+JiN4YTs8cGF0aCBkPSJNNDE5LjczLC04NzUuMjNDNDQ0LjEzLC04NzUuMjMgNDY4LjMxLC04NzUuMjMgNDkwLjgxLC04NzUuMjMiIHN0cm9rZS1kYXNoYXJyYXk9IjUsMiIgc3Ryb2tlPSIjN2Y4YzhkIiBmaWxsPSJub25lIi8+JiN4YTs8L2c+JiN4YTsmI3hhOzxnIGNsYXNzPSJub2RlIiBpZD0ibm9kZTEyIj4mI3hhOzx0aXRsZT5DNjwvdGl0bGU+JiN4YTs8cG9seWdvbiBwb2ludHM9IjcyNi41OCwtMTcxMS4yMyA0OTEuMjQsLTE3MTEuMjMgNDkxLjI0LC0xNjAzLjIzIDcyNi41OCwtMTYwMy4yMyA3MjYuNTgsLTE3MTEuMjMiIHN0cm9rZT0iIzJlY2M3MSIgZmlsbD0iI2Q1ZjVlMyIvPiYjeGE7PHBvbHlnb24gcG9pbnRzPSI1MDUuNjQsLTE2NzEuNjMgNTA1LjY0LC0xNzAwLjQzIDcxMi4xOCwtMTcwMC40MyA3MTIuMTgsLTE2NzEuNjMgNTA1LjY0LC0xNjcxLjYzIiBzdHJva2U9IiMyZWNjNzEiIGZpbGw9Im5vbmUiLz4mI3hhOzx0ZXh0IGZvbnQtc2l6ZT0iMTQuMDAiIGZvbnQtd2VpZ2h0PSJib2xkIiBmb250LWZhbWlseT0iQXJpYWwiIHk9Ii0xNjgyLjgzIiB4PSI1ODEuNjgiIHRleHQtYW5jaG9yPSJzdGFydCI+0KPQttCz0L7RgNC+0LQ8L3RleHQ+JiN4YTs8cG9seWdvbiBwb2ludHM9IjUwNS42NCwtMTY0Mi44MyA1MDUuNjQsLTE2NzEuNjMgNzEyLjE4LC0xNjcxLjYzIDcxMi4xOCwtMTY0Mi44MyA1MDUuNjQsLTE2NDIuODMiIHN0cm9rZT0iIzJlY2M3MSIgZmlsbD0ibm9uZSIvPiYjeGE7PHRleHQgZm9udC1zaXplPSIxNC4wMCIgZm9udC1mYW1pbHk9IkFyaWFsIiB5PSItMTY1My4wMyIgeD0iNTUzLjY2IiB0ZXh0LWFuY2hvcj0ic3RhcnQiPtCd0LDRgdC10LvQtdC90LjQtTogMTE1SzwvdGV4dD4mI3hhOzxwb2x5Z29uIHBvaW50cz0iNTA1LjY0LC0xNjE0LjAzIDUwNS42NCwtMTY0Mi44MyA3MTIuMTgsLTE2NDIuODMgNzEyLjE4LC0xNjE0LjAzIDUwNS42NCwtMTYxNC4wMyIgc3Ryb2tlPSIjMmVjYzcxIiBmaWxsPSJub25lIi8+JiN4YTs8dGV4dCBmb250LXNpemU9IjE0LjAwIiBmb250LWZhbWlseT0iQXJpYWwiIHk9Ii0xNjI0LjIzIiB4PSI1MTEuNjQiIHRleHQtYW5jaG9yPSJzdGFydCI+0JrQvtC+0YDQtNC40L3QsNGC0Ys6IDQ4LjYywrBOIDIyLjI5wrBFPC90ZXh0PiYjeGE7PC9nPiYjeGE7JiN4YTs8ZyBjbGFzcz0ibm9kZSIgaWQ9Im5vZGUxMyI+JiN4YTs8dGl0bGU+Qzg8L3RpdGxlPiYjeGE7PHBvbHlnb24gcG9pbnRzPSI3MjYuNTgsLTE5NTUuMjMgNDkxLjI0LC0xOTU1LjIzIDQ5MS4yNCwtMTg0Ny4yMyA3MjYuNTgsLTE4NDcuMjMgNzI2LjU4LC0xOTU1LjIzIiBzdHJva2U9IiMyZWNjNzEiIGZpbGw9IiNkNWY1ZTMiLz4mI3hhOzxwb2x5Z29uIHBvaW50cz0iNTA1LjY0LC0xOTE1LjYzIDUwNS42NCwtMTk0NC40MyA3MTIuMTgsLTE5NDQuNDMgNzEyLjE4LC0xOTE1LjYzIDUwNS42NCwtMTkxNS42MyIgc3Ryb2tlPSIjMmVjYzcxIiBmaWxsPSJub25lIi8+JiN4YTs8dGV4dCBmb250LXNpemU9IjE0LjAwIiBmb250LXdlaWdodD0iYm9sZCIgZm9udC1mYW1pbHk9IkFyaWFsIiB5PSItMTkyNi44MyIgeD0iNTczLjkiIHRleHQtYW5jaG9yPSJzdGFydCI+0KLQtdGA0L3QvtC/0L7Qu9GMPC90ZXh0PiYjeGE7PHBvbHlnb24gcG9pbnRzPSI1MDUuNjQsLTE4ODYuODMgNTA1LjY0LC0xOTE1LjYzIDcxMi4xOCwtMTkxNS42MyA3MTIuMTgsLTE4ODYuODMgNTA1LjY0LC0xODg2LjgzIiBzdHJva2U9IiMyZWNjNzEiIGZpbGw9Im5vbmUiLz4mI3hhOzx0ZXh0IGZvbnQtc2l6ZT0iMTQuMDAiIGZvbnQtZmFtaWx5PSJBcmlhbCIgeT0iLTE4OTcuMDMiIHg9IjU1My42NiIgdGV4dC1hbmNob3I9InN0YXJ0Ij7QndCw0YHQtdC70LXQvdC40LU6IDIyNUs8L3RleHQ+JiN4YTs8cG9seWdvbiBwb2ludHM9IjUwNS42NCwtMTg1OC4wMyA1MDUuNjQsLTE4ODYuODMgNzEyLjE4LC0xODg2LjgzIDcxMi4xOCwtMTg1OC4wMyA1MDUuNjQsLTE4NTguMDMiIHN0cm9rZT0iIzJlY2M3MSIgZmlsbD0ibm9uZSIvPiYjeGE7PHRleHQgZm9udC1zaXplPSIxNC4wMCIgZm9udC1mYW1pbHk9IkFyaWFsIiB5PSItMTg2OC4yMyIgeD0iNTExLjY0IiB0ZXh0LWFuY2hvcj0ic3RhcnQiPtCa0L7QvtGA0LTQuNC90LDRgtGLOiA0OS41NcKwTiAyNS41OcKwRTwvdGV4dD4mI3hhOzwvZz4mI3hhOyYjeGE7PGcgY2xhc3M9Im5vZGUiIGlkPSJub2RlMTQiPiYjeGE7PHRpdGxlPkw2PC90aXRsZT4mI3hhOzxwb2x5Z29uIHBvaW50cz0iMzQ5LjM3LC0xNjU3LjIzIDI3OS40OSwtMTc1MC4zMSAxMzkuNzQsLTE3NTAuMzEgNjkuODcsLTE2NTcuMjMgMTM5Ljc0LC0xNTY0LjE1IDI3OS40OSwtMTU2NC4xNSAzNDkuMzcsLTE2NTcuMjMiIHN0cm9rZT0iYmxhY2siIGZpbGw9ImxpZ2h0Z3JleSIvPiYjeGE7PHBvbHlnb24gcG9pbnRzPSIxMzguNDQsLTE2NzIuNjMgMTM4LjQ0LC0xNzAzLjQzIDI4MC44LC0xNzAzLjQzIDI4MC44LC0xNjcyLjYzIDEzOC40NCwtMTY3Mi42MyIgc3Ryb2tlPSJub25lIiBmaWxsPSIjZmRlYmQwIi8+JiN4YTs8cG9seWdvbiBwb2ludHM9IjEzOC40NCwtMTY3Mi42MyAxMzguNDQsLTE3MDMuNDMgMjgwLjgsLTE3MDMuNDMgMjgwLjgsLTE2NzIuNjMgMTM4LjQ0LC0xNjcyLjYzIiBzdHJva2U9ImJsYWNrIiBmaWxsPSJub25lIi8+JiN4YTs8dGV4dCBmb250LXNpemU9IjE0LjAwIiBmb250LXdlaWdodD0iYm9sZCIgZm9udC1mYW1pbHk9IkFyaWFsIiB5PSItMTY4NC44MyIgeD0iMTQ1LjQ0IiB0ZXh0LWFuY2hvcj0ic3RhcnQiPtCj0LbQs9C+0YDQvtC00YHQutC40Lkg0LfQsNC80L7QujwvdGV4dD4mI3hhOzxwb2x5Z29uIHBvaW50cz0iMTM4LjQ0LC0xNjQxLjgzIDEzOC40NCwtMTY3Mi42MyAyODAuOCwtMTY3Mi42MyAyODAuOCwtMTY0MS44MyAxMzguNDQsLTE2NDEuODMiIHN0cm9rZT0iYmxhY2siIGZpbGw9Im5vbmUiLz4mI3hhOzx0ZXh0IGZvbnQtc2l6ZT0iMTQuMDAiIGZvbnQtZmFtaWx5PSJBcmlhbCIgeT0iLTE2NTMuMDMiIHg9IjE3OC40OSIgdGV4dC1hbmNob3I9InN0YXJ0Ij7Qk9C+0LQ6IDEzMjA8L3RleHQ+JiN4YTs8cG9seWdvbiBwb2ludHM9IjEzOC40NCwtMTYxMS4wMyAxMzguNDQsLTE2NDEuODMgMjgwLjgsLTE2NDEuODMgMjgwLjgsLTE2MTEuMDMgMTM4LjQ0LC0xNjExLjAzIiBzdHJva2U9ImJsYWNrIiBmaWxsPSJub25lIi8+JiN4YTs8dGV4dCBmb250LXNpemU9IjE0LjAwIiBmb250LWZhbWlseT0iQXJpYWwiIHk9Ii0xNjIyLjIzIiB4PSIxNDcuMzkiIHRleHQtYW5jaG9yPSJzdGFydCI+0KLQuNC/OiDQuNGB0YLQvtGA0LjRh9C10YHQutC40Lk8L3RleHQ+JiN4YTs8L2c+JiN4YTsmI3hhOzxnIGNsYXNzPSJlZGdlIiBpZD0iZWRnZTYiPiYjeGE7PHRpdGxlPkw2LSZndDtDNjwvdGl0bGU+JiN4YTs8cGF0aCBkPSJNMzQ5Ljg1LC0xNjU3LjIzQzM5NS45MywtMTY1Ny4yMyA0NDYuNywtMTY1Ny4yMyA0OTAuOTMsLTE2NTcuMjMiIHN0cm9rZS1kYXNoYXJyYXk9IjUsMiIgc3Ryb2tlPSIjN2Y4YzhkIiBmaWxsPSJub25lIi8+JiN4YTs8L2c+JiN4YTsmI3hhOzxnIGNsYXNzPSJub2RlIiBpZD0ibm9kZTE1Ij4mI3hhOzx0aXRsZT5MNzwvdGl0bGU+JiN4YTs8cG9seWdvbiBwb2ludHM9IjM2Mi4wNywtMjM4OS4yMyAyODUuODUsLTI0ODIuMzEgMTMzLjM5LC0yNDgyLjMxIDU3LjE3LC0yMzg5LjIzIDEzMy4zOSwtMjI5Ni4xNSAyODUuODUsLTIyOTYuMTUgMzYyLjA3LC0yMzg5LjIzIiBzdHJva2U9ImJsYWNrIiBmaWxsPSJsaWdodGdyZXkiLz4mI3hhOzxwb2x5Z29uIHBvaW50cz0iMTMwLjY2LC0yNDA0LjYzIDEzMC42NiwtMjQzNS40MyAyODguNTgsLTI0MzUuNDMgMjg4LjU4LC0yNDA0LjYzIDEzMC42NiwtMjQwNC42MyIgc3Ryb2tlPSJub25lIiBmaWxsPSIjZmRlYmQwIi8+JiN4YTs8cG9seWdvbiBwb2ludHM9IjEzMC42NiwtMjQwNC42MyAxMzAuNjYsLTI0MzUuNDMgMjg4LjU4LC0yNDM1LjQzIDI4OC41OCwtMjQwNC42MyAxMzAuNjYsLTI0MDQuNjMiIHN0cm9rZT0iYmxhY2siIGZpbGw9Im5vbmUiLz4mI3hhOzx0ZXh0IGZvbnQtc2l6ZT0iMTQuMDAiIGZvbnQtd2VpZ2h0PSJib2xkIiBmb250LWZhbWlseT0iQXJpYWwiIHk9Ii0yNDE2LjgzIiB4PSIxMzcuNjYiIHRleHQtYW5jaG9yPSJzdGFydCI+0KXQtdGA0YHQvtC90YHQutCw0Y8g0LrRgNC10L/QvtGB0YLRjDwvdGV4dD4mI3hhOzxwb2x5Z29uIHBvaW50cz0iMTMwLjY2LC0yMzczLjgzIDEzMC42NiwtMjQwNC42MyAyODguNTgsLTI0MDQuNjMgMjg4LjU4LC0yMzczLjgzIDEzMC42NiwtMjM3My44MyIgc3Ryb2tlPSJibGFjayIgZmlsbD0ibm9uZSIvPiYjeGE7PHRleHQgZm9udC1zaXplPSIxNC4wMCIgZm9udC1mYW1pbHk9IkFyaWFsIiB5PSItMjM4NS4wMyIgeD0iMTc4LjQ5IiB0ZXh0LWFuY2hvcj0ic3RhcnQiPtCT0L7QtDogMTc3ODwvdGV4dD4mI3hhOzxwb2x5Z29uIHBvaW50cz0iMTMwLjY2LC0yMzQzLjAzIDEzMC42NiwtMjM3My44MyAyODguNTgsLTIzNzMuODMgMjg4LjU4LC0yMzQzLjAzIDEzMC42NiwtMjM0My4wMyIgc3Ryb2tlPSJibGFjayIgZmlsbD0ibm9uZSIvPiYjeGE7PHRleHQgZm9udC1zaXplPSIxNC4wMCIgZm9udC1mYW1pbHk9IkFyaWFsIiB5PSItMjM1NC4yMyIgeD0iMTQ3LjM5IiB0ZXh0LWFuY2hvcj0ic3RhcnQiPtCi0LjQvzog0LjRgdGC0L7RgNC40YfQtdGB0LrQuNC5PC90ZXh0PiYjeGE7PC9nPiYjeGE7JiN4YTs8ZyBjbGFzcz0ibm9kZSIgaWQ9Im5vZGUyMCI+JiN4YTs8dGl0bGU+Qzk8L3RpdGxlPiYjeGE7PHBvbHlnb24gcG9pbnRzPSI3MjYuNTgsLTIzMjEuMjMgNDkxLjI0LC0yMzIxLjIzIDQ5MS4yNCwtMjIxMy4yMyA3MjYuNTgsLTIyMTMuMjMgNzI2LjU4LC0yMzIxLjIzIiBzdHJva2U9IiMyZWNjNzEiIGZpbGw9IiNkNWY1ZTMiLz4mI3hhOzxwb2x5Z29uIHBvaW50cz0iNTA1LjY0LC0yMjgxLjYzIDUwNS42NCwtMjMxMC40MyA3MTIuMTgsLTIzMTAuNDMgNzEyLjE4LC0yMjgxLjYzIDUwNS42NCwtMjI4MS42MyIgc3Ryb2tlPSIjMmVjYzcxIiBmaWxsPSJub25lIi8+JiN4YTs8dGV4dCBmb250LXNpemU9IjE0LjAwIiBmb250LXdlaWdodD0iYm9sZCIgZm9udC1mYW1pbHk9IkFyaWFsIiB5PSItMjI5Mi44MyIgeD0iNTg1LjU3IiB0ZXh0LWFuY2hvcj0ic3RhcnQiPtCl0LXRgNGB0L7QvTwvdGV4dD4mI3hhOzxwb2x5Z29uIHBvaW50cz0iNTA1LjY0LC0yMjUyLjgzIDUwNS42NCwtMjI4MS42MyA3MTIuMTgsLTIyODEuNjMgNzEyLjE4LC0yMjUyLjgzIDUwNS42NCwtMjI1Mi44MyIgc3Ryb2tlPSIjMmVjYzcxIiBmaWxsPSJub25lIi8+JiN4YTs8dGV4dCBmb250LXNpemU9IjE0LjAwIiBmb250LWZhbWlseT0iQXJpYWwiIHk9Ii0yMjYzLjAzIiB4PSI1NTMuNjYiIHRleHQtYW5jaG9yPSJzdGFydCI+0J3QsNGB0LXQu9C10L3QuNC1OiAyODlLPC90ZXh0PiYjeGE7PHBvbHlnb24gcG9pbnRzPSI1MDUuNjQsLTIyMjQuMDMgNTA1LjY0LC0yMjUyLjgzIDcxMi4xOCwtMjI1Mi44MyA3MTIuMTgsLTIyMjQuMDMgNTA1LjY0LC0yMjI0LjAzIiBzdHJva2U9IiMyZWNjNzEiIGZpbGw9Im5vbmUiLz4mI3hhOzx0ZXh0IGZvbnQtc2l6ZT0iMTQuMDAiIGZvbnQtZmFtaWx5PSJBcmlhbCIgeT0iLTIyMzQuMjMiIHg9IjUxMS42NCIgdGV4dC1hbmNob3I9InN0YXJ0Ij7QmtC+0L7RgNC00LjQvdCw0YLRizogNDYuNjTCsE4gMzIuNjLCsEU8L3RleHQ+JiN4YTs8L2c+JiN4YTsmI3hhOzxnIGNsYXNzPSJlZGdlIiBpZD0iZWRnZTciPiYjeGE7PHRpdGxlPkw3LSZndDtDOTwvdGl0bGU+JiN4YTs8cGF0aCBkPSJNMzMxLjk4LC0yMzUxLjk2QzM4Mi41MiwtMjMzNi40NCA0NDAuOTgsLTIzMTguNDkgNDkxLjA0LC0yMzAzLjEyIiBzdHJva2UtZGFzaGFycmF5PSI1LDIiIHN0cm9rZT0iIzdmOGM4ZCIgZmlsbD0ibm9uZSIvPiYjeGE7PC9nPiYjeGE7JiN4YTs8ZyBjbGFzcz0ibm9kZSIgaWQ9Im5vZGUxNiI+JiN4YTs8dGl0bGU+TDg8L3RpdGxlPiYjeGE7PHBvbHlnb24gcG9pbnRzPSIzNDMuMDIsLTI2NTguMjMgMjc2LjMyLC0yNzc2LjQ2IDE0Mi45MiwtMjc3Ni40NiA3Ni4yMiwtMjY1OC4yMyAxNDIuOTIsLTI1NDAgMjc2LjMyLC0yNTQwIDM0My4wMiwtMjY1OC4yMyIgc3Ryb2tlPSJibGFjayIgZmlsbD0ibGlnaHRncmV5Ii8+JiN4YTs8cG9seWdvbiBwb2ludHM9IjE0Mi4zMywtMjY4OS4wMyAxNDIuMzMsLTI3MTkuODMgMjc2LjkxLC0yNzE5LjgzIDI3Ni45MSwtMjY4OS4wMyAxNDIuMzMsLTI2ODkuMDMiIHN0cm9rZT0ibm9uZSIgZmlsbD0iI2Y5ZTc5ZiIvPiYjeGE7PHBvbHlnb24gcG9pbnRzPSIxNDIuMzMsLTI2ODkuMDMgMTQyLjMzLC0yNzE5LjgzIDI3Ni45MSwtMjcxOS44MyAyNzYuOTEsLTI2ODkuMDMgMTQyLjMzLC0yNjg5LjAzIiBzdHJva2U9ImJsYWNrIiBmaWxsPSJub25lIi8+JiN4YTs8dGV4dCBmb250LXNpemU9IjE0LjAwIiBmb250LXdlaWdodD0iYm9sZCIgZm9udC1mYW1pbHk9IkFyaWFsIiB5PSItMjcwMS4yMyIgeD0iMTQ5LjMzIiB0ZXh0LWFuY2hvcj0ic3RhcnQiPtCh0L7RhNC40LXQstGB0LrQuNC5INGB0L7QsdC+0YA8L3RleHQ+JiN4YTs8cG9seWdvbiBwb2ludHM9IjE0Mi4zMywtMjY1OC4yMyAxNDIuMzMsLTI2ODkuMDMgMjc2LjkxLC0yNjg5LjAzIDI3Ni45MSwtMjY1OC4yMyAxNDIuMzMsLTI2NTguMjMiIHN0cm9rZT0iYmxhY2siIGZpbGw9Im5vbmUiLz4mI3hhOzx0ZXh0IGZvbnQtc2l6ZT0iMTQuMDAiIGZvbnQtZmFtaWx5PSJBcmlhbCIgeT0iLTI2NjkuNDMiIHg9IjE3OC40OSIgdGV4dC1hbmNob3I9InN0YXJ0Ij7Qk9C+0LQ6IDEwMzc8L3RleHQ+JiN4YTs8cG9seWdvbiBwb2ludHM9IjE0Mi4zMywtMjYyNy40MyAxNDIuMzMsLTI2NTguMjMgMjc2LjkxLC0yNjU4LjIzIDI3Ni45MSwtMjYyNy40MyAxNDIuMzMsLTI2MjcuNDMiIHN0cm9rZT0iYmxhY2siIGZpbGw9Im5vbmUiLz4mI3hhOzx0ZXh0IGZvbnQtc2l6ZT0iMTQuMDAiIGZvbnQtZmFtaWx5PSJBcmlhbCIgeT0iLTI2MzguNjMiIHg9IjE1MS4yNyIgdGV4dC1hbmNob3I9InN0YXJ0Ij7QotC40L86INGA0LXQu9C40LPQuNC+0LfQvdGL0Lk8L3RleHQ+JiN4YTs8cG9seWdvbiBwb2ludHM9IjE0Mi4zMywtMjU5Ni42MyAxNDIuMzMsLTI2MjcuNDMgMjc2LjkxLC0yNjI3LjQzIDI3Ni45MSwtMjU5Ni42MyAxNDIuMzMsLTI1OTYuNjMiIHN0cm9rZT0ibm9uZSIgZmlsbD0iI2Y5ZTc5ZiIvPiYjeGE7PHBvbHlnb24gcG9pbnRzPSIxNDIuMzMsLTI1OTYuNjMgMTQyLjMzLC0yNjI3LjQzIDI3Ni45MSwtMjYyNy40MyAyNzYuOTEsLTI1OTYuNjMgMTQyLjMzLC0yNTk2LjYzIiBzdHJva2U9ImJsYWNrIiBmaWxsPSJub25lIi8+JiN4YTs8dGV4dCBmb250LXNpemU9IjE0LjAwIiBmb250LWZhbWlseT0iQXJpYWwiIHk9Ii0yNjA3LjgzIiB4PSIxNjEiIHRleHQtYW5jaG9yPSJzdGFydCI+0J7QsdGK0LXQutGCINCu0J3QldCh0JrQnjwvdGV4dD4mI3hhOzwvZz4mI3hhOyYjeGE7PGcgY2xhc3M9Im5vZGUiIGlkPSJub2RlMjEiPiYjeGE7PHRpdGxlPkMxMDwvdGl0bGU+JiN4YTs8cG9seWdvbiBwb2ludHM9IjcyNi41OCwtMjcxMi4yMyA0OTEuMjQsLTI3MTIuMjMgNDkxLjI0LC0yNjA0LjIzIDcyNi41OCwtMjYwNC4yMyA3MjYuNTgsLTI3MTIuMjMiIHN0cm9rZT0iIzJlY2M3MSIgZmlsbD0iI2Q1ZjVlMyIvPiYjeGE7PHBvbHlnb24gcG9pbnRzPSI1MDUuNjQsLTI2NzIuNjMgNTA1LjY0LC0yNzAxLjQzIDcxMi4xOCwtMjcwMS40MyA3MTIuMTgsLTI2NzIuNjMgNTA1LjY0LC0yNjcyLjYzIiBzdHJva2U9IiMyZWNjNzEiIGZpbGw9Im5vbmUiLz4mI3hhOzx0ZXh0IGZvbnQtc2l6ZT0iMTQuMDAiIGZvbnQtd2VpZ2h0PSJib2xkIiBmb250LWZhbWlseT0iQXJpYWwiIHk9Ii0yNjgzLjgzIiB4PSI1NzcuNzkiIHRleHQtYW5jaG9yPSJzdGFydCI+0KfQtdGA0L3QuNCz0L7QsjwvdGV4dD4mI3hhOzxwb2x5Z29uIHBvaW50cz0iNTA1LjY0LC0yNjQzLjgzIDUwNS42NCwtMjY3Mi42MyA3MTIuMTgsLTI2NzIuNjMgNzEyLjE4LC0yNjQzLjgzIDUwNS42NCwtMjY0My44MyIgc3Ryb2tlPSIjMmVjYzcxIiBmaWxsPSJub25lIi8+JiN4YTs8dGV4dCBmb250LXNpemU9IjE0LjAwIiBmb250LWZhbWlseT0iQXJpYWwiIHk9Ii0yNjU0LjAzIiB4PSI1NTMuNjYiIHRleHQtYW5jaG9yPSJzdGFydCI+0J3QsNGB0LXQu9C10L3QuNC1OiAyODZLPC90ZXh0PiYjeGE7PHBvbHlnb24gcG9pbnRzPSI1MDUuNjQsLTI2MTUuMDMgNTA1LjY0LC0yNjQzLjgzIDcxMi4xOCwtMjY0My44MyA3MTIuMTgsLTI2MTUuMDMgNTA1LjY0LC0yNjE1LjAzIiBzdHJva2U9IiMyZWNjNzEiIGZpbGw9Im5vbmUiLz4mI3hhOzx0ZXh0IGZvbnQtc2l6ZT0iMTQuMDAiIGZvbnQtZmFtaWx5PSJBcmlhbCIgeT0iLTI2MjUuMjMiIHg9IjUxMS42NCIgdGV4dC1hbmNob3I9InN0YXJ0Ij7QmtC+0L7RgNC00LjQvdCw0YLRizogNTEuNTDCsE4gMzEuMjnCsEU8L3RleHQ+JiN4YTs8L2c+JiN4YTsmI3hhOzxnIGNsYXNzPSJlZGdlIiBpZD0iZWRnZTgiPiYjeGE7PHRpdGxlPkw4LSZndDtDMTA8L3RpdGxlPiYjeGE7PHBhdGggZD0iTTM0My40NiwtMjY1OC4yM0MzOTEuMTcsLTI2NTguMjMgNDQ0LjU5LC0yNjU4LjIzIDQ5MC44NiwtMjY1OC4yMyIgc3Ryb2tlLWRhc2hhcnJheT0iNSwyIiBzdHJva2U9IiM3ZjhjOGQiIGZpbGw9Im5vbmUiLz4mI3hhOzwvZz4mI3hhOyYjeGE7PGcgY2xhc3M9Im5vZGUiIGlkPSJub2RlMTciPiYjeGE7PHRpdGxlPkw5PC90aXRsZT4mI3hhOzxwb2x5Z29uIHBvaW50cz0iMzUyLjU1LC0zMDkzLjIzIDI4MS4wOCwtMzE4Ni4zMSAxMzguMTYsLTMxODYuMzEgNjYuNjksLTMwOTMuMjMgMTM4LjE2LC0zMDAwLjE1IDI4MS4wOCwtMzAwMC4xNSAzNTIuNTUsLTMwOTMuMjMiIHN0cm9rZT0iYmxhY2siIGZpbGw9ImxpZ2h0Z3JleSIvPiYjeGE7PHBvbHlnb24gcG9pbnRzPSIxMzYuNSwtMzEwOC42MyAxMzYuNSwtMzEzOS40MyAyODIuNzQsLTMxMzkuNDMgMjgyLjc0LC0zMTA4LjYzIDEzNi41LC0zMTA4LjYzIiBzdHJva2U9Im5vbmUiIGZpbGw9IiNmZGViZDAiLz4mI3hhOzxwb2x5Z29uIHBvaW50cz0iMTM2LjUsLTMxMDguNjMgMTM2LjUsLTMxMzkuNDMgMjgyLjc0LC0zMTM5LjQzIDI4Mi43NCwtMzEwOC42MyAxMzYuNSwtMzEwOC42MyIgc3Ryb2tlPSJibGFjayIgZmlsbD0ibm9uZSIvPiYjeGE7PHRleHQgZm9udC1zaXplPSIxNC4wMCIgZm9udC13ZWlnaHQ9ImJvbGQiIGZvbnQtZmFtaWx5PSJBcmlhbCIgeT0iLTMxMjAuODMiIHg9IjE2NC44OSIgdGV4dC1hbmNob3I9InN0YXJ0Ij7QmtGA0YPQs9C70YvQuSDQtNCy0L7RgDwvdGV4dD4mI3hhOzxwb2x5Z29uIHBvaW50cz0iMTM2LjUsLTMwNzcuODMgMTM2LjUsLTMxMDguNjMgMjgyLjc0LC0zMTA4LjYzIDI4Mi43NCwtMzA3Ny44MyAxMzYuNSwtMzA3Ny44MyIgc3Ryb2tlPSJibGFjayIgZmlsbD0ibm9uZSIvPiYjeGE7PHRleHQgZm9udC1zaXplPSIxNC4wMCIgZm9udC1mYW1pbHk9IkFyaWFsIiB5PSItMzA4OS4wMyIgeD0iMTc4LjQ5IiB0ZXh0LWFuY2hvcj0ic3RhcnQiPtCT0L7QtDogMTgwMDwvdGV4dD4mI3hhOzxwb2x5Z29uIHBvaW50cz0iMTM2LjUsLTMwNDcuMDMgMTM2LjUsLTMwNzcuODMgMjgyLjc0LC0zMDc3LjgzIDI4Mi43NCwtMzA0Ny4wMyAxMzYuNSwtMzA0Ny4wMyIgc3Ryb2tlPSJibGFjayIgZmlsbD0ibm9uZSIvPiYjeGE7PHRleHQgZm9udC1zaXplPSIxNC4wMCIgZm9udC1mYW1pbHk9IkFyaWFsIiB5PSItMzA1OC4yMyIgeD0iMTQzLjUiIHRleHQtYW5jaG9yPSJzdGFydCI+0KLQuNC/OiDQsNGA0YXQuNGC0LXQutGC0YPRgNC90YvQuTwvdGV4dD4mI3hhOzwvZz4mI3hhOyYjeGE7PGcgY2xhc3M9Im5vZGUiIGlkPSJub2RlMjIiPiYjeGE7PHRpdGxlPkMxMTwvdGl0bGU+JiN4YTs8cG9seWdvbiBwb2ludHM9IjMyNy4yOSwtMjk0Mi4yMyA5MS45NSwtMjk0Mi4yMyA5MS45NSwtMjgzNC4yMyAzMjcuMjksLTI4MzQuMjMgMzI3LjI5LC0yOTQyLjIzIiBzdHJva2U9IiMyZWNjNzEiIGZpbGw9IiNkNWY1ZTMiLz4mI3hhOzxwb2x5Z29uIHBvaW50cz0iMTA2LjM1LC0yOTAyLjYzIDEwNi4zNSwtMjkzMS40MyAzMTIuODksLTI5MzEuNDMgMzEyLjg5LC0yOTAyLjYzIDEwNi4zNSwtMjkwMi42MyIgc3Ryb2tlPSIjMmVjYzcxIiBmaWxsPSJub25lIi8+JiN4YTs8dGV4dCBmb250LXNpemU9IjE0LjAwIiBmb250LXdlaWdodD0iYm9sZCIgZm9udC1mYW1pbHk9IkFyaWFsIiB5PSItMjkxMy44MyIgeD0iMTgyLjM5IiB0ZXh0LWFuY2hvcj0ic3RhcnQiPtCf0L7Qu9GC0LDQstCwPC90ZXh0PiYjeGE7PHBvbHlnb24gcG9pbnRzPSIxMDYuMzUsLTI4NzMuODMgMTA2LjM1LC0yOTAyLjYzIDMxMi44OSwtMjkwMi42MyAzMTIuODksLTI4NzMuODMgMTA2LjM1LC0yODczLjgzIiBzdHJva2U9IiMyZWNjNzEiIGZpbGw9Im5vbmUiLz4mI3hhOzx0ZXh0IGZvbnQtc2l6ZT0iMTQuMDAiIGZvbnQtZmFtaWx5PSJBcmlhbCIgeT0iLTI4ODQuMDMiIHg9IjE1NC4zOCIgdGV4dC1hbmNob3I9InN0YXJ0Ij7QndCw0YHQtdC70LXQvdC40LU6IDI4NEs8L3RleHQ+JiN4YTs8cG9seWdvbiBwb2ludHM9IjEwNi4zNSwtMjg0NS4wMyAxMDYuMzUsLTI4NzMuODMgMzEyLjg5LC0yODczLjgzIDMxMi44OSwtMjg0NS4wMyAxMDYuMzUsLTI4NDUuMDMiIHN0cm9rZT0iIzJlY2M3MSIgZmlsbD0ibm9uZSIvPiYjeGE7PHRleHQgZm9udC1zaXplPSIxNC4wMCIgZm9udC1mYW1pbHk9IkFyaWFsIiB5PSItMjg1NS4yMyIgeD0iMTEyLjM1IiB0ZXh0LWFuY2hvcj0ic3RhcnQiPtCa0L7QvtGA0LTQuNC90LDRgtGLOiA0OS41OcKwTiAzNC41NcKwRTwvdGV4dD4mI3hhOzwvZz4mI3hhOyYjeGE7PGcgY2xhc3M9ImVkZ2UiIGlkPSJlZGdlOSI+JiN4YTs8dGl0bGU+TDktJmd0O0MxMTwvdGl0bGU+JiN4YTs8cGF0aCBkPSJNMjA5LjYyLC0yOTk5LjcyQzIwOS42MiwtMjk4MC43MSAyMDkuNjIsLTI5NjEuNyAyMDkuNjIsLTI5NDIuNjgiIHN0cm9rZS1kYXNoYXJyYXk9IjUsMiIgc3Ryb2tlPSIjN2Y4YzhkIiBmaWxsPSJub25lIi8+JiN4YTs8L2c+JiN4YTsmI3hhOzxnIGNsYXNzPSJub2RlIiBpZD0ibm9kZTE4Ij4mI3hhOzx0aXRsZT5MMTE8L3RpdGxlPiYjeGE7PHBvbHlnb24gcG9pbnRzPSIzMjcuMTQsLTIxNDUuMjMgMjY4LjM4LC0yMjM4LjMxIDE1MC44NiwtMjIzOC4zMSA5Mi4xLC0yMTQ1LjIzIDE1MC44NiwtMjA1Mi4xNSAyNjguMzgsLTIwNTIuMTUgMzI3LjE0LC0yMTQ1LjIzIiBzdHJva2U9ImJsYWNrIiBmaWxsPSJsaWdodGdyZXkiLz4mI3hhOzxwb2x5Z29uIHBvaW50cz0iMTUyLjA1LC0yMTYwLjYzIDE1Mi4wNSwtMjE5MS40MyAyNjcuMTksLTIxOTEuNDMgMjY3LjE5LC0yMTYwLjYzIDE1Mi4wNSwtMjE2MC42MyIgc3Ryb2tlPSJub25lIiBmaWxsPSIjZmRlYmQwIi8+JiN4YTs8cG9seWdvbiBwb2ludHM9IjE1Mi4wNSwtMjE2MC42MyAxNTIuMDUsLTIxOTEuNDMgMjY3LjE5LC0yMTkxLjQzIDI2Ny4xOSwtMjE2MC42MyAxNTIuMDUsLTIxNjAuNjMiIHN0cm9rZT0iYmxhY2siIGZpbGw9Im5vbmUiLz4mI3hhOzx0ZXh0IGZvbnQtc2l6ZT0iMTQuMDAiIGZvbnQtd2VpZ2h0PSJib2xkIiBmb250LWZhbWlseT0iQXJpYWwiIHk9Ii0yMTcyLjgzIiB4PSIxNjQuNSIgdGV4dC1hbmNob3I9InN0YXJ0Ij7QkNGB0LrQsNC90LjRjy3QndC+0LLQsDwvdGV4dD4mI3hhOzxwb2x5Z29uIHBvaW50cz0iMTUyLjA1LC0yMTI5LjgzIDE1Mi4wNSwtMjE2MC42MyAyNjcuMTksLTIxNjAuNjMgMjY3LjE5LC0yMTI5LjgzIDE1Mi4wNSwtMjEyOS44MyIgc3Ryb2tlPSJibGFjayIgZmlsbD0ibm9uZSIvPiYjeGE7PHRleHQgZm9udC1zaXplPSIxNC4wMCIgZm9udC1mYW1pbHk9IkFyaWFsIiB5PSItMjE0MS4wMyIgeD0iMTc4LjQ5IiB0ZXh0LWFuY2hvcj0ic3RhcnQiPtCT0L7QtDogMTgyODwvdGV4dD4mI3hhOzxwb2x5Z29uIHBvaW50cz0iMTUyLjA1LC0yMDk5LjAzIDE1Mi4wNSwtMjEyOS44MyAyNjcuMTksLTIxMjkuODMgMjY3LjE5LC0yMDk5LjAzIDE1Mi4wNSwtMjA5OS4wMyIgc3Ryb2tlPSJibGFjayIgZmlsbD0ibm9uZSIvPiYjeGE7PHRleHQgZm9udC1zaXplPSIxNC4wMCIgZm9udC1mYW1pbHk9IkFyaWFsIiB5PSItMjExMC4yMyIgeD0iMTU5LjA1IiB0ZXh0LWFuY2hvcj0ic3RhcnQiPtCi0LjQvzog0L/RgNC40YDQvtC00L3Ri9C5PC90ZXh0PiYjeGE7PC9nPiYjeGE7JiN4YTs8ZyBjbGFzcz0iZWRnZSIgaWQ9ImVkZ2UxMSI+JiN4YTs8dGl0bGU+TDExLSZndDtDOTwvdGl0bGU+JiN4YTs8cGF0aCBkPSJNMzA4LjU3LC0yMTc1LjMxQzM2My43MiwtMjE5Mi4yNCA0MzIuOTMsLTIyMTMuNSA0OTAuOTIsLTIyMzEuMyIgc3Ryb2tlLWRhc2hhcnJheT0iNSwyIiBzdHJva2U9IiM3ZjhjOGQiIGZpbGw9Im5vbmUiLz4mI3hhOzwvZz4mI3hhOyYjeGE7PGcgY2xhc3M9Im5vZGUiIGlkPSJub2RlMTkiPiYjeGE7PHRpdGxlPkwxMjwvdGl0bGU+JiN4YTs8cG9seWdvbiBwb2ludHM9IjM1OC45LC0xOTAxLjIzIDI4NC4yNiwtMTk5NC4zMSAxMzQuOTgsLTE5OTQuMzEgNjAuMzQsLTE5MDEuMjMgMTM0Ljk4LC0xODA4LjE1IDI4NC4yNiwtMTgwOC4xNSAzNTguOSwtMTkwMS4yMyIgc3Ryb2tlPSJibGFjayIgZmlsbD0ibGlnaHRncmV5Ii8+JiN4YTs8cG9seWdvbiBwb2ludHM9IjEzMi42MSwtMTkxNi42MyAxMzIuNjEsLTE5NDcuNDMgMjg2LjYzLC0xOTQ3LjQzIDI4Ni42MywtMTkxNi42MyAxMzIuNjEsLTE5MTYuNjMiIHN0cm9rZT0ibm9uZSIgZmlsbD0iI2ZkZWJkMCIvPiYjeGE7PHBvbHlnb24gcG9pbnRzPSIxMzIuNjEsLTE5MTYuNjMgMTMyLjYxLC0xOTQ3LjQzIDI4Ni42MywtMTk0Ny40MyAyODYuNjMsLTE5MTYuNjMgMTMyLjYxLC0xOTE2LjYzIiBzdHJva2U9ImJsYWNrIiBmaWxsPSJub25lIi8+JiN4YTs8dGV4dCBmb250LXNpemU9IjE0LjAwIiBmb250LXdlaWdodD0iYm9sZCIgZm9udC1mYW1pbHk9IkFyaWFsIiB5PSItMTkyOC44MyIgeD0iMTM5LjYxIiB0ZXh0LWFuY2hvcj0ic3RhcnQiPtCc0L7QvdCw0YHRgtGL0YDRjCDQsiDQn9C+0YfQsNC10LLQtTwvdGV4dD4mI3hhOzxwb2x5Z29uIHBvaW50cz0iMTMyLjYxLC0xODg1LjgzIDEzMi42MSwtMTkxNi42MyAyODYuNjMsLTE5MTYuNjMgMjg2LjYzLC0xODg1LjgzIDEzMi42MSwtMTg4NS44MyIgc3Ryb2tlPSJibGFjayIgZmlsbD0ibm9uZSIvPiYjeGE7PHRleHQgZm9udC1zaXplPSIxNC4wMCIgZm9udC1mYW1pbHk9IkFyaWFsIiB5PSItMTg5Ny4wMyIgeD0iMTc4LjQ5IiB0ZXh0LWFuY2hvcj0ic3RhcnQiPtCT0L7QtDogMTI0MDwvdGV4dD4mI3hhOzxwb2x5Z29uIHBvaW50cz0iMTMyLjYxLC0xODU1LjAzIDEzMi42MSwtMTg4NS44MyAyODYuNjMsLTE4ODUuODMgMjg2LjYzLC0xODU1LjAzIDEzMi42MSwtMTg1NS4wMyIgc3Ryb2tlPSJibGFjayIgZmlsbD0ibm9uZSIvPiYjeGE7PHRleHQgZm9udC1zaXplPSIxNC4wMCIgZm9udC1mYW1pbHk9IkFyaWFsIiB5PSItMTg2Ni4yMyIgeD0iMTUxLjI3IiB0ZXh0LWFuY2hvcj0ic3RhcnQiPtCi0LjQvzog0YDQtdC70LjQs9C40L7Qt9C90YvQuTwvdGV4dD4mI3hhOzwvZz4mI3hhOyYjeGE7PGcgY2xhc3M9ImVkZ2UiIGlkPSJlZGdlMTIiPiYjeGE7PHRpdGxlPkwxMi0mZ3Q7Qzg8L3RpdGxlPiYjeGE7PHBhdGggZD0iTTM1OS40LC0xOTAxLjIzQzQwMi44LC0xOTAxLjIzIDQ0OS41OSwtMTkwMS4yMyA0OTAuNzQsLTE5MDEuMjMiIHN0cm9rZS1kYXNoYXJyYXk9IjUsMiIgc3Ryb2tlPSIjN2Y4YzhkIiBmaWxsPSJub25lIi8+JiN4YTs8L2c+JiN4YTs8L2c+JiN4YTs8L3N2Zz4=;" vertex="1" parent="1">
          <mxGeometry x="90" y="-1160" width="590" height="2466.94" as="geometry" />
        </mxCell>
      </root>
    </mxGraphModel>
  </diagram>
  <diagram id="MUgKsNXbHKWKr4OLEeI7" name="Страница — 2">
    <mxGraphModel dx="10700" dy="6380" grid="0" gridSize="10" guides="1" tooltips="1" connect="1" arrows="1" fold="1" page="0" pageScale="1" pageWidth="827" pageHeight="1169" math="0" shadow="0">
      <root>
        <mxCell id="0" />
        <mxCell id="1" parent="0" />
        <mxCell id="sQltLEVWT-uxZEkrPBEz-1" value="" style="rounded=0;whiteSpace=wrap;html=1;" vertex="1" parent="1">
          <mxGeometry x="1290" y="340" width="120" height="60" as="geometry" />
        </mxCell>
        <mxCell id="e6lP5vq6sNZjq9yfXD-w-1" value="" style="shape=image;verticalLabelPosition=bottom;labelBackgroundColor=default;verticalAlign=top;aspect=fixed;imageAspect=0;editableCssRules=.*;image=data:image/svg+xml,PHN2ZyB4bWxuczp4bGluaz0iaHR0cDovL3d3dy53My5vcmcvMTk5OS94bGluayIgeG1sbnM9Imh0dHA6Ly93d3cudzMub3JnLzIwMDAvc3ZnIiB2aWV3Qm94PSIyOC44MDI2Mjk0NzA4MjUxOTUgMjguODAyNTE2OTM3MjU1ODYgOTE2LjMzOTI5NDQzMzU5MzggMjE2MC4wMDIxOTcyNjU2MjUiIGhlaWdodD0iMjE4OC44MTgwMTYwNTIyNDYiIHdpZHRoPSI5NDQuMzE5ODYwMzE1MjEyOCI+JiN4YTs8ZyB0cmFuc2Zvcm09InNjYWxlKDAuODg3ODc0IDAuODg3ODc0KSByb3RhdGUoMCkgdHJhbnNsYXRlKDM2LjQ0IDI0NjEuMjIpIiBjbGFzcz0iZ3JhcGgiIGlkPSJncmFwaDAiPiYjeGE7PHRpdGxlPlVrcmFpbmU8L3RpdGxlPiYjeGE7PHBvbHlnb24gcG9pbnRzPSItNCw0IC00LC0yNDI4Ljc4IDEwMjguMDYsLTI0MjguNzggMTAyOC4wNiw0IC00LDQiIHN0cm9rZT0ibm9uZSIgZmlsbD0id2hpdGUiLz4mI3hhOyYjeGE7PGcgY2xhc3M9Im5vZGUiIGlkPSJub2RlMSI+JiN4YTs8dGl0bGU+UjE8L3RpdGxlPiYjeGE7PGVsbGlwc2Ugcnk9IjEwMi4zOSIgcng9IjEyMy44IiBjeT0iLTEwMi4zOSIgY3g9IjE1OS41MyIgc3Ryb2tlPSIjMzQ5OGRiIiBmaWxsPSIjZDZlYWY4Ii8+JiN4YTs8cG9seWdvbiBwb2ludHM9Ijg2LjM5LC0xMzMuMTkgODYuMzksLTE2My45OSAyMzIuNjcsLTE2My45OSAyMzIuNjcsLTEzMy4xOSA4Ni4zOSwtMTMzLjE5IiBzdHJva2U9IiMzNDk4ZGIiIGZpbGw9Im5vbmUiLz4mI3hhOzx0ZXh0IGZvbnQtc2l6ZT0iMTQuMDAiIGZvbnQtd2VpZ2h0PSJib2xkIiBmb250LWZhbWlseT0iQXJpYWwiIHk9Ii0xNDUuMzkiIHg9Ijk5LjI0IiB0ZXh0LWFuY2hvcj0ic3RhcnQiPtCa0LjQtdCy0YHQutCw0Y8g0L7QsdC70LDRgdGC0Yw8L3RleHQ+JiN4YTs8cG9seWdvbiBwb2ludHM9Ijg2LjM5LC0xMDIuMzkgODYuMzksLTEzMy4xOSAyMzIuNjcsLTEzMy4xOSAyMzIuNjcsLTEwMi4zOSA4Ni4zOSwtMTAyLjM5IiBzdHJva2U9IiMzNDk4ZGIiIGZpbGw9Im5vbmUiLz4mI3hhOzx0ZXh0IGZvbnQtc2l6ZT0iMTQuMDAiIGZvbnQtZmFtaWx5PSJBcmlhbCIgeT0iLTExMy41OSIgeD0iOTMuMzkiIHRleHQtYW5jaG9yPSJzdGFydCI+0J/Qu9C+0YnQsNC00Yw6IDI4LDEzMSDQutC8wrI8L3RleHQ+JiN4YTs8cG9seWdvbiBwb2ludHM9Ijg2LjM5LC03MS41OSA4Ni4zOSwtMTAyLjM5IDIzMi42NywtMTAyLjM5IDIzMi42NywtNzEuNTkgODYuMzksLTcxLjU5IiBzdHJva2U9IiMzNDk4ZGIiIGZpbGw9Im5vbmUiLz4mI3hhOzx0ZXh0IGZvbnQtc2l6ZT0iMTQuMDAiIGZvbnQtZmFtaWx5PSJBcmlhbCIgeT0iLTgyLjc5IiB4PSIxMDEuMTgiIHRleHQtYW5jaG9yPSJzdGFydCI+0J3QsNGB0LXQu9C10L3QuNC1OiAxLjc2TTwvdGV4dD4mI3hhOzxwb2x5Z29uIHBvaW50cz0iODYuMzksLTQwLjc5IDg2LjM5LC03MS41OSAyMzIuNjcsLTcxLjU5IDIzMi42NywtNDAuNzkgODYuMzksLTQwLjc5IiBzdHJva2U9IiMzNDk4ZGIiIGZpbGw9Im5vbmUiLz4mI3hhOzx0ZXh0IGZvbnQtc2l6ZT0iMTQuMDAiIGZvbnQtZmFtaWx5PSJBcmlhbCIgeT0iLTUxLjk5IiB4PSIxMDguOTUiIHRleHQtYW5jaG9yPSJzdGFydCI+0J7RgdC90L7QstCw0L3QsDogMTkzMjwvdGV4dD4mI3hhOzwvZz4mI3hhOyYjeGE7PGcgY2xhc3M9Im5vZGUiIGlkPSJub2RlNCI+JiN4YTs8dGl0bGU+QzE8L3RpdGxlPiYjeGE7PHBvbHlnb24gcG9pbnRzPSI2NzEuNTYsLTE1Ni4zOSA0MzYuMjMsLTE1Ni4zOSA0MzYuMjMsLTQ4LjM5IDY3MS41NiwtNDguMzkgNjcxLjU2LC0xNTYuMzkiIHN0cm9rZT0iIzJlY2M3MSIgZmlsbD0iI2Q1ZjVlMyIvPiYjeGE7PHBvbHlnb24gcG9pbnRzPSI0NTAuNjMsLTExNi43OSA0NTAuNjMsLTE0NS41OSA2NTcuMTYsLTE0NS41OSA2NTcuMTYsLTExNi43OSA0NTAuNjMsLTExNi43OSIgc3Ryb2tlPSIjMmVjYzcxIiBmaWxsPSJub25lIi8+JiN4YTs8dGV4dCBmb250LXNpemU9IjE0LjAwIiBmb250LXdlaWdodD0iYm9sZCIgZm9udC1mYW1pbHk9IkFyaWFsIiB5PSItMTI3Ljk5IiB4PSI1MzguMzQiIHRleHQtYW5jaG9yPSJzdGFydCI+0JrQuNC10LI8L3RleHQ+JiN4YTs8cG9seWdvbiBwb2ludHM9IjQ1MC42MywtODcuOTkgNDUwLjYzLC0xMTYuNzkgNjU3LjE2LC0xMTYuNzkgNjU3LjE2LC04Ny45OSA0NTAuNjMsLTg3Ljk5IiBzdHJva2U9IiMyZWNjNzEiIGZpbGw9Im5vbmUiLz4mI3hhOzx0ZXh0IGZvbnQtc2l6ZT0iMTQuMDAiIGZvbnQtZmFtaWx5PSJBcmlhbCIgeT0iLTk4LjE5IiB4PSI0OTUuNTQiIHRleHQtYW5jaG9yPSJzdGFydCI+0J3QsNGB0LXQu9C10L3QuNC1OiAyLjk3TTwvdGV4dD4mI3hhOzxwb2x5Z29uIHBvaW50cz0iNDUwLjYzLC01OS4xOSA0NTAuNjMsLTg3Ljk5IDY1Ny4xNiwtODcuOTkgNjU3LjE2LC01OS4xOSA0NTAuNjMsLTU5LjE5IiBzdHJva2U9IiMyZWNjNzEiIGZpbGw9Im5vbmUiLz4mI3hhOzx0ZXh0IGZvbnQtc2l6ZT0iMTQuMDAiIGZvbnQtZmFtaWx5PSJBcmlhbCIgeT0iLTY5LjM5IiB4PSI0NTYuNjMiIHRleHQtYW5jaG9yPSJzdGFydCI+0JrQvtC+0YDQtNC40L3QsNGC0Ys6IDUwLjQ1wrBOIDMwLjUywrBFPC90ZXh0PiYjeGE7PC9nPiYjeGE7JiN4YTs8ZyBjbGFzcz0iZWRnZSIgaWQ9ImVkZ2UxIj4mI3hhOzx0aXRsZT5SMS0mZ3Q7QzE8L3RpdGxlPiYjeGE7PHBhdGggZD0iTTI4My42LC0xMDIuMzlDMzMyLjI2LC0xMDIuMzkgMzg3LjkyLC0xMDIuMzkgNDM1Ljk1LC0xMDIuMzkiIHN0cm9rZS1kYXNoYXJyYXk9IjUsMiIgc3Ryb2tlPSIjN2Y4YzhkIiBmaWxsPSJub25lIi8+JiN4YTs8L2c+JiN4YTsmI3hhOzxnIGNsYXNzPSJub2RlIiBpZD0ibm9kZTIiPiYjeGE7PHRpdGxlPlIyPC90aXRsZT4mI3hhOzxlbGxpcHNlIHJ5PSIxMDIuMzkiIHJ4PSIxMjMuOCIgY3k9Ii0zNjUuMzkiIGN4PSIxNTkuNTMiIHN0cm9rZT0iIzM0OThkYiIgZmlsbD0iI2Q2ZWFmOCIvPiYjeGE7PHBvbHlnb24gcG9pbnRzPSI4Ni4zOSwtMzk2LjE5IDg2LjM5LC00MjYuOTkgMjMyLjY3LC00MjYuOTkgMjMyLjY3LC0zOTYuMTkgODYuMzksLTM5Ni4xOSIgc3Ryb2tlPSIjMzQ5OGRiIiBmaWxsPSJub25lIi8+JiN4YTs8dGV4dCBmb250LXNpemU9IjE0LjAwIiBmb250LXdlaWdodD0iYm9sZCIgZm9udC1mYW1pbHk9IkFyaWFsIiB5PSItNDA4LjM5IiB4PSI5NS4zNSIgdGV4dC1hbmNob3I9InN0YXJ0Ij7Qm9GM0LLQvtCy0YHQutCw0Y8g0L7QsdC70LDRgdGC0Yw8L3RleHQ+JiN4YTs8cG9seWdvbiBwb2ludHM9Ijg2LjM5LC0zNjUuMzkgODYuMzksLTM5Ni4xOSAyMzIuNjcsLTM5Ni4xOSAyMzIuNjcsLTM2NS4zOSA4Ni4zOSwtMzY1LjM5IiBzdHJva2U9IiMzNDk4ZGIiIGZpbGw9Im5vbmUiLz4mI3hhOzx0ZXh0IGZvbnQtc2l6ZT0iMTQuMDAiIGZvbnQtZmFtaWx5PSJBcmlhbCIgeT0iLTM3Ni41OSIgeD0iOTMuMzkiIHRleHQtYW5jaG9yPSJzdGFydCI+0J/Qu9C+0YnQsNC00Yw6IDIxLDgzMyDQutC8wrI8L3RleHQ+JiN4YTs8cG9seWdvbiBwb2ludHM9Ijg2LjM5LC0zMzQuNTkgODYuMzksLTM2NS4zOSAyMzIuNjcsLTM2NS4zOSAyMzIuNjcsLTMzNC41OSA4Ni4zOSwtMzM0LjU5IiBzdHJva2U9IiMzNDk4ZGIiIGZpbGw9Im5vbmUiLz4mI3hhOzx0ZXh0IGZvbnQtc2l6ZT0iMTQuMDAiIGZvbnQtZmFtaWx5PSJBcmlhbCIgeT0iLTM0NS43OSIgeD0iMTAxLjE4IiB0ZXh0LWFuY2hvcj0ic3RhcnQiPtCd0LDRgdC10LvQtdC90LjQtTogMi41MU08L3RleHQ+JiN4YTs8cG9seWdvbiBwb2ludHM9Ijg2LjM5LC0zMDMuNzkgODYuMzksLTMzNC41OSAyMzIuNjcsLTMzNC41OSAyMzIuNjcsLTMwMy43OSA4Ni4zOSwtMzAzLjc5IiBzdHJva2U9IiMzNDk4ZGIiIGZpbGw9Im5vbmUiLz4mI3hhOzx0ZXh0IGZvbnQtc2l6ZT0iMTQuMDAiIGZvbnQtZmFtaWx5PSJBcmlhbCIgeT0iLTMxNC45OSIgeD0iMTA4Ljk1IiB0ZXh0LWFuY2hvcj0ic3RhcnQiPtCe0YHQvdC+0LLQsNC90LA6IDE5Mzk8L3RleHQ+JiN4YTs8L2c+JiN4YTsmI3hhOzxnIGNsYXNzPSJub2RlIiBpZD0ibm9kZTUiPiYjeGE7PHRpdGxlPkMyPC90aXRsZT4mI3hhOzxwb2x5Z29uIHBvaW50cz0iNjcxLjU2LC00MTkuMzkgNDM2LjIzLC00MTkuMzkgNDM2LjIzLC0zMTEuMzkgNjcxLjU2LC0zMTEuMzkgNjcxLjU2LC00MTkuMzkiIHN0cm9rZT0iIzJlY2M3MSIgZmlsbD0iI2Q1ZjVlMyIvPiYjeGE7PHBvbHlnb24gcG9pbnRzPSI0NTAuNjMsLTM3OS43OSA0NTAuNjMsLTQwOC41OSA2NTcuMTYsLTQwOC41OSA2NTcuMTYsLTM3OS43OSA0NTAuNjMsLTM3OS43OSIgc3Ryb2tlPSIjMmVjYzcxIiBmaWxsPSJub25lIi8+JiN4YTs8dGV4dCBmb250LXNpemU9IjE0LjAwIiBmb250LXdlaWdodD0iYm9sZCIgZm9udC1mYW1pbHk9IkFyaWFsIiB5PSItMzkwLjk5IiB4PSI1MzQuNDUiIHRleHQtYW5jaG9yPSJzdGFydCI+0JvRjNCy0L7QsjwvdGV4dD4mI3hhOzxwb2x5Z29uIHBvaW50cz0iNDUwLjYzLC0zNTAuOTkgNDUwLjYzLC0zNzkuNzkgNjU3LjE2LC0zNzkuNzkgNjU3LjE2LC0zNTAuOTkgNDUwLjYzLC0zNTAuOTkiIHN0cm9rZT0iIzJlY2M3MSIgZmlsbD0ibm9uZSIvPiYjeGE7PHRleHQgZm9udC1zaXplPSIxNC4wMCIgZm9udC1mYW1pbHk9IkFyaWFsIiB5PSItMzYxLjE5IiB4PSI0OTguNjUiIHRleHQtYW5jaG9yPSJzdGFydCI+0J3QsNGB0LXQu9C10L3QuNC1OiA3MjRLPC90ZXh0PiYjeGE7PHBvbHlnb24gcG9pbnRzPSI0NTAuNjMsLTMyMi4xOSA0NTAuNjMsLTM1MC45OSA2NTcuMTYsLTM1MC45OSA2NTcuMTYsLTMyMi4xOSA0NTAuNjMsLTMyMi4xOSIgc3Ryb2tlPSIjMmVjYzcxIiBmaWxsPSJub25lIi8+JiN4YTs8dGV4dCBmb250LXNpemU9IjE0LjAwIiBmb250LWZhbWlseT0iQXJpYWwiIHk9Ii0zMzIuMzkiIHg9IjQ1Ni42MyIgdGV4dC1hbmNob3I9InN0YXJ0Ij7QmtC+0L7RgNC00LjQvdCw0YLRizogNDkuODTCsE4gMjQuMDPCsEU8L3RleHQ+JiN4YTs8L2c+JiN4YTsmI3hhOzxnIGNsYXNzPSJlZGdlIiBpZD0iZWRnZTIiPiYjeGE7PHRpdGxlPlIyLSZndDtDMjwvdGl0bGU+JiN4YTs8cGF0aCBkPSJNMjgzLjYsLTM2NS4zOUMzMzIuMjYsLTM2NS4zOSAzODcuOTIsLTM2NS4zOSA0MzUuOTUsLTM2NS4zOSIgc3Ryb2tlLWRhc2hhcnJheT0iNSwyIiBzdHJva2U9IiM3ZjhjOGQiIGZpbGw9Im5vbmUiLz4mI3hhOzwvZz4mI3hhOyYjeGE7PGcgY2xhc3M9Im5vZGUiIGlkPSJub2RlMyI+JiN4YTs8dGl0bGU+UjM8L3RpdGxlPiYjeGE7PGVsbGlwc2Ugcnk9IjEwMi4zOSIgcng9IjEyMy44IiBjeT0iLTYyOC4zOSIgY3g9IjE1OS41MyIgc3Ryb2tlPSIjMzQ5OGRiIiBmaWxsPSIjZDZlYWY4Ii8+JiN4YTs8cG9seWdvbiBwb2ludHM9Ijg2LjM5LC02NTkuMTkgODYuMzksLTY4OS45OSAyMzIuNjcsLTY4OS45OSAyMzIuNjcsLTY1OS4xOSA4Ni4zOSwtNjU5LjE5IiBzdHJva2U9IiMzNDk4ZGIiIGZpbGw9Im5vbmUiLz4mI3hhOzx0ZXh0IGZvbnQtc2l6ZT0iMTQuMDAiIGZvbnQtd2VpZ2h0PSJib2xkIiBmb250LWZhbWlseT0iQXJpYWwiIHk9Ii02NzEuMzkiIHg9Ijk5LjI0IiB0ZXh0LWFuY2hvcj0ic3RhcnQiPtCe0LTQtdGB0YHQutCw0Y8g0L7QsdC70LDRgdGC0Yw8L3RleHQ+JiN4YTs8cG9seWdvbiBwb2ludHM9Ijg2LjM5LC02MjguMzkgODYuMzksLTY1OS4xOSAyMzIuNjcsLTY1OS4xOSAyMzIuNjcsLTYyOC4zOSA4Ni4zOSwtNjI4LjM5IiBzdHJva2U9IiMzNDk4ZGIiIGZpbGw9Im5vbmUiLz4mI3hhOzx0ZXh0IGZvbnQtc2l6ZT0iMTQuMDAiIGZvbnQtZmFtaWx5PSJBcmlhbCIgeT0iLTYzOS41OSIgeD0iOTMuMzkiIHRleHQtYW5jaG9yPSJzdGFydCI+0J/Qu9C+0YnQsNC00Yw6IDMzLDMxNCDQutC8wrI8L3RleHQ+JiN4YTs8cG9seWdvbiBwb2ludHM9Ijg2LjM5LC01OTcuNTkgODYuMzksLTYyOC4zOSAyMzIuNjcsLTYyOC4zOSAyMzIuNjcsLTU5Ny41OSA4Ni4zOSwtNTk3LjU5IiBzdHJva2U9IiMzNDk4ZGIiIGZpbGw9Im5vbmUiLz4mI3hhOzx0ZXh0IGZvbnQtc2l6ZT0iMTQuMDAiIGZvbnQtZmFtaWx5PSJBcmlhbCIgeT0iLTYwOC43OSIgeD0iMTAxLjE4IiB0ZXh0LWFuY2hvcj0ic3RhcnQiPtCd0LDRgdC10LvQtdC90LjQtTogMi4zOE08L3RleHQ+JiN4YTs8cG9seWdvbiBwb2ludHM9Ijg2LjM5LC01NjYuNzkgODYuMzksLTU5Ny41OSAyMzIuNjcsLTU5Ny41OSAyMzIuNjcsLTU2Ni43OSA4Ni4zOSwtNTY2Ljc5IiBzdHJva2U9IiMzNDk4ZGIiIGZpbGw9Im5vbmUiLz4mI3hhOzx0ZXh0IGZvbnQtc2l6ZT0iMTQuMDAiIGZvbnQtZmFtaWx5PSJBcmlhbCIgeT0iLTU3Ny45OSIgeD0iMTA4Ljk1IiB0ZXh0LWFuY2hvcj0ic3RhcnQiPtCe0YHQvdC+0LLQsNC90LA6IDE5MzI8L3RleHQ+JiN4YTs8L2c+JiN4YTsmI3hhOzxnIGNsYXNzPSJub2RlIiBpZD0ibm9kZTYiPiYjeGE7PHRpdGxlPkMzPC90aXRsZT4mI3hhOzxwb2x5Z29uIHBvaW50cz0iNjcxLjU2LC02ODIuMzkgNDM2LjIzLC02ODIuMzkgNDM2LjIzLC01NzQuMzkgNjcxLjU2LC01NzQuMzkgNjcxLjU2LC02ODIuMzkiIHN0cm9rZT0iIzJlY2M3MSIgZmlsbD0iI2Q1ZjVlMyIvPiYjeGE7PHBvbHlnb24gcG9pbnRzPSI0NTAuNjMsLTY0Mi43OSA0NTAuNjMsLTY3MS41OSA2NTcuMTYsLTY3MS41OSA2NTcuMTYsLTY0Mi43OSA0NTAuNjMsLTY0Mi43OSIgc3Ryb2tlPSIjMmVjYzcxIiBmaWxsPSJub25lIi8+JiN4YTs8dGV4dCBmb250LXNpemU9IjE0LjAwIiBmb250LXdlaWdodD0iYm9sZCIgZm9udC1mYW1pbHk9IkFyaWFsIiB5PSItNjUzLjk5IiB4PSI1MzAuNTYiIHRleHQtYW5jaG9yPSJzdGFydCI+0J7QtNC10YHRgdCwPC90ZXh0PiYjeGE7PHBvbHlnb24gcG9pbnRzPSI0NTAuNjMsLTYxMy45OSA0NTAuNjMsLTY0Mi43OSA2NTcuMTYsLTY0Mi43OSA2NTcuMTYsLTYxMy45OSA0NTAuNjMsLTYxMy45OSIgc3Ryb2tlPSIjMmVjYzcxIiBmaWxsPSJub25lIi8+JiN4YTs8dGV4dCBmb250LXNpemU9IjE0LjAwIiBmb250LWZhbWlseT0iQXJpYWwiIHk9Ii02MjQuMTkiIHg9IjQ5NS41NCIgdGV4dC1hbmNob3I9InN0YXJ0Ij7QndCw0YHQtdC70LXQvdC40LU6IDEuMDJNPC90ZXh0PiYjeGE7PHBvbHlnb24gcG9pbnRzPSI0NTAuNjMsLTU4NS4xOSA0NTAuNjMsLTYxMy45OSA2NTcuMTYsLTYxMy45OSA2NTcuMTYsLTU4NS4xOSA0NTAuNjMsLTU4NS4xOSIgc3Ryb2tlPSIjMmVjYzcxIiBmaWxsPSJub25lIi8+JiN4YTs8dGV4dCBmb250LXNpemU9IjE0LjAwIiBmb250LWZhbWlseT0iQXJpYWwiIHk9Ii01OTUuMzkiIHg9IjQ1Ni42MyIgdGV4dC1hbmNob3I9InN0YXJ0Ij7QmtC+0L7RgNC00LjQvdCw0YLRizogNDYuNDjCsE4gMzAuNzLCsEU8L3RleHQ+JiN4YTs8L2c+JiN4YTsmI3hhOzxnIGNsYXNzPSJlZGdlIiBpZD0iZWRnZTMiPiYjeGE7PHRpdGxlPlIzLSZndDtDMzwvdGl0bGU+JiN4YTs8cGF0aCBkPSJNMjgzLjYsLTYyOC4zOUMzMzIuMjYsLTYyOC4zOSAzODcuOTIsLTYyOC4zOSA0MzUuOTUsLTYyOC4zOSIgc3Ryb2tlLWRhc2hhcnJheT0iNSwyIiBzdHJva2U9IiM3ZjhjOGQiIGZpbGw9Im5vbmUiLz4mI3hhOzwvZz4mI3hhOyYjeGE7PGcgY2xhc3M9Im5vZGUiIGlkPSJub2RlNyI+JiN4YTs8dGl0bGU+QzQ8L3RpdGxlPiYjeGE7PHBvbHlnb24gcG9pbnRzPSI2NzEuNTYsLTk0NS4zOSA0MzYuMjMsLTk0NS4zOSA0MzYuMjMsLTgzNy4zOSA2NzEuNTYsLTgzNy4zOSA2NzEuNTYsLTk0NS4zOSIgc3Ryb2tlPSIjMmVjYzcxIiBmaWxsPSIjZDVmNWUzIi8+JiN4YTs8cG9seWdvbiBwb2ludHM9IjQ1MC42MywtOTA1Ljc5IDQ1MC42MywtOTM0LjU5IDY1Ny4xNiwtOTM0LjU5IDY1Ny4xNiwtOTA1Ljc5IDQ1MC42MywtOTA1Ljc5IiBzdHJva2U9IiMyZWNjNzEiIGZpbGw9Im5vbmUiLz4mI3hhOzx0ZXh0IGZvbnQtc2l6ZT0iMTQuMDAiIGZvbnQtd2VpZ2h0PSJib2xkIiBmb250LWZhbWlseT0iQXJpYWwiIHk9Ii05MTYuOTkiIHg9IjUyNi42NyIgdGV4dC1hbmNob3I9InN0YXJ0Ij7QpdCw0YDRjNC60L7QsjwvdGV4dD4mI3hhOzxwb2x5Z29uIHBvaW50cz0iNDUwLjYzLC04NzYuOTkgNDUwLjYzLC05MDUuNzkgNjU3LjE2LC05MDUuNzkgNjU3LjE2LC04NzYuOTkgNDUwLjYzLC04NzYuOTkiIHN0cm9rZT0iIzJlY2M3MSIgZmlsbD0ibm9uZSIvPiYjeGE7PHRleHQgZm9udC1zaXplPSIxNC4wMCIgZm9udC1mYW1pbHk9IkFyaWFsIiB5PSItODg3LjE5IiB4PSI0OTUuNTQiIHRleHQtYW5jaG9yPSJzdGFydCI+0J3QsNGB0LXQu9C10L3QuNC1OiAxLjQzTTwvdGV4dD4mI3hhOzxwb2x5Z29uIHBvaW50cz0iNDUwLjYzLC04NDguMTkgNDUwLjYzLC04NzYuOTkgNjU3LjE2LC04NzYuOTkgNjU3LjE2LC04NDguMTkgNDUwLjYzLC04NDguMTkiIHN0cm9rZT0iIzJlY2M3MSIgZmlsbD0ibm9uZSIvPiYjeGE7PHRleHQgZm9udC1zaXplPSIxNC4wMCIgZm9udC1mYW1pbHk9IkFyaWFsIiB5PSItODU4LjM5IiB4PSI0NTYuNjMiIHRleHQtYW5jaG9yPSJzdGFydCI+0JrQvtC+0YDQtNC40L3QsNGC0Ys6IDQ5Ljk5wrBOIDM2LjIzwrBFPC90ZXh0PiYjeGE7PC9nPiYjeGE7JiN4YTs8ZyBjbGFzcz0ibm9kZSIgaWQ9Im5vZGU4Ij4mI3hhOzx0aXRsZT5SNDwvdGl0bGU+JiN4YTs8ZWxsaXBzZSByeT0iMTAyLjM5IiByeD0iMTMyLjAzIiBjeT0iLTg5MS4zOSIgY3g9IjE1OS41MyIgc3Ryb2tlPSIjMzQ5OGRiIiBmaWxsPSIjZDZlYWY4Ii8+JiN4YTs8cG9seWdvbiBwb2ludHM9IjgwLjU3LC05MjIuMTkgODAuNTcsLTk1Mi45OSAyMzguNDksLTk1Mi45OSAyMzguNDksLTkyMi4xOSA4MC41NywtOTIyLjE5IiBzdHJva2U9IiMzNDk4ZGIiIGZpbGw9Im5vbmUiLz4mI3hhOzx0ZXh0IGZvbnQtc2l6ZT0iMTQuMDAiIGZvbnQtd2VpZ2h0PSJib2xkIiBmb250LWZhbWlseT0iQXJpYWwiIHk9Ii05MzQuMzkiIHg9Ijg3LjU3IiB0ZXh0LWFuY2hvcj0ic3RhcnQiPtCl0LDRgNGM0LrQvtCy0YHQutCw0Y8g0L7QsdC70LDRgdGC0Yw8L3RleHQ+JiN4YTs8cG9seWdvbiBwb2ludHM9IjgwLjU3LC04OTEuMzkgODAuNTcsLTkyMi4xOSAyMzguNDksLTkyMi4xOSAyMzguNDksLTg5MS4zOSA4MC41NywtODkxLjM5IiBzdHJva2U9IiMzNDk4ZGIiIGZpbGw9Im5vbmUiLz4mI3hhOzx0ZXh0IGZvbnQtc2l6ZT0iMTQuMDAiIGZvbnQtZmFtaWx5PSJBcmlhbCIgeT0iLTkwMi41OSIgeD0iOTMuMzkiIHRleHQtYW5jaG9yPSJzdGFydCI+0J/Qu9C+0YnQsNC00Yw6IDMxLDQxNSDQutC8wrI8L3RleHQ+JiN4YTs8cG9seWdvbiBwb2ludHM9IjgwLjU3LC04NjAuNTkgODAuNTcsLTg5MS4zOSAyMzguNDksLTg5MS4zOSAyMzguNDksLTg2MC41OSA4MC41NywtODYwLjU5IiBzdHJva2U9IiMzNDk4ZGIiIGZpbGw9Im5vbmUiLz4mI3hhOzx0ZXh0IGZvbnQtc2l6ZT0iMTQuMDAiIGZvbnQtZmFtaWx5PSJBcmlhbCIgeT0iLTg3MS43OSIgeD0iMTAxLjE4IiB0ZXh0LWFuY2hvcj0ic3RhcnQiPtCd0LDRgdC10LvQtdC90LjQtTogMi42NU08L3RleHQ+JiN4YTs8cG9seWdvbiBwb2ludHM9IjgwLjU3LC04MjkuNzkgODAuNTcsLTg2MC41OSAyMzguNDksLTg2MC41OSAyMzguNDksLTgyOS43OSA4MC41NywtODI5Ljc5IiBzdHJva2U9IiMzNDk4ZGIiIGZpbGw9Im5vbmUiLz4mI3hhOzx0ZXh0IGZvbnQtc2l6ZT0iMTQuMDAiIGZvbnQtZmFtaWx5PSJBcmlhbCIgeT0iLTg0MC45OSIgeD0iMTA4Ljk1IiB0ZXh0LWFuY2hvcj0ic3RhcnQiPtCe0YHQvdC+0LLQsNC90LA6IDE5MzI8L3RleHQ+JiN4YTs8L2c+JiN4YTsmI3hhOzxnIGNsYXNzPSJlZGdlIiBpZD0iZWRnZTQiPiYjeGE7PHRpdGxlPlI0LSZndDtDNDwvdGl0bGU+JiN4YTs8cGF0aCBkPSJNMjkyLC04OTEuMzlDMzM4LjU1LC04OTEuMzkgMzkwLjU3LC04OTEuMzkgNDM1LjgzLC04OTEuMzkiIHN0cm9rZS1kYXNoYXJyYXk9IjUsMiIgc3Ryb2tlPSIjN2Y4YzhkIiBmaWxsPSJub25lIi8+JiN4YTs8L2c+JiN4YTsmI3hhOzxnIGNsYXNzPSJub2RlIiBpZD0ibm9kZTkiPiYjeGE7PHRpdGxlPlI1PC90aXRsZT4mI3hhOzxlbGxpcHNlIHJ5PSIxMDIuMzkiIHJ4PSIxNTkuNTMiIGN5PSItMTE1NC4zOSIgY3g9IjE1OS41MyIgc3Ryb2tlPSIjMzQ5OGRiIiBmaWxsPSIjZDZlYWY4Ii8+JiN4YTs8cG9seWdvbiBwb2ludHM9IjYxLjEzLC0xMTg1LjE5IDYxLjEzLC0xMjE1Ljk5IDI1Ny45NCwtMTIxNS45OSAyNTcuOTQsLTExODUuMTkgNjEuMTMsLTExODUuMTkiIHN0cm9rZT0iIzM0OThkYiIgZmlsbD0ibm9uZSIvPiYjeGE7PHRleHQgZm9udC1zaXplPSIxNC4wMCIgZm9udC13ZWlnaHQ9ImJvbGQiIGZvbnQtZmFtaWx5PSJBcmlhbCIgeT0iLTExOTcuMzkiIHg9IjY4LjEzIiB0ZXh0LWFuY2hvcj0ic3RhcnQiPtCU0L3QtdC/0YDQvtC/0LXRgtGA0L7QstGB0LrQsNGPINC+0LHQu9Cw0YHRgtGMPC90ZXh0PiYjeGE7PHBvbHlnb24gcG9pbnRzPSI2MS4xMywtMTE1NC4zOSA2MS4xMywtMTE4NS4xOSAyNTcuOTQsLTExODUuMTkgMjU3Ljk0LC0xMTU0LjM5IDYxLjEzLC0xMTU0LjM5IiBzdHJva2U9IiMzNDk4ZGIiIGZpbGw9Im5vbmUiLz4mI3hhOzx0ZXh0IGZvbnQtc2l6ZT0iMTQuMDAiIGZvbnQtZmFtaWx5PSJBcmlhbCIgeT0iLTExNjUuNTkiIHg9IjkzLjM5IiB0ZXh0LWFuY2hvcj0ic3RhcnQiPtCf0LvQvtGJ0LDQtNGMOiAzMSw5MTQg0LrQvMKyPC90ZXh0PiYjeGE7PHBvbHlnb24gcG9pbnRzPSI2MS4xMywtMTEyMy41OSA2MS4xMywtMTE1NC4zOSAyNTcuOTQsLTExNTQuMzkgMjU3Ljk0LC0xMTIzLjU5IDYxLjEzLC0xMTIzLjU5IiBzdHJva2U9IiMzNDk4ZGIiIGZpbGw9Im5vbmUiLz4mI3hhOzx0ZXh0IGZvbnQtc2l6ZT0iMTQuMDAiIGZvbnQtZmFtaWx5PSJBcmlhbCIgeT0iLTExMzQuNzkiIHg9IjEwMS4xOCIgdGV4dC1hbmNob3I9InN0YXJ0Ij7QndCw0YHQtdC70LXQvdC40LU6IDMuMThNPC90ZXh0PiYjeGE7PHBvbHlnb24gcG9pbnRzPSI2MS4xMywtMTA5Mi43OSA2MS4xMywtMTEyMy41OSAyNTcuOTQsLTExMjMuNTkgMjU3Ljk0LC0xMDkyLjc5IDYxLjEzLC0xMDkyLjc5IiBzdHJva2U9IiMzNDk4ZGIiIGZpbGw9Im5vbmUiLz4mI3hhOzx0ZXh0IGZvbnQtc2l6ZT0iMTQuMDAiIGZvbnQtZmFtaWx5PSJBcmlhbCIgeT0iLTExMDMuOTkiIHg9IjEwOC45NSIgdGV4dC1hbmNob3I9InN0YXJ0Ij7QntGB0L3QvtCy0LDQvdCwOiAxOTMyPC90ZXh0PiYjeGE7PC9nPiYjeGE7JiN4YTs8ZyBjbGFzcz0ibm9kZSIgaWQ9Im5vZGUxNCI+JiN4YTs8dGl0bGU+QzU8L3RpdGxlPiYjeGE7PHBvbHlnb24gcG9pbnRzPSI2NzEuNTYsLTEyMDguMzkgNDM2LjIzLC0xMjA4LjM5IDQzNi4yMywtMTEwMC4zOSA2NzEuNTYsLTExMDAuMzkgNjcxLjU2LC0xMjA4LjM5IiBzdHJva2U9IiMyZWNjNzEiIGZpbGw9IiNkNWY1ZTMiLz4mI3hhOzxwb2x5Z29uIHBvaW50cz0iNDUwLjYzLC0xMTY4Ljc5IDQ1MC42MywtMTE5Ny41OSA2NTcuMTYsLTExOTcuNTkgNjU3LjE2LC0xMTY4Ljc5IDQ1MC42MywtMTE2OC43OSIgc3Ryb2tlPSIjMmVjYzcxIiBmaWxsPSJub25lIi8+JiN4YTs8dGV4dCBmb250LXNpemU9IjE0LjAwIiBmb250LXdlaWdodD0iYm9sZCIgZm9udC1mYW1pbHk9IkFyaWFsIiB5PSItMTE3OS45OSIgeD0iNTM0LjQ1IiB0ZXh0LWFuY2hvcj0ic3RhcnQiPtCU0L3QtdC/0YA8L3RleHQ+JiN4YTs8cG9seWdvbiBwb2ludHM9IjQ1MC42MywtMTEzOS45OSA0NTAuNjMsLTExNjguNzkgNjU3LjE2LC0xMTY4Ljc5IDY1Ny4xNiwtMTEzOS45OSA0NTAuNjMsLTExMzkuOTkiIHN0cm9rZT0iIzJlY2M3MSIgZmlsbD0ibm9uZSIvPiYjeGE7PHRleHQgZm9udC1zaXplPSIxNC4wMCIgZm9udC1mYW1pbHk9IkFyaWFsIiB5PSItMTE1MC4xOSIgeD0iNDk4LjY1IiB0ZXh0LWFuY2hvcj0ic3RhcnQiPtCd0LDRgdC10LvQtdC90LjQtTogOTg0SzwvdGV4dD4mI3hhOzxwb2x5Z29uIHBvaW50cz0iNDUwLjYzLC0xMTExLjE5IDQ1MC42MywtMTEzOS45OSA2NTcuMTYsLTExMzkuOTkgNjU3LjE2LC0xMTExLjE5IDQ1MC42MywtMTExMS4xOSIgc3Ryb2tlPSIjMmVjYzcxIiBmaWxsPSJub25lIi8+JiN4YTs8dGV4dCBmb250LXNpemU9IjE0LjAwIiBmb250LWZhbWlseT0iQXJpYWwiIHk9Ii0xMTIxLjM5IiB4PSI0NTYuNjMiIHRleHQtYW5jaG9yPSJzdGFydCI+0JrQvtC+0YDQtNC40L3QsNGC0Ys6IDQ4LjQ2wrBOIDM1LjA1wrBFPC90ZXh0PiYjeGE7PC9nPiYjeGE7JiN4YTs8ZyBjbGFzcz0iZWRnZSIgaWQ9ImVkZ2U1Ij4mI3hhOzx0aXRsZT5SNS0mZ3Q7QzU8L3RpdGxlPiYjeGE7PHBhdGggZD0iTTMxOS41NiwtMTE1NC4zOUMzNTguNDMsLTExNTQuMzkgMzk5LjMyLC0xMTU0LjM5IDQzNS44MywtMTE1NC4zOSIgc3Ryb2tlLWRhc2hhcnJheT0iNSwyIiBzdHJva2U9IiM3ZjhjOGQiIGZpbGw9Im5vbmUiLz4mI3hhOzwvZz4mI3hhOyYjeGE7PGcgY2xhc3M9Im5vZGUiIGlkPSJub2RlMTAiPiYjeGE7PHRpdGxlPlI2PC90aXRsZT4mI3hhOzxlbGxpcHNlIHJ5PSIxMDIuMzkiIHJ4PSIxMzcuNTMiIGN5PSItMTQxNy4zOSIgY3g9IjE1OS41MyIgc3Ryb2tlPSIjMzQ5OGRiIiBmaWxsPSIjZDZlYWY4Ii8+JiN4YTs8cG9seWdvbiBwb2ludHM9Ijc2LjY4LC0xNDQ4LjE5IDc2LjY4LC0xNDc4Ljk5IDI0Mi4zOCwtMTQ3OC45OSAyNDIuMzgsLTE0NDguMTkgNzYuNjgsLTE0NDguMTkiIHN0cm9rZT0iIzM0OThkYiIgZmlsbD0ibm9uZSIvPiYjeGE7PHRleHQgZm9udC1zaXplPSIxNC4wMCIgZm9udC13ZWlnaHQ9ImJvbGQiIGZvbnQtZmFtaWx5PSJBcmlhbCIgeT0iLTE0NjAuMzkiIHg9IjgzLjY4IiB0ZXh0LWFuY2hvcj0ic3RhcnQiPtCX0LDQutCw0YDQv9Cw0YLRgdC60LDRjyDQvtCx0LvQsNGB0YLRjDwvdGV4dD4mI3hhOzxwb2x5Z29uIHBvaW50cz0iNzYuNjgsLTE0MTcuMzkgNzYuNjgsLTE0NDguMTkgMjQyLjM4LC0xNDQ4LjE5IDI0Mi4zOCwtMTQxNy4zOSA3Ni42OCwtMTQxNy4zOSIgc3Ryb2tlPSIjMzQ5OGRiIiBmaWxsPSJub25lIi8+JiN4YTs8dGV4dCBmb250LXNpemU9IjE0LjAwIiBmb250LWZhbWlseT0iQXJpYWwiIHk9Ii0xNDI4LjU5IiB4PSI5My4zOSIgdGV4dC1hbmNob3I9InN0YXJ0Ij7Qn9C70L7RidCw0LTRjDogMTIsNzc3INC60LzCsjwvdGV4dD4mI3hhOzxwb2x5Z29uIHBvaW50cz0iNzYuNjgsLTEzODYuNTkgNzYuNjgsLTE0MTcuMzkgMjQyLjM4LC0xNDE3LjM5IDI0Mi4zOCwtMTM4Ni41OSA3Ni42OCwtMTM4Ni41OSIgc3Ryb2tlPSIjMzQ5OGRiIiBmaWxsPSJub25lIi8+JiN4YTs8dGV4dCBmb250LXNpemU9IjE0LjAwIiBmb250LWZhbWlseT0iQXJpYWwiIHk9Ii0xMzk3Ljc5IiB4PSIxMDEuMTgiIHRleHQtYW5jaG9yPSJzdGFydCI+0J3QsNGB0LXQu9C10L3QuNC1OiAxLjI2TTwvdGV4dD4mI3hhOzxwb2x5Z29uIHBvaW50cz0iNzYuNjgsLTEzNTUuNzkgNzYuNjgsLTEzODYuNTkgMjQyLjM4LC0xMzg2LjU5IDI0Mi4zOCwtMTM1NS43OSA3Ni42OCwtMTM1NS43OSIgc3Ryb2tlPSIjMzQ5OGRiIiBmaWxsPSJub25lIi8+JiN4YTs8dGV4dCBmb250LXNpemU9IjE0LjAwIiBmb250LWZhbWlseT0iQXJpYWwiIHk9Ii0xMzY2Ljk5IiB4PSIxMDguOTUiIHRleHQtYW5jaG9yPSJzdGFydCI+0J7RgdC90L7QstCw0L3QsDogMTk0NjwvdGV4dD4mI3hhOzwvZz4mI3hhOyYjeGE7PGcgY2xhc3M9Im5vZGUiIGlkPSJub2RlMTUiPiYjeGE7PHRpdGxlPkM2PC90aXRsZT4mI3hhOzxwb2x5Z29uIHBvaW50cz0iNjcxLjU2LC0xNDcxLjM5IDQzNi4yMywtMTQ3MS4zOSA0MzYuMjMsLTEzNjMuMzkgNjcxLjU2LC0xMzYzLjM5IDY3MS41NiwtMTQ3MS4zOSIgc3Ryb2tlPSIjMmVjYzcxIiBmaWxsPSIjZDVmNWUzIi8+JiN4YTs8cG9seWdvbiBwb2ludHM9IjQ1MC42MywtMTQzMS43OSA0NTAuNjMsLTE0NjAuNTkgNjU3LjE2LC0xNDYwLjU5IDY1Ny4xNiwtMTQzMS43OSA0NTAuNjMsLTE0MzEuNzkiIHN0cm9rZT0iIzJlY2M3MSIgZmlsbD0ibm9uZSIvPiYjeGE7PHRleHQgZm9udC1zaXplPSIxNC4wMCIgZm9udC13ZWlnaHQ9ImJvbGQiIGZvbnQtZmFtaWx5PSJBcmlhbCIgeT0iLTE0NDIuOTkiIHg9IjUyNi42NyIgdGV4dC1hbmNob3I9InN0YXJ0Ij7Qo9C20LPQvtGA0L7QtDwvdGV4dD4mI3hhOzxwb2x5Z29uIHBvaW50cz0iNDUwLjYzLC0xNDAyLjk5IDQ1MC42MywtMTQzMS43OSA2NTcuMTYsLTE0MzEuNzkgNjU3LjE2LC0xNDAyLjk5IDQ1MC42MywtMTQwMi45OSIgc3Ryb2tlPSIjMmVjYzcxIiBmaWxsPSJub25lIi8+JiN4YTs8dGV4dCBmb250LXNpemU9IjE0LjAwIiBmb250LWZhbWlseT0iQXJpYWwiIHk9Ii0xNDEzLjE5IiB4PSI0OTguNjUiIHRleHQtYW5jaG9yPSJzdGFydCI+0J3QsNGB0LXQu9C10L3QuNC1OiAxMTVLPC90ZXh0PiYjeGE7PHBvbHlnb24gcG9pbnRzPSI0NTAuNjMsLTEzNzQuMTkgNDUwLjYzLC0xNDAyLjk5IDY1Ny4xNiwtMTQwMi45OSA2NTcuMTYsLTEzNzQuMTkgNDUwLjYzLC0xMzc0LjE5IiBzdHJva2U9IiMyZWNjNzEiIGZpbGw9Im5vbmUiLz4mI3hhOzx0ZXh0IGZvbnQtc2l6ZT0iMTQuMDAiIGZvbnQtZmFtaWx5PSJBcmlhbCIgeT0iLTEzODQuMzkiIHg9IjQ1Ni42MyIgdGV4dC1hbmNob3I9InN0YXJ0Ij7QmtC+0L7RgNC00LjQvdCw0YLRizogNDguNjLCsE4gMjIuMjnCsEU8L3RleHQ+JiN4YTs8L2c+JiN4YTsmI3hhOzxnIGNsYXNzPSJlZGdlIiBpZD0iZWRnZTYiPiYjeGE7PHRpdGxlPlI2LSZndDtDNjwvdGl0bGU+JiN4YTs8cGF0aCBkPSJNMjk3LjQ5LC0xNDE3LjM5QzM0Mi41OSwtMTQxNy4zOSAzOTIuMjksLTE0MTcuMzkgNDM1Ljc4LC0xNDE3LjM5IiBzdHJva2UtZGFzaGFycmF5PSI1LDIiIHN0cm9rZT0iIzdmOGM4ZCIgZmlsbD0ibm9uZSIvPiYjeGE7PC9nPiYjeGE7JiN4YTs8ZyBjbGFzcz0ibm9kZSIgaWQ9Im5vZGUxMSI+JiN4YTs8dGl0bGU+Ujc8L3RpdGxlPiYjeGE7PGVsbGlwc2Ugcnk9IjEwMi4zOSIgcng9IjE2Mi44MyIgY3k9Ii0xNjMxLjM5IiBjeD0iNTUzLjkiIHN0cm9rZT0iIzM0OThkYiIgZmlsbD0iI2Q2ZWFmOCIvPiYjeGE7PHBvbHlnb24gcG9pbnRzPSI0NTMuMTYsLTE2NjIuMTkgNDUzLjE2LC0xNjkyLjk5IDY1NC42MywtMTY5Mi45OSA2NTQuNjMsLTE2NjIuMTkgNDUzLjE2LC0xNjYyLjE5IiBzdHJva2U9IiMzNDk4ZGIiIGZpbGw9Im5vbmUiLz4mI3hhOzx0ZXh0IGZvbnQtc2l6ZT0iMTQuMDAiIGZvbnQtd2VpZ2h0PSJib2xkIiBmb250LWZhbWlseT0iQXJpYWwiIHk9Ii0xNjc0LjM5IiB4PSI0NjAuMTYiIHRleHQtYW5jaG9yPSJzdGFydCI+0JjQstCw0L3Qvi3QpNGA0LDQvdC60L7QstGB0LrQsNGPINC+0LHQu9Cw0YHRgtGMPC90ZXh0PiYjeGE7PHBvbHlnb24gcG9pbnRzPSI0NTMuMTYsLTE2MzEuMzkgNDUzLjE2LC0xNjYyLjE5IDY1NC42MywtMTY2Mi4xOSA2NTQuNjMsLTE2MzEuMzkgNDUzLjE2LC0xNjMxLjM5IiBzdHJva2U9IiMzNDk4ZGIiIGZpbGw9Im5vbmUiLz4mI3hhOzx0ZXh0IGZvbnQtc2l6ZT0iMTQuMDAiIGZvbnQtZmFtaWx5PSJBcmlhbCIgeT0iLTE2NDIuNTkiIHg9IjQ4Ny43NSIgdGV4dC1hbmNob3I9InN0YXJ0Ij7Qn9C70L7RidCw0LTRjDogMTMsOTI4INC60LzCsjwvdGV4dD4mI3hhOzxwb2x5Z29uIHBvaW50cz0iNDUzLjE2LC0xNjAwLjU5IDQ1My4xNiwtMTYzMS4zOSA2NTQuNjMsLTE2MzEuMzkgNjU0LjYzLC0xNjAwLjU5IDQ1My4xNiwtMTYwMC41OSIgc3Ryb2tlPSIjMzQ5OGRiIiBmaWxsPSJub25lIi8+JiN4YTs8dGV4dCBmb250LXNpemU9IjE0LjAwIiBmb250LWZhbWlseT0iQXJpYWwiIHk9Ii0xNjExLjc5IiB4PSI0OTUuNTQiIHRleHQtYW5jaG9yPSJzdGFydCI+0J3QsNGB0LXQu9C10L3QuNC1OiAxLjM3TTwvdGV4dD4mI3hhOzxwb2x5Z29uIHBvaW50cz0iNDUzLjE2LC0xNTY5Ljc5IDQ1My4xNiwtMTYwMC41OSA2NTQuNjMsLTE2MDAuNTkgNjU0LjYzLC0xNTY5Ljc5IDQ1My4xNiwtMTU2OS43OSIgc3Ryb2tlPSIjMzQ5OGRiIiBmaWxsPSJub25lIi8+JiN4YTs8dGV4dCBmb250LXNpemU9IjE0LjAwIiBmb250LWZhbWlseT0iQXJpYWwiIHk9Ii0xNTgwLjk5IiB4PSI1MDMuMzIiIHRleHQtYW5jaG9yPSJzdGFydCI+0J7RgdC90L7QstCw0L3QsDogMTkzOTwvdGV4dD4mI3hhOzwvZz4mI3hhOyYjeGE7PGcgY2xhc3M9Im5vZGUiIGlkPSJub2RlMTYiPiYjeGE7PHRpdGxlPkM3PC90aXRsZT4mI3hhOzxwb2x5Z29uIHBvaW50cz0iMTAyNC4wNiwtMTY4NS4zOSA3ODguNzIsLTE2ODUuMzkgNzg4LjcyLC0xNTc3LjM5IDEwMjQuMDYsLTE1NzcuMzkgMTAyNC4wNiwtMTY4NS4zOSIgc3Ryb2tlPSIjMmVjYzcxIiBmaWxsPSIjZDVmNWUzIi8+JiN4YTs8cG9seWdvbiBwb2ludHM9IjgwMy4xMiwtMTY0NS43OSA4MDMuMTIsLTE2NzQuNTkgMTAwOS42NiwtMTY3NC41OSAxMDA5LjY2LC0xNjQ1Ljc5IDgwMy4xMiwtMTY0NS43OSIgc3Ryb2tlPSIjMmVjYzcxIiBmaWxsPSJub25lIi8+JiN4YTs8dGV4dCBmb250LXNpemU9IjE0LjAwIiBmb250LXdlaWdodD0iYm9sZCIgZm9udC1mYW1pbHk9IkFyaWFsIiB5PSItMTY1Ni45OSIgeD0iODQ5LjYxIiB0ZXh0LWFuY2hvcj0ic3RhcnQiPtCY0LLQsNC90L4t0KTRgNCw0L3QutC+0LLRgdC6PC90ZXh0PiYjeGE7PHBvbHlnb24gcG9pbnRzPSI4MDMuMTIsLTE2MTYuOTkgODAzLjEyLC0xNjQ1Ljc5IDEwMDkuNjYsLTE2NDUuNzkgMTAwOS42NiwtMTYxNi45OSA4MDMuMTIsLTE2MTYuOTkiIHN0cm9rZT0iIzJlY2M3MSIgZmlsbD0ibm9uZSIvPiYjeGE7PHRleHQgZm9udC1zaXplPSIxNC4wMCIgZm9udC1mYW1pbHk9IkFyaWFsIiB5PSItMTYyNy4xOSIgeD0iODUxLjE1IiB0ZXh0LWFuY2hvcj0ic3RhcnQiPtCd0LDRgdC10LvQtdC90LjQtTogMjM4SzwvdGV4dD4mI3hhOzxwb2x5Z29uIHBvaW50cz0iODAzLjEyLC0xNTg4LjE5IDgwMy4xMiwtMTYxNi45OSAxMDA5LjY2LC0xNjE2Ljk5IDEwMDkuNjYsLTE1ODguMTkgODAzLjEyLC0xNTg4LjE5IiBzdHJva2U9IiMyZWNjNzEiIGZpbGw9Im5vbmUiLz4mI3hhOzx0ZXh0IGZvbnQtc2l6ZT0iMTQuMDAiIGZvbnQtZmFtaWx5PSJBcmlhbCIgeT0iLTE1OTguMzkiIHg9IjgwOS4xMiIgdGV4dC1hbmNob3I9InN0YXJ0Ij7QmtC+0L7RgNC00LjQvdCw0YLRizogNDguOTLCsE4gMjQuNzHCsEU8L3RleHQ+JiN4YTs8L2c+JiN4YTsmI3hhOzxnIGNsYXNzPSJlZGdlIiBpZD0iZWRnZTciPiYjeGE7PHRpdGxlPlI3LSZndDtDNzwvdGl0bGU+JiN4YTs8cGF0aCBkPSJNNzE3LjA2LC0xNjMxLjM5Qzc0MS4wOCwtMTYzMS4zOSA3NjUuNDIsLTE2MzEuMzkgNzg4LjI4LC0xNjMxLjM5IiBzdHJva2UtZGFzaGFycmF5PSI1LDIiIHN0cm9rZT0iIzdmOGM4ZCIgZmlsbD0ibm9uZSIvPiYjeGE7PC9nPiYjeGE7JiN4YTs8ZyBjbGFzcz0ibm9kZSIgaWQ9Im5vZGUxMiI+JiN4YTs8dGl0bGU+Ujg8L3RpdGxlPiYjeGE7PGVsbGlwc2Ugcnk9IjEwMi4zOSIgcng9IjE0My4wMyIgY3k9Ii0xODk0LjM5IiBjeD0iNTUzLjkiIHN0cm9rZT0iIzM0OThkYiIgZmlsbD0iI2Q2ZWFmOCIvPiYjeGE7PHBvbHlnb24gcG9pbnRzPSI0NjcuMTYsLTE5MjUuMTkgNDY3LjE2LC0xOTU1Ljk5IDY0MC42MywtMTk1NS45OSA2NDAuNjMsLTE5MjUuMTkgNDY3LjE2LC0xOTI1LjE5IiBzdHJva2U9IiMzNDk4ZGIiIGZpbGw9Im5vbmUiLz4mI3hhOzx0ZXh0IGZvbnQtc2l6ZT0iMTQuMDAiIGZvbnQtd2VpZ2h0PSJib2xkIiBmb250LWZhbWlseT0iQXJpYWwiIHk9Ii0xOTM3LjM5IiB4PSI0NzQuMTYiIHRleHQtYW5jaG9yPSJzdGFydCI+0KLQtdGA0L3QvtC/0L7Qu9GM0YHQutCw0Y8g0L7QsdC70LDRgdGC0Yw8L3RleHQ+JiN4YTs8cG9seWdvbiBwb2ludHM9IjQ2Ny4xNiwtMTg5NC4zOSA0NjcuMTYsLTE5MjUuMTkgNjQwLjYzLC0xOTI1LjE5IDY0MC42MywtMTg5NC4zOSA0NjcuMTYsLTE4OTQuMzkiIHN0cm9rZT0iIzM0OThkYiIgZmlsbD0ibm9uZSIvPiYjeGE7PHRleHQgZm9udC1zaXplPSIxNC4wMCIgZm9udC1mYW1pbHk9IkFyaWFsIiB5PSItMTkwNS41OSIgeD0iNDg3Ljc1IiB0ZXh0LWFuY2hvcj0ic3RhcnQiPtCf0LvQvtGJ0LDQtNGMOiAxMyw4MjMg0LrQvMKyPC90ZXh0PiYjeGE7PHBvbHlnb24gcG9pbnRzPSI0NjcuMTYsLTE4NjMuNTkgNDY3LjE2LC0xODk0LjM5IDY0MC42MywtMTg5NC4zOSA2NDAuNjMsLTE4NjMuNTkgNDY3LjE2LC0xODYzLjU5IiBzdHJva2U9IiMzNDk4ZGIiIGZpbGw9Im5vbmUiLz4mI3hhOzx0ZXh0IGZvbnQtc2l6ZT0iMTQuMDAiIGZvbnQtZmFtaWx5PSJBcmlhbCIgeT0iLTE4NzQuNzkiIHg9IjQ5NS41NCIgdGV4dC1hbmNob3I9InN0YXJ0Ij7QndCw0YHQtdC70LXQvdC40LU6IDEuMDRNPC90ZXh0PiYjeGE7PHBvbHlnb24gcG9pbnRzPSI0NjcuMTYsLTE4MzIuNzkgNDY3LjE2LC0xODYzLjU5IDY0MC42MywtMTg2My41OSA2NDAuNjMsLTE4MzIuNzkgNDY3LjE2LC0xODMyLjc5IiBzdHJva2U9IiMzNDk4ZGIiIGZpbGw9Im5vbmUiLz4mI3hhOzx0ZXh0IGZvbnQtc2l6ZT0iMTQuMDAiIGZvbnQtZmFtaWx5PSJBcmlhbCIgeT0iLTE4NDMuOTkiIHg9IjUwMy4zMiIgdGV4dC1hbmNob3I9InN0YXJ0Ij7QntGB0L3QvtCy0LDQvdCwOiAxOTM5PC90ZXh0PiYjeGE7PC9nPiYjeGE7JiN4YTs8ZyBjbGFzcz0ibm9kZSIgaWQ9Im5vZGUxNyI+JiN4YTs8dGl0bGU+Qzg8L3RpdGxlPiYjeGE7PHBvbHlnb24gcG9pbnRzPSIxMDI0LjA2LC0xOTQ4LjM5IDc4OC43MiwtMTk0OC4zOSA3ODguNzIsLTE4NDAuMzkgMTAyNC4wNiwtMTg0MC4zOSAxMDI0LjA2LC0xOTQ4LjM5IiBzdHJva2U9IiMyZWNjNzEiIGZpbGw9IiNkNWY1ZTMiLz4mI3hhOzxwb2x5Z29uIHBvaW50cz0iODAzLjEyLC0xOTA4Ljc5IDgwMy4xMiwtMTkzNy41OSAxMDA5LjY2LC0xOTM3LjU5IDEwMDkuNjYsLTE5MDguNzkgODAzLjEyLC0xOTA4Ljc5IiBzdHJva2U9IiMyZWNjNzEiIGZpbGw9Im5vbmUiLz4mI3hhOzx0ZXh0IGZvbnQtc2l6ZT0iMTQuMDAiIGZvbnQtd2VpZ2h0PSJib2xkIiBmb250LWZhbWlseT0iQXJpYWwiIHk9Ii0xOTE5Ljk5IiB4PSI4NzEuMzkiIHRleHQtYW5jaG9yPSJzdGFydCI+0KLQtdGA0L3QvtC/0L7Qu9GMPC90ZXh0PiYjeGE7PHBvbHlnb24gcG9pbnRzPSI4MDMuMTIsLTE4NzkuOTkgODAzLjEyLC0xOTA4Ljc5IDEwMDkuNjYsLTE5MDguNzkgMTAwOS42NiwtMTg3OS45OSA4MDMuMTIsLTE4NzkuOTkiIHN0cm9rZT0iIzJlY2M3MSIgZmlsbD0ibm9uZSIvPiYjeGE7PHRleHQgZm9udC1zaXplPSIxNC4wMCIgZm9udC1mYW1pbHk9IkFyaWFsIiB5PSItMTg5MC4xOSIgeD0iODUxLjE1IiB0ZXh0LWFuY2hvcj0ic3RhcnQiPtCd0LDRgdC10LvQtdC90LjQtTogMjI1SzwvdGV4dD4mI3hhOzxwb2x5Z29uIHBvaW50cz0iODAzLjEyLC0xODUxLjE5IDgwMy4xMiwtMTg3OS45OSAxMDA5LjY2LC0xODc5Ljk5IDEwMDkuNjYsLTE4NTEuMTkgODAzLjEyLC0xODUxLjE5IiBzdHJva2U9IiMyZWNjNzEiIGZpbGw9Im5vbmUiLz4mI3hhOzx0ZXh0IGZvbnQtc2l6ZT0iMTQuMDAiIGZvbnQtZmFtaWx5PSJBcmlhbCIgeT0iLTE4NjEuMzkiIHg9IjgwOS4xMiIgdGV4dC1hbmNob3I9InN0YXJ0Ij7QmtC+0L7RgNC00LjQvdCw0YLRizogNDkuNTXCsE4gMjUuNTnCsEU8L3RleHQ+JiN4YTs8L2c+JiN4YTsmI3hhOzxnIGNsYXNzPSJlZGdlIiBpZD0iZWRnZTgiPiYjeGE7PHRpdGxlPlI4LSZndDtDODwvdGl0bGU+JiN4YTs8cGF0aCBkPSJNNjk3LjIsLTE4OTQuMzlDNzI3LjQ1LC0xODk0LjM5IDc1OS4wNiwtMTg5NC4zOSA3ODguMjQsLTE4OTQuMzkiIHN0cm9rZS1kYXNoYXJyYXk9IjUsMiIgc3Ryb2tlPSIjN2Y4YzhkIiBmaWxsPSJub25lIi8+JiN4YTs8L2c+JiN4YTsmI3hhOzxnIGNsYXNzPSJub2RlIiBpZD0ibm9kZTEzIj4mI3hhOzx0aXRsZT5SOTwvdGl0bGU+JiN4YTs8ZWxsaXBzZSByeT0iMTAyLjM5IiByeD0iMTI2LjUzIiBjeT0iLTIzMjIuMzkiIGN4PSI1NTMuOSIgc3Ryb2tlPSIjMzQ5OGRiIiBmaWxsPSIjZDZlYWY4Ii8+JiN4YTs8cG9seWdvbiBwb2ludHM9IjQ3OC44MywtMjM1My4xOSA0NzguODMsLTIzODMuOTkgNjI4Ljk2LC0yMzgzLjk5IDYyOC45NiwtMjM1My4xOSA0NzguODMsLTIzNTMuMTkiIHN0cm9rZT0iIzM0OThkYiIgZmlsbD0ibm9uZSIvPiYjeGE7PHRleHQgZm9udC1zaXplPSIxNC4wMCIgZm9udC13ZWlnaHQ9ImJvbGQiIGZvbnQtZmFtaWx5PSJBcmlhbCIgeT0iLTIzNjUuMzkiIHg9IjQ4NS44MyIgdGV4dC1hbmNob3I9InN0YXJ0Ij7QpdC10YDRgdC+0L3RgdC60LDRjyDQvtCx0LvQsNGB0YLRjDwvdGV4dD4mI3hhOzxwb2x5Z29uIHBvaW50cz0iNDc4LjgzLC0yMzIyLjM5IDQ3OC44MywtMjM1My4xOSA2MjguOTYsLTIzNTMuMTkgNjI4Ljk2LC0yMzIyLjM5IDQ3OC44MywtMjMyMi4zOSIgc3Ryb2tlPSIjMzQ5OGRiIiBmaWxsPSJub25lIi8+JiN4YTs8dGV4dCBmb250LXNpemU9IjE0LjAwIiBmb250LWZhbWlseT0iQXJpYWwiIHk9Ii0yMzMzLjU5IiB4PSI0ODcuNzUiIHRleHQtYW5jaG9yPSJzdGFydCI+0J/Qu9C+0YnQsNC00Yw6IDI4LDQ2MSDQutC8wrI8L3RleHQ+JiN4YTs8cG9seWdvbiBwb2ludHM9IjQ3OC44MywtMjI5MS41OSA0NzguODMsLTIzMjIuMzkgNjI4Ljk2LC0yMzIyLjM5IDYyOC45NiwtMjI5MS41OSA0NzguODMsLTIyOTEuNTkiIHN0cm9rZT0iIzM0OThkYiIgZmlsbD0ibm9uZSIvPiYjeGE7PHRleHQgZm9udC1zaXplPSIxNC4wMCIgZm9udC1mYW1pbHk9IkFyaWFsIiB5PSItMjMwMi43OSIgeD0iNDk1LjU0IiB0ZXh0LWFuY2hvcj0ic3RhcnQiPtCd0LDRgdC10LvQtdC90LjQtTogMS4wM008L3RleHQ+JiN4YTs8cG9seWdvbiBwb2ludHM9IjQ3OC44MywtMjI2MC43OSA0NzguODMsLTIyOTEuNTkgNjI4Ljk2LC0yMjkxLjU5IDYyOC45NiwtMjI2MC43OSA0NzguODMsLTIyNjAuNzkiIHN0cm9rZT0iIzM0OThkYiIgZmlsbD0ibm9uZSIvPiYjeGE7PHRleHQgZm9udC1zaXplPSIxNC4wMCIgZm9udC1mYW1pbHk9IkFyaWFsIiB5PSItMjI3MS45OSIgeD0iNTAzLjMyIiB0ZXh0LWFuY2hvcj0ic3RhcnQiPtCe0YHQvdC+0LLQsNC90LA6IDE5NDQ8L3RleHQ+JiN4YTs8L2c+JiN4YTsmI3hhOzxnIGNsYXNzPSJub2RlIiBpZD0ibm9kZTE4Ij4mI3hhOzx0aXRsZT5DOTwvdGl0bGU+JiN4YTs8cG9seWdvbiBwb2ludHM9IjY3MS41NiwtMjE2Mi4zOSA0MzYuMjMsLTIxNjIuMzkgNDM2LjIzLC0yMDU0LjM5IDY3MS41NiwtMjA1NC4zOSA2NzEuNTYsLTIxNjIuMzkiIHN0cm9rZT0iIzJlY2M3MSIgZmlsbD0iI2Q1ZjVlMyIvPiYjeGE7PHBvbHlnb24gcG9pbnRzPSI0NTAuNjMsLTIxMjIuNzkgNDUwLjYzLC0yMTUxLjU5IDY1Ny4xNiwtMjE1MS41OSA2NTcuMTYsLTIxMjIuNzkgNDUwLjYzLC0yMTIyLjc5IiBzdHJva2U9IiMyZWNjNzEiIGZpbGw9Im5vbmUiLz4mI3hhOzx0ZXh0IGZvbnQtc2l6ZT0iMTQuMDAiIGZvbnQtd2VpZ2h0PSJib2xkIiBmb250LWZhbWlseT0iQXJpYWwiIHk9Ii0yMTMzLjk5IiB4PSI1MzAuNTYiIHRleHQtYW5jaG9yPSJzdGFydCI+0KXQtdGA0YHQvtC9PC90ZXh0PiYjeGE7PHBvbHlnb24gcG9pbnRzPSI0NTAuNjMsLTIwOTMuOTkgNDUwLjYzLC0yMTIyLjc5IDY1Ny4xNiwtMjEyMi43OSA2NTcuMTYsLTIwOTMuOTkgNDUwLjYzLC0yMDkzLjk5IiBzdHJva2U9IiMyZWNjNzEiIGZpbGw9Im5vbmUiLz4mI3hhOzx0ZXh0IGZvbnQtc2l6ZT0iMTQuMDAiIGZvbnQtZmFtaWx5PSJBcmlhbCIgeT0iLTIxMDQuMTkiIHg9IjQ5OC42NSIgdGV4dC1hbmNob3I9InN0YXJ0Ij7QndCw0YHQtdC70LXQvdC40LU6IDI4OUs8L3RleHQ+JiN4YTs8cG9seWdvbiBwb2ludHM9IjQ1MC42MywtMjA2NS4xOSA0NTAuNjMsLTIwOTMuOTkgNjU3LjE2LC0yMDkzLjk5IDY1Ny4xNiwtMjA2NS4xOSA0NTAuNjMsLTIwNjUuMTkiIHN0cm9rZT0iIzJlY2M3MSIgZmlsbD0ibm9uZSIvPiYjeGE7PHRleHQgZm9udC1zaXplPSIxNC4wMCIgZm9udC1mYW1pbHk9IkFyaWFsIiB5PSItMjA3NS4zOSIgeD0iNDU2LjYzIiB0ZXh0LWFuY2hvcj0ic3RhcnQiPtCa0L7QvtGA0LTQuNC90LDRgtGLOiA0Ni42NMKwTiAzMi42MsKwRTwvdGV4dD4mI3hhOzwvZz4mI3hhOyYjeGE7PGcgY2xhc3M9ImVkZ2UiIGlkPSJlZGdlOSI+JiN4YTs8dGl0bGU+UjktJmd0O0M5PC90aXRsZT4mI3hhOzxwYXRoIGQ9Ik01NTMuOSwtMjIxOS43OUM1NTMuOSwtMjIwMC43NyA1NTMuOSwtMjE4MS43NSA1NTMuOSwtMjE2Mi43MiIgc3Ryb2tlLWRhc2hhcnJheT0iNSwyIiBzdHJva2U9IiM3ZjhjOGQiIGZpbGw9Im5vbmUiLz4mI3hhOzwvZz4mI3hhOzwvZz4mI3hhOzwvc3ZnPg==;" vertex="1" parent="1">
          <mxGeometry x="552" y="-1100" width="1202" height="2784.57" as="geometry" />
        </mxCell>
      </root>
    </mxGraphModel>
  </diagram>
  <diagram id="5PmWD-uDEt1ZgJyMaMGZ" name="Страница — 3">
    <mxGraphModel dx="1665" dy="777" grid="1" gridSize="10" guides="1" tooltips="1" connect="1" arrows="1" fold="1" page="1" pageScale="1" pageWidth="827" pageHeight="1169" math="0" shadow="0">
      <root>
        <mxCell id="0" />
        <mxCell id="1" parent="0" />
        <mxCell id="HM1T3wjk6effy5bEvqd3-1" value="" style="shape=image;verticalLabelPosition=bottom;labelBackgroundColor=default;verticalAlign=top;aspect=fixed;imageAspect=0;editableCssRules=.*;image=data:image/svg+xml,PHN2ZyB4bWxuczp4bGluaz0iaHR0cDovL3d3dy53My5vcmcvMTk5OS94bGluayIgeG1sbnM9Imh0dHA6Ly93d3cudzMub3JnLzIwMDAvc3ZnIiB2aWV3Qm94PSIxMy4xNDk5OTk2MTg1MzAyNzMgMTMuMTQ5OTYzMzc4OTA2MjUgMTE0Ni41IDU1Ny43MDAwMTIyMDcwMzEyIiBoZWlnaHQ9IjU3MS43OTkxNjk4MTkwMDY4IiB3aWR0aD0iMTE2MC45NTAwMTcyNjUxOTMzIj4mI3hhOzxnIHRyYW5zZm9ybT0ic2NhbGUoMSAxKSByb3RhdGUoMCkgdHJhbnNsYXRlKDE4LjQgNTY1LjYpIiBjbGFzcz0iZ3JhcGgiIGlkPSJncmFwaDAiPiYjeGE7PHRpdGxlPlVrcmFpbmVSb2FkczwvdGl0bGU+JiN4YTs8cG9seWdvbiBwb2ludHM9Ii00LDQgLTQsLTU1MS4yIDExNDAsLTU1MS4yIDExNDAsNCAtNCw0IiBzdHJva2U9Im5vbmUiIGZpbGw9IndoaXRlIi8+JiN4YTsmI3hhOzxnIGNsYXNzPSJub2RlIiBpZD0ibm9kZTEiPiYjeGE7PHRpdGxlPtCa0LjQtdCyPC90aXRsZT4mI3hhOzxwYXRoIGQ9Ik02MDMsLTU0Ny4yQzYwMywtNTQ3LjIgNDY4LjYsLTU0Ny4yIDQ2OC42LC01NDcuMiA0NjIuNiwtNTQ3LjIgNDU2LjYsLTU0MS4yIDQ1Ni42LC01MzUuMiA0NTYuNiwtNTM1LjIgNDU2LjYsLTQ3Mi44IDQ1Ni42LC00NzIuOCA0NTYuNiwtNDY2LjggNDYyLjYsLTQ2MC44IDQ2OC42LC00NjAuOCA0NjguNiwtNDYwLjggNjAzLC00NjAuOCA2MDMsLTQ2MC44IDYwOSwtNDYwLjggNjE1LC00NjYuOCA2MTUsLTQ3Mi44IDYxNSwtNDcyLjggNjE1LC01MzUuMiA2MTUsLTUzNS4yIDYxNSwtNTQxLjIgNjA5LC01NDcuMiA2MDMsLTU0Ny4yIiBzdHJva2U9IiMxOTc2ZDIiIGZpbGw9IiNlM2YyZmQiLz4mI3hhOzx0ZXh0IGZvbnQtc2l6ZT0iMTAuMDAiIGZvbnQtd2VpZ2h0PSJib2xkIiBmb250LWZhbWlseT0iVGltZXMsc2VyaWYiIHk9Ii01MjIiIHg9IjUyNS44IiB0ZXh0LWFuY2hvcj0ic3RhcnQiPtCa0LjQtdCyPC90ZXh0PiYjeGE7PHRleHQgZm9udC1zaXplPSIxMC4wMCIgZm9udC1mYW1pbHk9IlRpbWVzLHNlcmlmIiB5PSItNTAxIiB4PSI1MTguMyIgdGV4dC1hbmNob3I9InN0YXJ0Ij4yLjk3INC80LvQvTwvdGV4dD4mI3hhOzxwb2x5Z29uIHBvaW50cz0iNTAzLjgsLTQ3NiA1MDMuOCwtNDkyIDU2Ny44LC00OTIgNTY3LjgsLTQ3NiA1MDMuOCwtNDc2IiBzdHJva2U9Im5vbmUiIGZpbGw9IiNiYmRlZmIiLz4mI3hhOzx0ZXh0IGZvbnQtc2l6ZT0iMTAuMDAiIGZvbnQtZmFtaWx5PSJUaW1lcyxzZXJpZiIgeT0iLTQ4MSIgeD0iNTA1LjgiIHRleHQtYW5jaG9yPSJzdGFydCI+0JrQuNC10LLRgdC60LDRjyDQvtCx0LsuPC90ZXh0PiYjeGE7PC9nPiYjeGE7JiN4YTs8ZyBjbGFzcz0ibm9kZSIgaWQ9Im5vZGUyIj4mI3hhOzx0aXRsZT7Qm9GM0LLQvtCyPC90aXRsZT4mI3hhOzxwYXRoIGQ9Ik0zNDUsLTM4NEMzNDUsLTM4NCAyMTAuNiwtMzg0IDIxMC42LC0zODQgMjA0LjYsLTM4NCAxOTguNiwtMzc4IDE5OC42LC0zNzIgMTk4LjYsLTM3MiAxOTguNiwtMzA5LjYgMTk4LjYsLTMwOS42IDE5OC42LC0zMDMuNiAyMDQuNiwtMjk3LjYgMjEwLjYsLTI5Ny42IDIxMC42LC0yOTcuNiAzNDUsLTI5Ny42IDM0NSwtMjk3LjYgMzUxLC0yOTcuNiAzNTcsLTMwMy42IDM1NywtMzA5LjYgMzU3LC0zMDkuNiAzNTcsLTM3MiAzNTcsLTM3MiAzNTcsLTM3OCAzNTEsLTM4NCAzNDUsLTM4NCIgc3Ryb2tlPSIjMTk3NmQyIiBmaWxsPSIjZTNmMmZkIi8+JiN4YTs8dGV4dCBmb250LXNpemU9IjEwLjAwIiBmb250LXdlaWdodD0iYm9sZCIgZm9udC1mYW1pbHk9IlRpbWVzLHNlcmlmIiB5PSItMzU4LjgiIHg9IjI2NS4zIiB0ZXh0LWFuY2hvcj0ic3RhcnQiPtCb0YzQstC+0LI8L3RleHQ+JiN4YTs8dGV4dCBmb250LXNpemU9IjEwLjAwIiBmb250LWZhbWlseT0iVGltZXMsc2VyaWYiIHk9Ii0zMzcuOCIgeD0iMjYxLjU1IiB0ZXh0LWFuY2hvcj0ic3RhcnQiPjcyNCDRgtGL0YE8L3RleHQ+JiN4YTs8cG9seWdvbiBwb2ludHM9IjI0My4zLC0zMTIuOCAyNDMuMywtMzI4LjggMzEyLjMsLTMyOC44IDMxMi4zLC0zMTIuOCAyNDMuMywtMzEyLjgiIHN0cm9rZT0ibm9uZSIgZmlsbD0iI2JiZGVmYiIvPiYjeGE7PHRleHQgZm9udC1zaXplPSIxMC4wMCIgZm9udC1mYW1pbHk9IlRpbWVzLHNlcmlmIiB5PSItMzE3LjgiIHg9IjI0NS4zIiB0ZXh0LWFuY2hvcj0ic3RhcnQiPtCb0YzQstC+0LLRgdC60LDRjyDQvtCx0LsuPC90ZXh0PiYjeGE7PC9nPiYjeGE7JiN4YTs8ZyBjbGFzcz0iZWRnZSIgaWQ9ImVkZ2UxIj4mI3hhOzx0aXRsZT7QmtC40LXQsi0mZ3Q70JvRjNCy0L7QsjwvdGl0bGU+JiN4YTs8cGF0aCBkPSJNNDU2LjI3LC00ODQuNDZDNDE3Ljg3LC00NzIuNzMgMzcyLjc4LC00NTQuNTkgMzM4LjMxLC00MjcuOCAzMjYuOTUsLTQxOC45NyAzMTYuODUsLTQwNy40MyAzMDguMzEsLTM5NS42OCIgc3Ryb2tlLXdpZHRoPSIyLjUiIHN0cm9rZT0iIzQyNDI0MiIgZmlsbD0ibm9uZSIvPiYjeGE7PHBvbHlnb24gcG9pbnRzPSIzMTEuMjgsLTM5My44MyAzMDIuNzUsLTM4Ny41NSAzMDUuNTEsLTM5Ny43OCAzMTEuMjgsLTM5My44MyIgc3Ryb2tlLXdpZHRoPSIyLjUiIHN0cm9rZT0iIzQyNDI0MiIgZmlsbD0iIzQyNDI0MiIvPiYjeGE7PHRleHQgZmlsbD0iIzYxNjE2MSIgZm9udC1zaXplPSI5LjAwIiBmb250LWZhbWlseT0iVGltZXMsc2VyaWYiIHk9Ii00MTkuNyIgeD0iMzY2LjA1IiB0ZXh0LWFuY2hvcj0ibWlkZGxlIj4gNTQwINC60LwgKDYuNSDRhykgPC90ZXh0PiYjeGE7PHRleHQgZmlsbD0iIzYxNjE2MSIgZm9udC1zaXplPSI5LjAwIiBmb250LWZhbWlseT0iVGltZXMsc2VyaWYiIHk9Ii00NTEuNjIiIHg9IjMzOC45NCIgdGV4dC1hbmNob3I9Im1pZGRsZSI+0JDQstGC0L7QvNCw0LPQuNGB0YLRgNCw0LvRjDwvdGV4dD4mI3hhOzwvZz4mI3hhOyYjeGE7JiN4YTs8ZyBjbGFzcz0ibm9kZSIgaWQ9Im5vZGUzIj4mI3hhOzx0aXRsZT7QntC00LXRgdGB0LA8L3RpdGxlPiYjeGE7PHBhdGggZD0iTTYwMywtMzg0QzYwMywtMzg0IDQ2OC42LC0zODQgNDY4LjYsLTM4NCA0NjIuNiwtMzg0IDQ1Ni42LC0zNzggNDU2LjYsLTM3MiA0NTYuNiwtMzcyIDQ1Ni42LC0zMDkuNiA0NTYuNiwtMzA5LjYgNDU2LjYsLTMwMy42IDQ2Mi42LC0yOTcuNiA0NjguNiwtMjk3LjYgNDY4LjYsLTI5Ny42IDYwMywtMjk3LjYgNjAzLC0yOTcuNiA2MDksLTI5Ny42IDYxNSwtMzAzLjYgNjE1LC0zMDkuNiA2MTUsLTMwOS42IDYxNSwtMzcyIDYxNSwtMzcyIDYxNSwtMzc4IDYwOSwtMzg0IDYwMywtMzg0IiBzdHJva2U9IiMxOTc2ZDIiIGZpbGw9IiNlM2YyZmQiLz4mI3hhOzx0ZXh0IGZvbnQtc2l6ZT0iMTAuMDAiIGZvbnQtd2VpZ2h0PSJib2xkIiBmb250LWZhbWlseT0iVGltZXMsc2VyaWYiIHk9Ii0zNTguOCIgeD0iNTIwLjgiIHRleHQtYW5jaG9yPSJzdGFydCI+0J7QtNC10YHRgdCwPC90ZXh0PiYjeGE7PHRleHQgZm9udC1zaXplPSIxMC4wMCIgZm9udC1mYW1pbHk9IlRpbWVzLHNlcmlmIiB5PSItMzM3LjgiIHg9IjUxOC4zIiB0ZXh0LWFuY2hvcj0ic3RhcnQiPjEuMDIg0LzQu9C9PC90ZXh0PiYjeGE7PHBvbHlnb24gcG9pbnRzPSI1MDMuOCwtMzEyLjggNTAzLjgsLTMyOC44IDU2Ny44LC0zMjguOCA1NjcuOCwtMzEyLjggNTAzLjgsLTMxMi44IiBzdHJva2U9Im5vbmUiIGZpbGw9IiNiYmRlZmIiLz4mI3hhOzx0ZXh0IGZvbnQtc2l6ZT0iMTAuMDAiIGZvbnQtZmFtaWx5PSJUaW1lcyxzZXJpZiIgeT0iLTMxNy44IiB4PSI1MDUuOCIgdGV4dC1hbmNob3I9InN0YXJ0Ij7QntC00LXRgdGB0LrQsNGPINC+0LHQuy48L3RleHQ+JiN4YTs8L2c+JiN4YTsmI3hhOzxnIGNsYXNzPSJlZGdlIiBpZD0iZWRnZTIiPiYjeGE7PHRpdGxlPtCa0LjQtdCyLSZndDvQntC00LXRgdGB0LA8L3RpdGxlPiYjeGE7PHBhdGggZD0iTTUzNS44LC00NjAuNjVDNTM1LjgsLTQ0MS41NSA1MzUuOCwtNDE4LjcyIDUzNS44LC0zOTguMTkiIHN0cm9rZS13aWR0aD0iMi41IiBzdHJva2U9IiM0MjQyNDIiIGZpbGw9Im5vbmUiLz4mI3hhOzxwb2x5Z29uIHBvaW50cz0iNTM5LjMsLTM5OC4yMSA1MzUuOCwtMzg4LjIxIDUzMi4zLC0zOTguMjEgNTM5LjMsLTM5OC4yMSIgc3Ryb2tlLXdpZHRoPSIyLjUiIHN0cm9rZT0iIzQyNDI0MiIgZmlsbD0iIzQyNDI0MiIvPiYjeGE7PHRleHQgZmlsbD0iIzYxNjE2MSIgZm9udC1zaXplPSI5LjAwIiBmb250LWZhbWlseT0iVGltZXMsc2VyaWYiIHk9Ii00MTkuNyIgeD0iNTYzLjU1IiB0ZXh0LWFuY2hvcj0ibWlkZGxlIj4gNDgwINC60LwgKDYuMCDRhykgPC90ZXh0PiYjeGE7PHRleHQgZmlsbD0iIzYxNjE2MSIgZm9udC1zaXplPSI5LjAwIiBmb250LWZhbWlseT0iVGltZXMsc2VyaWYiIHk9Ii00MjUuMTQiIHg9IjUwNC4zIiB0ZXh0LWFuY2hvcj0ibWlkZGxlIj7QkNCy0YLQvtC80LDQs9C40YHRgtGA0LDQu9GMPC90ZXh0PiYjeGE7PC9nPiYjeGE7JiN4YTs8ZyBjbGFzcz0ibm9kZSIgaWQ9Im5vZGU0Ij4mI3hhOzx0aXRsZT7QpdCw0YDRjNC60L7QsjwvdGl0bGU+JiN4YTs8cGF0aCBkPSJNODYxLC0zODRDODYxLC0zODQgNzI2LjYsLTM4NCA3MjYuNiwtMzg0IDcyMC42LC0zODQgNzE0LjYsLTM3OCA3MTQuNiwtMzcyIDcxNC42LC0zNzIgNzE0LjYsLTMwOS42IDcxNC42LC0zMDkuNiA3MTQuNiwtMzAzLjYgNzIwLjYsLTI5Ny42IDcyNi42LC0yOTcuNiA3MjYuNiwtMjk3LjYgODYxLC0yOTcuNiA4NjEsLTI5Ny42IDg2NywtMjk3LjYgODczLC0zMDMuNiA4NzMsLTMwOS42IDg3MywtMzA5LjYgODczLC0zNzIgODczLC0zNzIgODczLC0zNzggODY3LC0zODQgODYxLC0zODQiIHN0cm9rZT0iIzE5NzZkMiIgZmlsbD0iI2UzZjJmZCIvPiYjeGE7PHRleHQgZm9udC1zaXplPSIxMC4wMCIgZm9udC13ZWlnaHQ9ImJvbGQiIGZvbnQtZmFtaWx5PSJUaW1lcyxzZXJpZiIgeT0iLTM1OC44IiB4PSI3NzYuMyIgdGV4dC1hbmNob3I9InN0YXJ0Ij7QpdCw0YDRjNC60L7QsjwvdGV4dD4mI3hhOzx0ZXh0IGZvbnQtc2l6ZT0iMTAuMDAiIGZvbnQtZmFtaWx5PSJUaW1lcyxzZXJpZiIgeT0iLTMzNy44IiB4PSI3NzYuMyIgdGV4dC1hbmNob3I9InN0YXJ0Ij4xLjQzINC80LvQvTwvdGV4dD4mI3hhOzxwb2x5Z29uIHBvaW50cz0iNzU0LjMsLTMxMi44IDc1NC4zLC0zMjguOCA4MzMuMywtMzI4LjggODMzLjMsLTMxMi44IDc1NC4zLC0zMTIuOCIgc3Ryb2tlPSJub25lIiBmaWxsPSIjYmJkZWZiIi8+JiN4YTs8dGV4dCBmb250LXNpemU9IjEwLjAwIiBmb250LWZhbWlseT0iVGltZXMsc2VyaWYiIHk9Ii0zMTcuOCIgeD0iNzU2LjMiIHRleHQtYW5jaG9yPSJzdGFydCI+0KXQsNGA0YzQutC+0LLRgdC60LDRjyDQvtCx0LsuPC90ZXh0PiYjeGE7PC9nPiYjeGE7JiN4YTs8ZyBjbGFzcz0iZWRnZSIgaWQ9ImVkZ2UzIj4mI3hhOzx0aXRsZT7QmtC40LXQsi0mZ3Q70KXQsNGA0YzQutC+0LI8L3RpdGxlPiYjeGE7PHBhdGggZD0iTTYwMy45MiwtNDYwLjQ0QzYzNy44NywtNDM5LjIyIDY3OS4xMiwtNDEzLjQ1IDcxNC40OCwtMzkxLjM2IiBzdHJva2Utd2lkdGg9IjIuNSIgc3Ryb2tlPSIjNDI0MjQyIiBmaWxsPSJub25lIi8+JiN4YTs8cG9seWdvbiBwb2ludHM9IjcxNS45MSwtMzk0LjYgNzIyLjUzLC0zODYuMzMgNzEyLjIsLTM4OC42NiA3MTUuOTEsLTM5NC42IiBzdHJva2Utd2lkdGg9IjIuNSIgc3Ryb2tlPSIjNDI0MjQyIiBmaWxsPSIjNDI0MjQyIi8+JiN4YTs8dGV4dCBmaWxsPSIjNjE2MTYxIiBmb250LXNpemU9IjkuMDAiIGZvbnQtZmFtaWx5PSJUaW1lcyxzZXJpZiIgeT0iLTQxOS43IiB4PSI3MDAuMjgiIHRleHQtYW5jaG9yPSJtaWRkbGUiPiA0ODAg0LrQvCAoNS41INGHKSA8L3RleHQ+JiN4YTs8dGV4dCBmaWxsPSIjNjE2MTYxIiBmb250LXNpemU9IjkuMDAiIGZvbnQtZmFtaWx5PSJUaW1lcyxzZXJpZiIgeT0iLTQyNS4wNCIgeD0iNjMzLjQiIHRleHQtYW5jaG9yPSJtaWRkbGUiPtCQ0LLRgtC+0LzQsNCz0LjRgdGC0YDQsNC70Yw8L3RleHQ+JiN4YTs8L2c+JiN4YTsmI3hhOzxnIGNsYXNzPSJub2RlIiBpZD0ibm9kZTUiPiYjeGE7PHRpdGxlPtCU0L3QtdC/0YA8L3RpdGxlPiYjeGE7PHBhdGggZD0iTTExMjQsLTM4NEMxMTI0LC0zODQgOTg5LjYsLTM4NCA5ODkuNiwtMzg0IDk4My42LC0zODQgOTc3LjYsLTM3OCA5NzcuNiwtMzcyIDk3Ny42LC0zNzIgOTc3LjYsLTMwOS42IDk3Ny42LC0zMDkuNiA5NzcuNiwtMzAzLjYgOTgzLjYsLTI5Ny42IDk4OS42LC0yOTcuNiA5ODkuNiwtMjk3LjYgMTEyNCwtMjk3LjYgMTEyNCwtMjk3LjYgMTEzMCwtMjk3LjYgMTEzNiwtMzAzLjYgMTEzNiwtMzA5LjYgMTEzNiwtMzA5LjYgMTEzNiwtMzcyIDExMzYsLTM3MiAxMTM2LC0zNzggMTEzMCwtMzg0IDExMjQsLTM4NCIgc3Ryb2tlPSIjMTk3NmQyIiBmaWxsPSIjZTNmMmZkIi8+JiN4YTs8dGV4dCBmb250LXNpemU9IjEwLjAwIiBmb250LXdlaWdodD0iYm9sZCIgZm9udC1mYW1pbHk9IlRpbWVzLHNlcmlmIiB5PSItMzU4LjgiIHg9IjEwNDQuMyIgdGV4dC1hbmNob3I9InN0YXJ0Ij7QlNC90LXQv9GAPC90ZXh0PiYjeGE7PHRleHQgZm9udC1zaXplPSIxMC4wMCIgZm9udC1mYW1pbHk9IlRpbWVzLHNlcmlmIiB5PSItMzM3LjgiIHg9IjEwNDAuNTUiIHRleHQtYW5jaG9yPSJzdGFydCI+OTg0INGC0YvRgTwvdGV4dD4mI3hhOzxwb2x5Z29uIHBvaW50cz0iMTAwNC44LC0zMTIuOCAxMDA0LjgsLTMyOC44IDExMDguOCwtMzI4LjggMTEwOC44LC0zMTIuOCAxMDA0LjgsLTMxMi44IiBzdHJva2U9Im5vbmUiIGZpbGw9IiNiYmRlZmIiLz4mI3hhOzx0ZXh0IGZvbnQtc2l6ZT0iMTAuMDAiIGZvbnQtZmFtaWx5PSJUaW1lcyxzZXJpZiIgeT0iLTMxNy44IiB4PSIxMDA2LjgiIHRleHQtYW5jaG9yPSJzdGFydCI+0JTQvdC10L/RgNC+0L/QtdGC0YDQvtCy0YHQutCw0Y8g0L7QsdC7LjwvdGV4dD4mI3hhOzwvZz4mI3hhOyYjeGE7PGcgY2xhc3M9ImVkZ2UiIGlkPSJlZGdlNCI+JiN4YTs8dGl0bGU+0JrQuNC10LItJmd0O9CU0L3QtdC/0YA8L3RpdGxlPiYjeGE7PHBhdGggZD0iTTYxNS4yNSwtNDY5Ljc1QzYyMy40OSwtNDY2LjYgNjMxLjc5LC00NjMuNTYgNjM5LjgsLTQ2MC44IDY5OS41NSwtNDQwLjIyIDg2MC4yOSwtMzk1LjQ1IDk2My44NSwtMzY3LjA3IiBzdHJva2Utd2lkdGg9IjIuNSIgc3Ryb2tlPSIjNDI0MjQyIiBmaWxsPSJub25lIi8+JiN4YTs8cG9seWdvbiBwb2ludHM9Ijk2NC43NSwtMzcwLjQ1IDk3My40NywtMzY0LjQ0IDk2Mi45LC0zNjMuNyA5NjQuNzUsLTM3MC40NSIgc3Ryb2tlLXdpZHRoPSIyLjUiIHN0cm9rZT0iIzQyNDI0MiIgZmlsbD0iIzQyNDI0MiIvPiYjeGE7PHRleHQgZmlsbD0iIzYxNjE2MSIgZm9udC1zaXplPSI5LjAwIiBmb250LWZhbWlseT0iVGltZXMsc2VyaWYiIHk9Ii00MTkuNyIgeD0iODA4Ljc3IiB0ZXh0LWFuY2hvcj0ibWlkZGxlIj4gNDgwINC60LwgKDUuNSDRhykgPC90ZXh0PiYjeGE7PHRleHQgZmlsbD0iIzYxNjE2MSIgZm9udC1zaXplPSI5LjAwIiBmb250LWZhbWlseT0iVGltZXMsc2VyaWYiIHk9Ii00MDguNzciIHg9Ijc1My44NyIgdGV4dC1hbmNob3I9Im1pZGRsZSI+0JDQstGC0L7QvNCw0LPQuNGB0YLRgNCw0LvRjDwvdGV4dD4mI3hhOzwvZz4mI3hhOyYjeGE7JiN4YTs8ZyBjbGFzcz0ibm9kZSIgaWQ9Im5vZGU2Ij4mI3hhOzx0aXRsZT7Qo9C20LPQvtGA0L7QtDwvdGl0bGU+JiN4YTs8cGF0aCBkPSJNMTE3LjYsLTIyMC44QzExNy42LC0yMjAuOCAxMiwtMjIwLjggMTIsLTIyMC44IDYsLTIyMC44IDAsLTIxNC44IDAsLTIwOC44IDAsLTIwOC44IDAsLTE2MC44IDAsLTE2MC44IDAsLTE1NC44IDYsLTE0OC44IDEyLC0xNDguOCAxMiwtMTQ4LjggMTE3LjYsLTE0OC44IDExNy42LC0xNDguOCAxMjMuNiwtMTQ4LjggMTI5LjYsLTE1NC44IDEyOS42LC0xNjAuOCAxMjkuNiwtMTYwLjggMTI5LjYsLTIwOC44IDEyOS42LC0yMDguOCAxMjkuNiwtMjE0LjggMTIzLjYsLTIyMC44IDExNy42LC0yMjAuOCIgc3Ryb2tlPSIjMTk3NmQyIiBmaWxsPSIjZTNmMmZkIi8+JiN4YTs8dGV4dCBmb250LXNpemU9IjEwLjAwIiBmb250LWZhbWlseT0iVGltZXMsc2VyaWYiIHk9Ii0xODcuOCIgeD0iNjQuOCIgdGV4dC1hbmNob3I9Im1pZGRsZSI+0KPQttCz0L7RgNC+0LQ8L3RleHQ+JiN4YTs8dGV4dCBmb250LXNpemU9IjEwLjAwIiBmb250LWZhbWlseT0iVGltZXMsc2VyaWYiIHk9Ii0xNzUuOCIgeD0iNjQuOCIgdGV4dC1hbmNob3I9Im1pZGRsZSI+MTE1INGC0YvRgTwvdGV4dD4mI3hhOzwvZz4mI3hhOyYjeGE7PGcgY2xhc3M9ImVkZ2UiIGlkPSJlZGdlNSI+JiN4YTs8dGl0bGU+0JvRjNCy0L7Qsi0mZ3Q70KPQttCz0L7RgNC+0LQ8L3RpdGxlPiYjeGE7PHBhdGggZD0iTTIxOC43NSwtMjk3LjExQzE4OS40OSwtMjc1Ljk1IDE1NC4yMywtMjUwLjQ2IDEyNC44NCwtMjI5LjIxIiBzdHJva2Utd2lkdGg9IjIuNSIgc3Ryb2tlPSIjNDI0MjQyIiBmaWxsPSJub25lIi8+JiN4YTs8cG9seWdvbiBwb2ludHM9IjEyNy4xMSwtMjI2LjUzIDExNi45NSwtMjIzLjUxIDEyMy4wMSwtMjMyLjIgMTI3LjExLC0yMjYuNTMiIHN0cm9rZS13aWR0aD0iMi41IiBzdHJva2U9IiM0MjQyNDIiIGZpbGw9IiM0MjQyNDIiLz4mI3hhOzx0ZXh0IGZpbGw9IiM2MTYxNjEiIGZvbnQtc2l6ZT0iOS4wMCIgZm9udC1mYW1pbHk9IlRpbWVzLHNlcmlmIiB5PSItMjU2LjUiIHg9IjE5OS4wNSIgdGV4dC1hbmNob3I9Im1pZGRsZSI+IDEyMCDQutC8ICgyLjAg0YcpIDwvdGV4dD4mI3hhOzx0ZXh0IGZpbGw9IiM2MTYxNjEiIGZvbnQtc2l6ZT0iOS4wMCIgZm9udC1mYW1pbHk9IlRpbWVzLHNlcmlmIiB5PSItMjYxLjc5IiB4PSIxNDUuOTIiIHRleHQtYW5jaG9yPSJtaWRkbGUiPtCe0LHQu9Cw0YHRgtC90LDRjzwvdGV4dD4mI3hhOzwvZz4mI3hhOyYjeGE7PGcgY2xhc3M9Im5vZGUiIGlkPSJub2RlNyI+JiN4YTs8dGl0bGU+0JjQstCw0L3Qvl/QpNGA0LDQvdC60L7QstGB0Lo8L3RpdGxlPiYjeGE7PHBhdGggZD0iTTM1MS42LC0yMjAuOEMzNTEuNiwtMjIwLjggMjQ2LC0yMjAuOCAyNDYsLTIyMC44IDI0MCwtMjIwLjggMjM0LC0yMTQuOCAyMzQsLTIwOC44IDIzNCwtMjA4LjggMjM0LC0xNjAuOCAyMzQsLTE2MC44IDIzNCwtMTU0LjggMjQwLC0xNDguOCAyNDYsLTE0OC44IDI0NiwtMTQ4LjggMzUxLjYsLTE0OC44IDM1MS42LC0xNDguOCAzNTcuNiwtMTQ4LjggMzYzLjYsLTE1NC44IDM2My42LC0xNjAuOCAzNjMuNiwtMTYwLjggMzYzLjYsLTIwOC44IDM2My42LC0yMDguOCAzNjMuNiwtMjE0LjggMzU3LjYsLTIyMC44IDM1MS42LC0yMjAuOCIgc3Ryb2tlPSIjMTk3NmQyIiBmaWxsPSIjZTNmMmZkIi8+JiN4YTs8dGV4dCBmb250LXNpemU9IjEwLjAwIiBmb250LWZhbWlseT0iVGltZXMsc2VyaWYiIHk9Ii0xODcuOCIgeD0iMjk4LjgiIHRleHQtYW5jaG9yPSJtaWRkbGUiPtCY0LLQsNC90L4t0KTRgNCw0L3QutC+0LLRgdC6PC90ZXh0PiYjeGE7PHRleHQgZm9udC1zaXplPSIxMC4wMCIgZm9udC1mYW1pbHk9IlRpbWVzLHNlcmlmIiB5PSItMTc1LjgiIHg9IjI5OC44IiB0ZXh0LWFuY2hvcj0ibWlkZGxlIj4yMzgg0YLRi9GBPC90ZXh0PiYjeGE7PC9nPiYjeGE7JiN4YTs8ZyBjbGFzcz0iZWRnZSIgaWQ9ImVkZ2U2Ij4mI3hhOzx0aXRsZT7Qm9GM0LLQvtCyLSZndDvQmNCy0LDQvdC+X9Ck0YDQsNC90LrQvtCy0YHQujwvdGl0bGU+JiN4YTs8cGF0aCBkPSJNMjgzLjU5LC0yOTcuMzFDMjg2LjI1LC0yNzcuODUgMjg5LjQxLC0yNTQuNjkgMjkyLjE2LC0yMzQuNTIiIHN0cm9rZS13aWR0aD0iMi41IiBzdHJva2U9IiM0MjQyNDIiIGZpbGw9Im5vbmUiLz4mI3hhOzxwb2x5Z29uIHBvaW50cz0iMjk1LjU5LC0yMzUuMjYgMjkzLjQ3LC0yMjQuODggMjg4LjY1LC0yMzQuMzEgMjk1LjU5LC0yMzUuMjYiIHN0cm9rZS13aWR0aD0iMi41IiBzdHJva2U9IiM0MjQyNDIiIGZpbGw9IiM0MjQyNDIiLz4mI3hhOzx0ZXh0IGZpbGw9IiM2MTYxNjEiIGZvbnQtc2l6ZT0iOS4wMCIgZm9udC1mYW1pbHk9IlRpbWVzLHNlcmlmIiB5PSItMjU2LjUiIHg9IjMxNi42OCIgdGV4dC1hbmNob3I9Im1pZGRsZSI+IDEzMCDQutC8ICgyLjAg0YcpIDwvdGV4dD4mI3hhOzx0ZXh0IGZpbGw9IiM2MTYxNjEiIGZvbnQtc2l6ZT0iOS4wMCIgZm9udC1mYW1pbHk9IlRpbWVzLHNlcmlmIiB5PSItMjYxLjgzIiB4PSIyNTcuMyIgdGV4dC1hbmNob3I9Im1pZGRsZSI+0JDQstGC0L7QvNCw0LPQuNGB0YLRgNCw0LvRjDwvdGV4dD4mI3hhOzwvZz4mI3hhOyYjeGE7JiN4YTs8ZyBjbGFzcz0ibm9kZSIgaWQ9Im5vZGU5Ij4mI3hhOzx0aXRsZT7QpdC10YDRgdC+0L08L3RpdGxlPiYjeGE7PHBhdGggZD0iTTU4OC42LC0yMjAuOEM1ODguNiwtMjIwLjggNDgzLC0yMjAuOCA0ODMsLTIyMC44IDQ3NywtMjIwLjggNDcxLC0yMTQuOCA0NzEsLTIwOC44IDQ3MSwtMjA4LjggNDcxLC0xNjAuOCA0NzEsLTE2MC44IDQ3MSwtMTU0LjggNDc3LC0xNDguOCA0ODMsLTE0OC44IDQ4MywtMTQ4LjggNTg4LjYsLTE0OC44IDU4OC42LC0xNDguOCA1OTQuNiwtMTQ4LjggNjAwLjYsLTE1NC44IDYwMC42LC0xNjAuOCA2MDAuNiwtMTYwLjggNjAwLjYsLTIwOC44IDYwMC42LC0yMDguOCA2MDAuNiwtMjE0LjggNTk0LjYsLTIyMC44IDU4OC42LC0yMjAuOCIgc3Ryb2tlPSIjMTk3NmQyIiBmaWxsPSIjZTNmMmZkIi8+JiN4YTs8dGV4dCBmb250LXNpemU9IjEwLjAwIiBmb250LWZhbWlseT0iVGltZXMsc2VyaWYiIHk9Ii0xODcuOCIgeD0iNTM1LjgiIHRleHQtYW5jaG9yPSJtaWRkbGUiPtCl0LXRgNGB0L7QvTwvdGV4dD4mI3hhOzx0ZXh0IGZvbnQtc2l6ZT0iMTAuMDAiIGZvbnQtZmFtaWx5PSJUaW1lcyxzZXJpZiIgeT0iLTE3NS44IiB4PSI1MzUuOCIgdGV4dC1hbmNob3I9Im1pZGRsZSI+Mjg5INGC0YvRgTwvdGV4dD4mI3hhOzwvZz4mI3hhOyYjeGE7PGcgY2xhc3M9ImVkZ2UiIGlkPSJlZGdlNyI+JiN4YTs8dGl0bGU+0J7QtNC10YHRgdCwLSZndDvQpdC10YDRgdC+0L08L3RpdGxlPiYjeGE7PHBhdGggZD0iTTUzNS44LC0yOTcuMzFDNTM1LjgsLTI3Ny45NSA1MzUuOCwtMjU0LjkxIDUzNS44LC0yMzQuODIiIHN0cm9rZS13aWR0aD0iMi41IiBzdHJva2U9IiM0MjQyNDIiIGZpbGw9Im5vbmUiLz4mI3hhOzxwb2x5Z29uIHBvaW50cz0iNTM5LjMsLTIzNC45MSA1MzUuOCwtMjI0LjkxIDUzMi4zLC0yMzQuOTEgNTM5LjMsLTIzNC45MSIgc3Ryb2tlLXdpZHRoPSIyLjUiIHN0cm9rZT0iIzQyNDI0MiIgZmlsbD0iIzQyNDI0MiIvPiYjeGE7PHRleHQgZmlsbD0iIzYxNjE2MSIgZm9udC1zaXplPSI5LjAwIiBmb250LWZhbWlseT0iVGltZXMsc2VyaWYiIHk9Ii0yNTYuNSIgeD0iNTYzLjU1IiB0ZXh0LWFuY2hvcj0ibWlkZGxlIj4gMjAwINC60LwgKDMuMCDRhykgPC90ZXh0PiYjeGE7PHRleHQgZmlsbD0iIzYxNjE2MSIgZm9udC1zaXplPSI5LjAwIiBmb250LWZhbWlseT0iVGltZXMsc2VyaWYiIHk9Ii0yNjIuMDIiIHg9IjUwNC4zIiB0ZXh0LWFuY2hvcj0ibWlkZGxlIj7QkNCy0YLQvtC80LDQs9C40YHRgtGA0LDQu9GMPC90ZXh0PiYjeGE7PC9nPiYjeGE7JiN4YTs8ZyBjbGFzcz0iZWRnZSIgaWQ9ImVkZ2U4Ij4mI3hhOzx0aXRsZT7QpdCw0YDRjNC60L7Qsi0mZ3Q70JTQvdC10L/RgDwvdGl0bGU+JiN4YTs8cGF0aCBkPSJNODczLjQyLC0zNDAuOEM5MDEuODgsLTM0MC44IDkzNC4xOSwtMzQwLjggOTYzLjY4LC0zNDAuOCIgc3Ryb2tlLXdpZHRoPSIyLjUiIHN0cm9rZT0iIzQyNDI0MiIgZmlsbD0ibm9uZSIvPiYjeGE7PHBvbHlnb24gcG9pbnRzPSI5NjMuNjYsLTM0NC4zIDk3My42NiwtMzQwLjggOTYzLjY2LC0zMzcuMyA5NjMuNjYsLTM0NC4zIiBzdHJva2Utd2lkdGg9IjIuNSIgc3Ryb2tlPSIjNDI0MjQyIiBmaWxsPSIjNDI0MjQyIi8+JiN4YTs8dGV4dCBmaWxsPSIjNjE2MTYxIiBmb250LXNpemU9IjkuMDAiIGZvbnQtZmFtaWx5PSJUaW1lcyxzZXJpZiIgeT0iLTM0Ni41IiB4PSI5MjUuMyIgdGV4dC1hbmNob3I9Im1pZGRsZSI+IDIyMCDQutC8ICgzLjUg0YcpIDwvdGV4dD4mI3hhOzx0ZXh0IGZpbGw9IiM2MTYxNjEiIGZvbnQtc2l6ZT0iOS4wMCIgZm9udC1mYW1pbHk9IlRpbWVzLHNlcmlmIiB5PSItMzMyLjciIHg9Ijk0MS4xIiB0ZXh0LWFuY2hvcj0ibWlkZGxlIj7QkNCy0YLQvtC80LDQs9C40YHRgtGA0LDQu9GMPC90ZXh0PiYjeGE7PC9nPiYjeGE7JiN4YTsmI3hhOzxnIGNsYXNzPSJub2RlIiBpZD0ibm9kZTE1Ij4mI3hhOzx0aXRsZT7QmtGA0LjQstC+0Llf0KDQvtCzPC90aXRsZT4mI3hhOzxwYXRoIGQ9Ik0xMTA5LjYsLTIyMC44QzExMDkuNiwtMjIwLjggMTAwNCwtMjIwLjggMTAwNCwtMjIwLjggOTk4LC0yMjAuOCA5OTIsLTIxNC44IDk5MiwtMjA4LjggOTkyLC0yMDguOCA5OTIsLTE2MC44IDk5MiwtMTYwLjggOTkyLC0xNTQuOCA5OTgsLTE0OC44IDEwMDQsLTE0OC44IDEwMDQsLTE0OC44IDExMDkuNiwtMTQ4LjggMTEwOS42LC0xNDguOCAxMTE1LjYsLTE0OC44IDExMjEuNiwtMTU0LjggMTEyMS42LC0xNjAuOCAxMTIxLjYsLTE2MC44IDExMjEuNiwtMjA4LjggMTEyMS42LC0yMDguOCAxMTIxLjYsLTIxNC44IDExMTUuNiwtMjIwLjggMTEwOS42LC0yMjAuOCIgc3Ryb2tlPSIjMTk3NmQyIiBmaWxsPSIjZTNmMmZkIi8+JiN4YTs8dGV4dCBmb250LXNpemU9IjEwLjAwIiBmb250LWZhbWlseT0iVGltZXMsc2VyaWYiIHk9Ii0xODcuOCIgeD0iMTA1Ni44IiB0ZXh0LWFuY2hvcj0ibWlkZGxlIj7QmtGA0LjQstC+0Lkg0KDQvtCzPC90ZXh0PiYjeGE7PHRleHQgZm9udC1zaXplPSIxMC4wMCIgZm9udC1mYW1pbHk9IlRpbWVzLHNlcmlmIiB5PSItMTc1LjgiIHg9IjEwNTYuOCIgdGV4dC1hbmNob3I9Im1pZGRsZSI+NjE5INGC0YvRgTwvdGV4dD4mI3hhOzwvZz4mI3hhOyYjeGE7PGcgY2xhc3M9ImVkZ2UiIGlkPSJlZGdlOSI+JiN4YTs8dGl0bGU+0JTQvdC10L/RgC0mZ3Q70JrRgNC40LLQvtC5X9Cg0L7QszwvdGl0bGU+JiN4YTs8cGF0aCBkPSJNMTA1Ni44LC0yOTcuMzFDMTA1Ni44LC0yNzcuOTUgMTA1Ni44LC0yNTQuOTEgMTA1Ni44LC0yMzQuODIiIHN0cm9rZS13aWR0aD0iMi41IiBzdHJva2U9IiM0MjQyNDIiIGZpbGw9Im5vbmUiLz4mI3hhOzxwb2x5Z29uIHBvaW50cz0iMTA2MC4zLC0yMzQuOTEgMTA1Ni44LC0yMjQuOTEgMTA1My4zLC0yMzQuOTEgMTA2MC4zLC0yMzQuOTEiIHN0cm9rZS13aWR0aD0iMi41IiBzdHJva2U9IiM0MjQyNDIiIGZpbGw9IiM0MjQyNDIiLz4mI3hhOzx0ZXh0IGZpbGw9IiM2MTYxNjEiIGZvbnQtc2l6ZT0iOS4wMCIgZm9udC1mYW1pbHk9IlRpbWVzLHNlcmlmIiB5PSItMjU2LjUiIHg9IjEwODQuNTUiIHRleHQtYW5jaG9yPSJtaWRkbGUiPiAxNTAg0LrQvCAoMi41INGHKSA8L3RleHQ+JiN4YTs8dGV4dCBmaWxsPSIjNjE2MTYxIiBmb250LXNpemU9IjkuMDAiIGZvbnQtZmFtaWx5PSJUaW1lcyxzZXJpZiIgeT0iLTI2Mi4wMiIgeD0iMTAyNS4zIiB0ZXh0LWFuY2hvcj0ibWlkZGxlIj7QkNCy0YLQvtC80LDQs9C40YHRgtGA0LDQu9GMPC90ZXh0PiYjeGE7PC9nPiYjeGE7JiN4YTs8ZyBjbGFzcz0iZWRnZSIgaWQ9ImVkZ2UxMCI+JiN4YTs8dGl0bGU+0KPQttCz0L7RgNC+0LQtJmd0O9CY0LLQsNC90L5f0KTRgNCw0L3QutC+0LLRgdC6PC90aXRsZT4mI3hhOzxwYXRoIGQ9Ik0xMjkuOTgsLTE4NC44QzE1Ny44OCwtMTg0LjggMTkwLjcxLC0xODQuOCAyMTkuOTcsLTE4NC44IiBzdHJva2Utd2lkdGg9IjIuNSIgc3Ryb2tlPSIjNDI0MjQyIiBmaWxsPSJub25lIi8+JiN4YTs8cG9seWdvbiBwb2ludHM9IjIxOS43OCwtMTg4LjMgMjI5Ljc4LC0xODQuOCAyMTkuNzgsLTE4MS4zIDIxOS43OCwtMTg4LjMiIHN0cm9rZS13aWR0aD0iMi41IiBzdHJva2U9IiM0MjQyNDIiIGZpbGw9IiM0MjQyNDIiLz4mI3hhOzx0ZXh0IGZpbGw9IiM2MTYxNjEiIGZvbnQtc2l6ZT0iOS4wMCIgZm9udC1mYW1pbHk9IlRpbWVzLHNlcmlmIiB5PSItMTkwLjUiIHg9IjE4MS44IiB0ZXh0LWFuY2hvcj0ibWlkZGxlIj4gMTgwINC60LwgKDMuNSDRhykgPC90ZXh0PiYjeGE7PHRleHQgZmlsbD0iIzYxNjE2MSIgZm9udC1zaXplPSI5LjAwIiBmb250LWZhbWlseT0iVGltZXMsc2VyaWYiIHk9Ii0xNzYuNyIgeD0iMTY4LjE3IiB0ZXh0LWFuY2hvcj0ibWlkZGxlIj7Qk9C+0YDQvdCw0Y88L3RleHQ+JiN4YTs8L2c+JiN4YTsmI3hhOyYjeGE7PGcgY2xhc3M9Im5vZGUiIGlkPSJub2RlOCI+JiN4YTs8dGl0bGU+0KLQtdGA0L3QvtC/0L7Qu9GMPC90aXRsZT4mI3hhOzxwYXRoIGQ9Ik0xNDUuNiwtNzJDMTQ1LjYsLTcyIDQwLC03MiA0MCwtNzIgMzQsLTcyIDI4LC02NiAyOCwtNjAgMjgsLTYwIDI4LC0xMiAyOCwtMTIgMjgsLTYgMzQsMCA0MCwwIDQwLDAgMTQ1LjYsMCAxNDUuNiwwIDE1MS42LDAgMTU3LjYsLTYgMTU3LjYsLTEyIDE1Ny42LC0xMiAxNTcuNiwtNjAgMTU3LjYsLTYwIDE1Ny42LC02NiAxNTEuNiwtNzIgMTQ1LjYsLTcyIiBzdHJva2U9IiMxOTc2ZDIiIGZpbGw9IiNlM2YyZmQiLz4mI3hhOzx0ZXh0IGZvbnQtc2l6ZT0iMTAuMDAiIGZvbnQtZmFtaWx5PSJUaW1lcyxzZXJpZiIgeT0iLTM5IiB4PSI5Mi44IiB0ZXh0LWFuY2hvcj0ibWlkZGxlIj7QotC10YDQvdC+0L/QvtC70Yw8L3RleHQ+JiN4YTs8dGV4dCBmb250LXNpemU9IjEwLjAwIiBmb250LWZhbWlseT0iVGltZXMsc2VyaWYiIHk9Ii0yNyIgeD0iOTIuOCIgdGV4dC1hbmNob3I9Im1pZGRsZSI+MjI1INGC0YvRgTwvdGV4dD4mI3hhOzwvZz4mI3hhOyYjeGE7PGcgY2xhc3M9ImVkZ2UiIGlkPSJlZGdlMTEiPiYjeGE7PHRpdGxlPtCY0LLQsNC90L5f0KTRgNCw0L3QutC+0LLRgdC6LSZndDvQotC10YDQvdC+0L/QvtC70Yw8L3RpdGxlPiYjeGE7PHBhdGggZD0iTTI0OS4yLC0xNDguNDVDMjIwLjM2LC0xMjcuOSAxODMuNzksLTEwMS44NCAxNTMuMjgsLTgwLjEiIHN0cm9rZS13aWR0aD0iMi41IiBzdHJva2U9IiM0MjQyNDIiIGZpbGw9Im5vbmUiLz4mI3hhOzxwb2x5Z29uIHBvaW50cz0iMTU1LjU5LC03Ny40NSAxNDUuNDEsLTc0LjQ5IDE1MS41MiwtODMuMTUgMTU1LjU5LC03Ny40NSIgc3Ryb2tlLXdpZHRoPSIyLjUiIHN0cm9rZT0iIzQyNDI0MiIgZmlsbD0iIzQyNDI0MiIvPiYjeGE7PHRleHQgZmlsbD0iIzYxNjE2MSIgZm9udC1zaXplPSI5LjAwIiBmb250LWZhbWlseT0iVGltZXMsc2VyaWYiIHk9Ii0xMDcuNyIgeD0iMjI5LjcyIiB0ZXh0LWFuY2hvcj0ibWlkZGxlIj4gMTMwINC60LwgKDIuMCDRhykgPC90ZXh0PiYjeGE7PHRleHQgZmlsbD0iIzYxNjE2MSIgZm9udC1zaXplPSI5LjAwIiBmb250LWZhbWlseT0iVGltZXMsc2VyaWYiIHk9Ii0xMTMuMjciIHg9IjE2NC41NCIgdGV4dC1hbmNob3I9Im1pZGRsZSI+0JDQstGC0L7QvNCw0LPQuNGB0YLRgNCw0LvRjDwvdGV4dD4mI3hhOzwvZz4mI3hhOyYjeGE7JiN4YTs8ZyBjbGFzcz0ibm9kZSIgaWQ9Im5vZGUxMCI+JiN4YTs8dGl0bGU+0KfQtdGA0L3QuNCz0L7QsjwvdGl0bGU+JiN4YTs8cGF0aCBkPSJNMzc5LjYsLTcyQzM3OS42LC03MiAyNzQsLTcyIDI3NCwtNzIgMjY4LC03MiAyNjIsLTY2IDI2MiwtNjAgMjYyLC02MCAyNjIsLTEyIDI2MiwtMTIgMjYyLC02IDI2OCwwIDI3NCwwIDI3NCwwIDM3OS42LDAgMzc5LjYsMCAzODUuNiwwIDM5MS42LC02IDM5MS42LC0xMiAzOTEuNiwtMTIgMzkxLjYsLTYwIDM5MS42LC02MCAzOTEuNiwtNjYgMzg1LjYsLTcyIDM3OS42LC03MiIgc3Ryb2tlPSIjMTk3NmQyIiBmaWxsPSIjZTNmMmZkIi8+JiN4YTs8dGV4dCBmb250LXNpemU9IjEwLjAwIiBmb250LWZhbWlseT0iVGltZXMsc2VyaWYiIHk9Ii0zOSIgeD0iMzI2LjgiIHRleHQtYW5jaG9yPSJtaWRkbGUiPtCn0LXRgNC90LjQs9C+0LI8L3RleHQ+JiN4YTs8dGV4dCBmb250LXNpemU9IjEwLjAwIiBmb250LWZhbWlseT0iVGltZXMsc2VyaWYiIHk9Ii0yNyIgeD0iMzI2LjgiIHRleHQtYW5jaG9yPSJtaWRkbGUiPjI4NiDRgtGL0YE8L3RleHQ+JiN4YTs8L2c+JiN4YTsmI3hhOzxnIGNsYXNzPSJlZGdlIiBpZD0iZWRnZTEyIj4mI3hhOzx0aXRsZT7QotC10YDQvdC+0L/QvtC70YwtJmd0O9Cn0LXRgNC90LjQs9C+0LI8L3RpdGxlPiYjeGE7PHBhdGggZD0iTTE1Ny45OCwtMzZDMTg1Ljg4LC0zNiAyMTguNzEsLTM2IDI0Ny45NywtMzYiIHN0cm9rZS13aWR0aD0iMi41IiBzdHJva2U9IiM0MjQyNDIiIGZpbGw9Im5vbmUiLz4mI3hhOzxwb2x5Z29uIHBvaW50cz0iMjQ3Ljc4LC0zOS41IDI1Ny43OCwtMzYgMjQ3Ljc4LC0zMi41IDI0Ny43OCwtMzkuNSIgc3Ryb2tlLXdpZHRoPSIyLjUiIHN0cm9rZT0iIzQyNDI0MiIgZmlsbD0iIzQyNDI0MiIvPiYjeGE7PHRleHQgZmlsbD0iIzYxNjE2MSIgZm9udC1zaXplPSI5LjAwIiBmb250LWZhbWlseT0iVGltZXMsc2VyaWYiIHk9Ii00MS43IiB4PSIyMDkuOCIgdGV4dC1hbmNob3I9Im1pZGRsZSI+IDMyMCDQutC8ICg0LjUg0YcpIDwvdGV4dD4mI3hhOzx0ZXh0IGZpbGw9IiM2MTYxNjEiIGZvbnQtc2l6ZT0iOS4wMCIgZm9udC1mYW1pbHk9IlRpbWVzLHNlcmlmIiB5PSItMjcuOSIgeD0iMjI1LjQyIiB0ZXh0LWFuY2hvcj0ibWlkZGxlIj7QkNCy0YLQvtC80LDQs9C40YHRgtGA0LDQu9GMPC90ZXh0PiYjeGE7PC9nPiYjeGE7JiN4YTsmI3hhOzxnIGNsYXNzPSJub2RlIiBpZD0ibm9kZTEyIj4mI3hhOzx0aXRsZT7QkdGA0L7QstCw0YDRizwvdGl0bGU+JiN4YTs8cGF0aCBkPSJNNzkzLjYsLTcyQzc5My42LC03MiA2ODgsLTcyIDY4OCwtNzIgNjgyLC03MiA2NzYsLTY2IDY3NiwtNjAgNjc2LC02MCA2NzYsLTEyIDY3NiwtMTIgNjc2LC02IDY4MiwwIDY4OCwwIDY4OCwwIDc5My42LDAgNzkzLjYsMCA3OTkuNiwwIDgwNS42LC02IDgwNS42LC0xMiA4MDUuNiwtMTIgODA1LjYsLTYwIDgwNS42LC02MCA4MDUuNiwtNjYgNzk5LjYsLTcyIDc5My42LC03MiIgc3Ryb2tlPSIjMTk3NmQyIiBmaWxsPSIjZTNmMmZkIi8+JiN4YTs8dGV4dCBmb250LXNpemU9IjEwLjAwIiBmb250LWZhbWlseT0iVGltZXMsc2VyaWYiIHk9Ii0zOSIgeD0iNzQwLjgiIHRleHQtYW5jaG9yPSJtaWRkbGUiPtCR0YDQvtCy0LDRgNGLPC90ZXh0PiYjeGE7PHRleHQgZm9udC1zaXplPSIxMC4wMCIgZm9udC1mYW1pbHk9IlRpbWVzLHNlcmlmIiB5PSItMjciIHg9Ijc0MC44IiB0ZXh0LWFuY2hvcj0ibWlkZGxlIj4xMDkg0YLRi9GBPC90ZXh0PiYjeGE7PC9nPiYjeGE7JiN4YTs8ZyBjbGFzcz0iZWRnZSIgaWQ9ImVkZ2UxMyI+JiN4YTs8dGl0bGU+0KXQtdGA0YHQvtC9LSZndDvQkdGA0L7QstCw0YDRizwvdGl0bGU+JiN4YTs8cGF0aCBkPSJNNTg1LjE2LC0xNDguNDVDNjEzLjg2LC0xMjcuOSA2NTAuMjUsLTEwMS44NCA2ODAuNjIsLTgwLjEiIHN0cm9rZS13aWR0aD0iMi41IiBzdHJva2U9IiM0MjQyNDIiIGZpbGw9Im5vbmUiLz4mI3hhOzxwb2x5Z29uIHBvaW50cz0iNjgyLjM0LC04My4xNyA2ODguNDMsLTc0LjUgNjc4LjI3LC03Ny40OCA2ODIuMzQsLTgzLjE3IiBzdHJva2Utd2lkdGg9IjIuNSIgc3Ryb2tlPSIjNDI0MjQyIiBmaWxsPSIjNDI0MjQyIi8+JiN4YTs8dGV4dCBmaWxsPSIjNjE2MTYxIiBmb250LXNpemU9IjkuMDAiIGZvbnQtZmFtaWx5PSJUaW1lcyxzZXJpZiIgeT0iLTEwNy43IiB4PSI2NjkuOTQiIHRleHQtYW5jaG9yPSJtaWRkbGUiPiA0NSDQutC8ICgxLjAg0YcpIDwvdGV4dD4mI3hhOzx0ZXh0IGZpbGw9IiM2MTYxNjEiIGZvbnQtc2l6ZT0iOS4wMCIgZm9udC1mYW1pbHk9IlRpbWVzLHNlcmlmIiB5PSItMTEzLjI3IiB4PSI2MTcuODEiIHRleHQtYW5jaG9yPSJtaWRkbGUiPtCe0LHQu9Cw0YHRgtC90LDRjzwvdGV4dD4mI3hhOzwvZz4mI3hhOyYjeGE7PGcgY2xhc3M9Im5vZGUiIGlkPSJub2RlMTEiPiYjeGE7PHRpdGxlPtCf0L7Qu9GC0LDQstCwPC90aXRsZT4mI3hhOzxwYXRoIGQ9Ik02MTMuNiwtNzJDNjEzLjYsLTcyIDUwOCwtNzIgNTA4LC03MiA1MDIsLTcyIDQ5NiwtNjYgNDk2LC02MCA0OTYsLTYwIDQ5NiwtMTIgNDk2LC0xMiA0OTYsLTYgNTAyLDAgNTA4LDAgNTA4LDAgNjEzLjYsMCA2MTMuNiwwIDYxOS42LDAgNjI1LjYsLTYgNjI1LjYsLTEyIDYyNS42LC0xMiA2MjUuNiwtNjAgNjI1LjYsLTYwIDYyNS42LC02NiA2MTkuNiwtNzIgNjEzLjYsLTcyIiBzdHJva2U9IiMxOTc2ZDIiIGZpbGw9IiNlM2YyZmQiLz4mI3hhOzx0ZXh0IGZvbnQtc2l6ZT0iMTAuMDAiIGZvbnQtZmFtaWx5PSJUaW1lcyxzZXJpZiIgeT0iLTM5IiB4PSI1NjAuOCIgdGV4dC1hbmNob3I9Im1pZGRsZSI+0J/QvtC70YLQsNCy0LA8L3RleHQ+JiN4YTs8dGV4dCBmb250LXNpemU9IjEwLjAwIiBmb250LWZhbWlseT0iVGltZXMsc2VyaWYiIHk9Ii0yNyIgeD0iNTYwLjgiIHRleHQtYW5jaG9yPSJtaWRkbGUiPjI4NCDRgtGL0YE8L3RleHQ+JiN4YTs8L2c+JiN4YTsmI3hhOzxnIGNsYXNzPSJlZGdlIiBpZD0iZWRnZTE0Ij4mI3hhOzx0aXRsZT7Qp9C10YDQvdC40LPQvtCyLSZndDvQn9C+0LvRgtCw0LLQsDwvdGl0bGU+JiN4YTs8cGF0aCBkPSJNMzkxLjk4LC0zNkM0MTkuODgsLTM2IDQ1Mi43MSwtMzYgNDgxLjk3LC0zNiIgc3Ryb2tlLXdpZHRoPSIyLjUiIHN0cm9rZT0iIzQyNDI0MiIgZmlsbD0ibm9uZSIvPiYjeGE7PHBvbHlnb24gcG9pbnRzPSI0ODEuNzgsLTM5LjUgNDkxLjc4LC0zNiA0ODEuNzgsLTMyLjUgNDgxLjc4LC0zOS41IiBzdHJva2Utd2lkdGg9IjIuNSIgc3Ryb2tlPSIjNDI0MjQyIiBmaWxsPSIjNDI0MjQyIi8+JiN4YTs8dGV4dCBmaWxsPSIjNjE2MTYxIiBmb250LXNpemU9IjkuMDAiIGZvbnQtZmFtaWx5PSJUaW1lcyxzZXJpZiIgeT0iLTQxLjciIHg9IjQ0My44IiB0ZXh0LWFuY2hvcj0ibWlkZGxlIj4gMTgwINC60LwgKDIuNSDRhykgPC90ZXh0PiYjeGE7PHRleHQgZmlsbD0iIzYxNjE2MSIgZm9udC1zaXplPSI5LjAwIiBmb250LWZhbWlseT0iVGltZXMsc2VyaWYiIHk9Ii0yNy45IiB4PSI0NTkuNDIiIHRleHQtYW5jaG9yPSJtaWRkbGUiPtCQ0LLRgtC+0LzQsNCz0LjRgdGC0YDQsNC70Yw8L3RleHQ+JiN4YTs8L2c+JiN4YTsmI3hhOyYjeGE7PGcgY2xhc3M9Im5vZGUiIGlkPSJub2RlMTMiPiYjeGE7PHRpdGxlPtCi0YDRg9GB0LrQsNCy0LXRhjwvdGl0bGU+JiN4YTs8cGF0aCBkPSJNNzgyLjYsLTU0MEM3ODIuNiwtNTQwIDY3NywtNTQwIDY3NywtNTQwIDY3MSwtNTQwIDY2NSwtNTM0IDY2NSwtNTI4IDY2NSwtNTI4IDY2NSwtNDgwIDY2NSwtNDgwIDY2NSwtNDc0IDY3MSwtNDY4IDY3NywtNDY4IDY3NywtNDY4IDc4Mi42LC00NjggNzgyLjYsLTQ2OCA3ODguNiwtNDY4IDc5NC42LC00NzQgNzk0LjYsLTQ4MCA3OTQuNiwtNDgwIDc5NC42LC01MjggNzk0LjYsLTUyOCA3OTQuNiwtNTM0IDc4OC42LC01NDAgNzgyLjYsLTU0MCIgc3Ryb2tlPSIjMTk3NmQyIiBmaWxsPSIjZTNmMmZkIi8+JiN4YTs8dGV4dCBmb250LXNpemU9IjEwLjAwIiBmb250LWZhbWlseT0iVGltZXMsc2VyaWYiIHk9Ii01MDciIHg9IjcyOS44IiB0ZXh0LWFuY2hvcj0ibWlkZGxlIj7QotGA0YPRgdC60LDQstC10YY8L3RleHQ+JiN4YTs8dGV4dCBmb250LXNpemU9IjEwLjAwIiBmb250LWZhbWlseT0iVGltZXMsc2VyaWYiIHk9Ii00OTUiIHg9IjcyOS44IiB0ZXh0LWFuY2hvcj0ibWlkZGxlIj4yOCDRgtGL0YE8L3RleHQ+JiN4YTs8L2c+JiN4YTsmI3hhOzxnIGNsYXNzPSJub2RlIiBpZD0ibm9kZTE0Ij4mI3hhOzx0aXRsZT7Qp9C10YDQvdC+0LzQvtGA0YHQujwvdGl0bGU+JiN4YTs8cGF0aCBkPSJNOTYyLjYsLTU0MEM5NjIuNiwtNTQwIDg1NywtNTQwIDg1NywtNTQwIDg1MSwtNTQwIDg0NSwtNTM0IDg0NSwtNTI4IDg0NSwtNTI4IDg0NSwtNDgwIDg0NSwtNDgwIDg0NSwtNDc0IDg1MSwtNDY4IDg1NywtNDY4IDg1NywtNDY4IDk2Mi42LC00NjggOTYyLjYsLTQ2OCA5NjguNiwtNDY4IDk3NC42LC00NzQgOTc0LjYsLTQ4MCA5NzQuNiwtNDgwIDk3NC42LC01MjggOTc0LjYsLTUyOCA5NzQuNiwtNTM0IDk2OC42LC01NDAgOTYyLjYsLTU0MCIgc3Ryb2tlPSIjMTk3NmQyIiBmaWxsPSIjZTNmMmZkIi8+JiN4YTs8dGV4dCBmb250LXNpemU9IjEwLjAwIiBmb250LWZhbWlseT0iVGltZXMsc2VyaWYiIHk9Ii01MDciIHg9IjkwOS44IiB0ZXh0LWFuY2hvcj0ibWlkZGxlIj7Qp9C10YDQvdC+0LzQvtGA0YHQujwvdGV4dD4mI3hhOzx0ZXh0IGZvbnQtc2l6ZT0iMTAuMDAiIGZvbnQtZmFtaWx5PSJUaW1lcyxzZXJpZiIgeT0iLTQ5NSIgeD0iOTA5LjgiIHRleHQtYW5jaG9yPSJtaWRkbGUiPjU5INGC0YvRgTwvdGV4dD4mI3hhOzwvZz4mI3hhOzwvZz4mI3hhOzwvc3ZnPg==;" vertex="1" parent="1">
          <mxGeometry x="80" y="60" width="1161" height="572" as="geometry" />
        </mxCell>
      </root>
    </mxGraphModel>
  </diagram>
</mxfile>
